<?xml version="1.0" encoding="utf-8"?>
<!-- Generator: Adobe Illustrator 19.0.0, SVG Export Plug-In . SVG Version: 6.00 Build 0)  -->
<!DOCTYPE svg PUBLIC "-//W3C//DTD SVG 1.1//EN" "http://www.w3.org/Graphics/SVG/1.1/DTD/svg11.dtd">
<svg version="1.1" id="Layer_1" xmlns="http://www.w3.org/2000/svg" xmlns:xlink="http://www.w3.org/1999/xlink" x="0px" y="0px"
	 width="97.6px" height="98px" viewBox="0 0 97.6 98" style="enable-background:new 0 0 97.6 98;" xml:space="preserve">
<style type="text/css">
	.st0{clip-path:url(#XMLID_22_);fill:#4A68AC;}
	.st1{clip-path:url(#XMLID_22_);fill:#744E99;}
	.st2{clip-path:url(#XMLID_22_);fill:#AA8ABF;}
	.st3{clip-path:url(#XMLID_22_);fill:#5084B3;}
	.st4{fill:#575756;}
</style>
<g id="XMLID_5_">
	<g id="XMLID_13_">
		<defs>
			<path id="XMLID_14_" d="M18.3,58.6c6.7,0,13.3,0,20,0c10.7,0,21.5,0,32.2,0c1.7,0,3.4,0,5,0c0.7,0,2,0.3,2.7,0
				c0.3-0.1,0.2-0.2,0.2-0.6c0-1.1,0-2.3,0-3.4c0-10.1,0-20.1,0-30.2c0-5.2,0-10.3,0-15.5c0-1.8,0-3.6,0-5.4c0-1,0.1-2,0-3
				C78.4,0,78.6,0.1,78,0c-1,0-2,0-3,0c-4.2,0-8.4,0-12.5,0c-11,0-21.9,0-32.9,0c-3.4,0-6.7,0-10.1,0c-0.2,0-1.1-0.1-1.2,0
				c-0.2,0.2,0,1.7,0,2c0,9.3,0,18.7,0,28c0,9,0,18,0,27C18.3,57.6,18.3,58.1,18.3,58.6z"/>
		</defs>
		<clipPath id="XMLID_22_">
			<use xlink:href="#XMLID_14_"  style="overflow:visible;"/>
		</clipPath>
		<path id="XMLID_18_" class="st0" d="M47.3,4.6c10.9-0.8,21.1,6,25.3,15.9c3.7,8.9,2.6,19.4-3.1,27.2c-3.6,5-8.9,8.6-14.9,10
			c11.7-0.8,21.1-10,23.4-21.3c2.1-10.6-2.2-21.9-11.2-28.1C61.1,4.4,54,3,47.3,4.6"/>
		<path id="XMLID_17_" class="st1" d="M65,13.2c6.1,9.1,6.2,21.5,0.1,30.7C60,51.7,50.8,56.4,41.5,55.4c-6.2-0.6-12-3.7-16.1-8.3
			c6.4,9.5,18.6,13.9,29.4,10c10.3-3.7,17-13.8,17.3-24.6C72.3,25.5,69.7,18.5,65,13.2"/>
		<path id="XMLID_16_" class="st2" d="M52.8,52.8C42,55,30.9,49.8,25.5,40.4c-4.7-8.1-4.7-18.4-0.1-26.5c3-5.3,7.8-9.4,13.5-11.5
			C27.8,4.7,19.5,14.4,18.4,25.7C17.5,36.2,23,46.5,32.3,51.5C38.6,54.8,46.1,55.3,52.8,52.8"/>
		<path id="XMLID_15_" class="st3" d="M32.5,45c-6.1-8.3-6.7-19.9-1.6-28.8c4.9-8.6,14.7-14,24.7-13.1c5.9,0.6,11.5,3.3,15.7,7.5
			C64.8,1.7,52.9-2.1,42.5,1.4C32.1,5,25,15.3,24.9,26.2C24.9,33.2,27.6,40,32.5,45"/>
	</g>
</g>
<g id="XMLID_110_">
	<path id="XMLID_111_" class="st4" d="M6.3,84.7c1.4,0,2.7-0.3,3.9-0.8v1.4C9,85.8,7.6,86,6.2,86C2.1,86,0,83.7,0,79.2
		s2.1-6.8,6.2-6.8c1.4,0,2.8,0.3,4.1,0.8v1.4C9,74,7.7,73.7,6.3,73.7c-3.4,0-4.9,1.7-4.9,5.5C1.4,83,3,84.7,6.3,84.7z"/>
	<path id="XMLID_113_" class="st4" d="M24.7,79.2c0,4.5-2.1,6.8-6.2,6.8c-4.1,0-6.2-2.3-6.2-6.8s2.1-6.8,6.2-6.8
		C22.6,72.4,24.7,74.7,24.7,79.2z M23.2,79.2c0-3.8-1.5-5.5-4.8-5.5c-3.3,0-4.7,1.7-4.7,5.5c0,3.8,1.5,5.5,4.7,5.5
		C21.8,84.7,23.2,83,23.2,79.2z"/>
	<path id="XMLID_116_" class="st4" d="M38.5,72.5v13.3h-1.6l-8-11.2v11.2h-1.4V72.5h1.6l8,11.2V72.5H38.5z"/>
	<path id="XMLID_118_" class="st4" d="M51.8,72.5v1.4h-4.7v11.9h-1.4V73.9h-4.7v-1.4H51.8z"/>
	<path id="XMLID_120_" class="st4" d="M55.4,72.5v13.3h-1.4V72.5H55.4z"/>
	<path id="XMLID_122_" class="st4" d="M69.8,72.5v13.3h-1.6l-8-11.2v11.2h-1.4V72.5h1.6l8,11.2V72.5H69.8z"/>
	<path id="XMLID_124_" class="st4" d="M84,72.5v7.9c0,3.6-1.9,5.6-5.4,5.6c-3.5,0-5.4-2-5.4-5.6v-7.9h1.4v7.9c0,2.9,1.3,4.2,4,4.2
		s4-1.4,4-4.2v-7.9H84z"/>
	<path id="XMLID_126_" class="st4" d="M97.6,85.9h-1.5l-1.6-4.2h-5.8l-1.6,4.2h-1.6l5.3-13.3h1.4L97.6,85.9z M93.9,80.3l-2.3-6.1
		l-2.3,6.1H93.9z"/>
</g>
<g id="XMLID_64_">
	<g id="XMLID_198_">
		<path id="XMLID_217_" class="st4" d="M23.7,96.5c0,0.9-0.7,1.5-1.9,1.5c-0.6,0-1.1-0.2-1.6-0.4v-0.8c0.4,0.3,0.9,0.4,1.5,0.4
			c0.6,0,1.2-0.1,1.2-0.8c0-1.4-2.8-0.7-2.8-2.5c0-0.7,0.5-1.5,1.9-1.5c0.6,0,1,0.2,1.4,0.3v0.7c-0.3-0.2-0.7-0.4-1.3-0.4
			c-0.6,0-1.2,0.1-1.2,0.8C20.8,94.9,23.7,94.6,23.7,96.5z"/>
		<path id="XMLID_214_" class="st4" d="M31,95.2c0,2.3-1.4,2.7-2.5,2.7c-1.1,0-2.5-0.5-2.5-2.7s1.4-2.7,2.5-2.7
			C29.6,92.5,31,93,31,95.2z M30.3,95.2c0-1.8-0.9-2.1-1.7-2.1s-1.7,0.2-1.7,2.1s0.9,2.1,1.7,2.1S30.3,97,30.3,95.2z"/>
		<path id="XMLID_212_" class="st4" d="M37.1,97.2v0.7h-3.4v-5.3h0.7v4.6H37.1z"/>
		<path id="XMLID_210_" class="st4" d="M43.9,92.6v3.1c0,1.4-0.8,2.3-2.2,2.3c-1.4,0-2.2-0.8-2.2-2.3v-3.1h0.7v3.2
			c0,1,0.5,1.5,1.4,1.5s1.4-0.5,1.4-1.5v-3.2H43.9z"/>
		<path id="XMLID_208_" class="st4" d="M50.7,93.3h-1.8v4.6h-0.7v-4.6h-1.8v-0.7h4.3V93.3z"/>
		<path id="XMLID_206_" class="st4" d="M53.9,97.9h-0.7v-5.3h0.7V97.9z"/>
		<path id="XMLID_203_" class="st4" d="M61.6,95.2c0,2.3-1.4,2.7-2.5,2.7c-1.1,0-2.5-0.5-2.5-2.7s1.4-2.7,2.5-2.7
			C60.3,92.5,61.6,93,61.6,95.2z M60.9,95.2c0-1.8-0.9-2.1-1.7-2.1s-1.7,0.2-1.7,2.1s0.9,2.1,1.7,2.1S60.9,97,60.9,95.2z"/>
		<path id="XMLID_201_" class="st4" d="M68.9,92.6v5.3h-0.8l-3-4.3v4.3h-0.7v-5.3h0.8l3,4.2v-4.2H68.9z"/>
		<path id="XMLID_199_" class="st4" d="M75.2,96.5c0,0.9-0.7,1.5-1.9,1.5c-0.6,0-1.1-0.2-1.6-0.4v-0.8c0.4,0.3,0.9,0.4,1.5,0.4
			c0.6,0,1.2-0.1,1.2-0.8c0-1.4-2.8-0.7-2.8-2.5c0-0.7,0.5-1.5,1.9-1.5c0.6,0,1,0.2,1.4,0.3v0.7c-0.3-0.2-0.7-0.4-1.3-0.4
			c-0.6,0-1.2,0.1-1.2,0.8C72.4,94.9,75.2,94.6,75.2,96.5z"/>
	</g>
</g>
</svg>
