<svg id="Group_176" data-name="Group 176" xmlns="http://www.w3.org/2000/svg" width="71.382" height="109.327" viewBox="0 0 71.382 109.327">
  <path id="Path_268" data-name="Path 268" d="M733.3,298a8.729,8.729,0,0,1,.165-3.542c.272-1.048.829-1.984,1.155-3.014a10.209,10.209,0,0,0,.25-5.242,9.779,9.779,0,0,0-2.423-4.609c-1.336-1.427-3.192-2.078-4.586-3.423a9.813,9.813,0,0,1-2.7-5.282,9.7,9.7,0,0,0-6.935-7.369,9.56,9.56,0,0,0-2.783-.337,29.773,29.773,0,0,1-3.127.152,9.319,9.319,0,0,1-5.649-2.556,9.956,9.956,0,0,0-10.346-2.044,10.28,10.28,0,0,0-2.42,1.3c-.853.617-1.552,1.415-2.438,1.988a9.635,9.635,0,0,1-6.416,1.187,10.711,10.711,0,0,0-9.353,4.361,12.268,12.268,0,0,0-2.138,4.978,7.561,7.561,0,0,1-3.292,4.869,15.013,15.013,0,0,0-4.249,3.473,11.1,11.1,0,0,0-2.172,5.047,10.067,10.067,0,0,0,.6,5.243,14.262,14.262,0,0,1,1.088,3.157,8.729,8.729,0,0,1-.165,3.542c-.263,1.01-.794,1.91-1.118,2.9a10.5,10.5,0,0,0-.517,2.828,9.875,9.875,0,0,0,1.113,4.977,9.76,9.76,0,0,0,3.767,3.915,9.82,9.82,0,0,1,4.132,4.07c.9,1.772.935,3.794,1.9,5.543a9.882,9.882,0,0,0,1.109,1.577l-2.188,11.585q-1.739,9.2-3.477,18.4c-.56,2.969-1.28,5.954-1.69,8.949-.006.043-.017.085-.024.127-.081.427.173.7.607.491l11.89-5.7,9.114,9.774c.252.27.772-.053,1.139-.508l.02-.027a2.187,2.187,0,0,0,.215-.335c.005-.01.011-.019.016-.029a1.262,1.262,0,0,0,.146-.464q.681-3.6,1.362-7.208l3.322-17.587q.845-4.476,1.691-8.951a10.119,10.119,0,0,0,2.024.011c.3-.029.6-.078.9-.136q.721,3.815,1.442,7.632,1.739,9.2,3.477,18.4.572,3.033,1.146,6.066a16.41,16.41,0,0,0,.518,2.8.48.48,0,0,0,.05.21c.038.2.187.226.361.183a1.233,1.233,0,0,0,.662-.367l8.778-9.414,11.8,5.657c.764.366,1.629-.983,1.507-1.628q-.691-3.66-1.382-7.321-1.662-8.793-3.323-17.586-1.328-7.03-2.656-14.061a11.346,11.346,0,0,0,1.3-2.242c.78-1.8.8-3.785,1.933-5.446,1.172-1.725,3.042-2.378,4.588-3.663a11.555,11.555,0,0,0,3.209-4.292,10.35,10.35,0,0,0,.8-5.326C734.778,301.674,733.61,299.992,733.3,298ZM695.08,341.341q-1.739,9.2-3.477,18.4c-.415,2.2-.918,4.412-1.318,6.629l-8.148-8.737c-.116-.125-.393-.046-.511.011l-11.481,5.5q.611-3.231,1.221-6.46l3.322-17.587,2.3-12.171a9.428,9.428,0,0,0,1.291.916,9.783,9.783,0,0,0,5.105,1.315c.95-.021,1.88-.219,2.833-.172a9.168,9.168,0,0,1,3.528.882c1.8.875,3.025,2.51,4.827,3.388a10.125,10.125,0,0,0,1.9.7Q695.776,337.65,695.08,341.341Zm28.7-3.685q1.739,9.2,3.477,18.4.572,3.033,1.146,6.066c.026.138.048.28.071.421l-10.245-4.911a.871.871,0,0,0-.934.308l-8.384,8.992q-.62-3.28-1.24-6.561l-3.322-17.586q-.87-4.608-1.741-9.215a10.692,10.692,0,0,0,2.324-1.267c.854-.615,1.552-1.415,2.438-1.988a8.382,8.382,0,0,1,3.113-1.2c1.936-.337,3.854.24,5.8-.079a10.566,10.566,0,0,0,4.9-2.245c.164-.133.309-.285.466-.426Q722.71,332.011,723.775,337.656Zm6.6-25.339c-.732.533-1.565.9-2.295,1.437a11.949,11.949,0,0,0-2.019,1.9,11.475,11.475,0,0,0-2.454,5.165,8.523,8.523,0,0,1-.732,2.13,7.84,7.84,0,0,1-.718,1.173,7.569,7.569,0,0,1-.772.889,7.983,7.983,0,0,1-4.7,2.22c-1.916.234-3.783-.323-5.706.08a10.936,10.936,0,0,0-5.028,2.608,9.458,9.458,0,0,1-3.638,2.136,8.065,8.065,0,0,1-.9.207c-.148.026-.295.056-.448.074s-.313.029-.47.04a9.017,9.017,0,0,1-2.229-.127c-.237-.044-.472-.1-.7-.161s-.466-.136-.693-.217a8.814,8.814,0,0,1-1.114-.48c-1.737-.9-2.94-2.488-4.724-3.331a10.192,10.192,0,0,0-5.629-.855,9.325,9.325,0,0,1-7.922-2.875,9.485,9.485,0,0,1-1.114-1.5c-.02-.034-.034-.068-.053-.1-.877-1.557-.981-3.275-1.632-4.909a9.761,9.761,0,0,0-3.35-4.28c-1.5-1.076-3.04-1.781-4.176-3.314a9.083,9.083,0,0,1-1.753-4.774,8.633,8.633,0,0,1,.21-2.553c.244-1.026.772-1.928,1.111-2.919a10.3,10.3,0,0,0,.248-5.9c-.487-1.9-1.523-3.45-1.583-5.473a8.136,8.136,0,0,1,1.37-4.854c1.04-1.5,2.57-2.119,3.99-3.163a11.742,11.742,0,0,0,3.585-4.332c.805-1.661.841-3.552,1.714-5.176a7.536,7.536,0,0,1,3.519-3.245,10.407,10.407,0,0,1,5.468-.626,10.171,10.171,0,0,0,5.486-1.131c1.721-.9,2.93-2.484,4.685-3.311a8.815,8.815,0,0,1,5.308-.678,9.286,9.286,0,0,1,4.739,2.439,9.923,9.923,0,0,0,5.343,2.612c1.847.266,3.664-.268,5.507.032a9.2,9.2,0,0,1,7.346,6.7,12.926,12.926,0,0,0,2,4.914,9.579,9.579,0,0,0,1.943,1.93c.8.59,1.714.986,2.5,1.592a9.034,9.034,0,0,1,3.3,9.255,24.216,24.216,0,0,1-.974,2.494,10.719,10.719,0,0,0-.667,3.216,10.074,10.074,0,0,0,.314,2.982c.249.973.735,1.83,1.071,2.768A8.125,8.125,0,0,1,730.377,312.317Z" transform="translate(-663.723 -260.093)" fill="#346db6"/>
  <path id="Path_269" data-name="Path 269" d="M729.887,299.81a7.2,7.2,0,0,1,.046-2.792c.213-.968.718-1.813,1.019-2.751a8.705,8.705,0,0,0,.258-4.363,8.313,8.313,0,0,0-1.93-3.879c-1.09-1.233-2.611-1.779-3.812-2.861a8.026,8.026,0,0,1-2.429-4.513,8.187,8.187,0,0,0-5.79-6.285c-1.651-.482-3.155-.086-4.817-.166a7.79,7.79,0,0,1-4.961-2.153,8.433,8.433,0,0,0-8.683-1.75,9.006,9.006,0,0,0-1.978,1.021c-.8.542-1.427,1.285-2.238,1.8a8.175,8.175,0,0,1-5.372.955,9.2,9.2,0,0,0-7.906,3.729,10.329,10.329,0,0,0-1.867,4.241,6.114,6.114,0,0,1-2.779,4.087,11.909,11.909,0,0,0-3.594,3.01,9.59,9.59,0,0,0-1.789,4.133,8.608,8.608,0,0,0,.449,4.486c.729,1.868,1.331,3.507.841,5.547-.2.832-.627,1.564-.906,2.367a9.183,9.183,0,0,0-.491,2.436,8.353,8.353,0,0,0,.877,4.264,8.208,8.208,0,0,0,2.971,3.258,9.054,9.054,0,0,1,3.644,3.408,8.051,8.051,0,0,1,.627,1.669c.147.533.275,1.073.432,1.6a7.8,7.8,0,0,0,.491,1.288c.019.038.032.076.052.112a8.2,8.2,0,0,0,7.285,4.408c.857,0,1.7-.188,2.555-.146a7.739,7.739,0,0,1,2.6.582c1.664.7,2.738,2.179,4.338,2.972a8.4,8.4,0,0,0,2.341.753c.237.041.478.066.718.086s.485.024.73.023c.229,0,.457.008.689-.01.03,0,.059-.008.089-.011a8.181,8.181,0,0,0,.913-.14,8.627,8.627,0,0,0,.895-.239,9.024,9.024,0,0,0,2.526-1.291c.663-.484,1.213-1.1,1.893-1.563a6.907,6.907,0,0,1,2.747-1.073c1.66-.275,3.305.231,4.973-.086a9.106,9.106,0,0,0,3.98-1.868,10.119,10.119,0,0,0,2.58-3.141c.107-.2.223-.4.316-.608a7.816,7.816,0,0,0,.333-.926c.205-.677.35-1.369.554-2.041a5.928,5.928,0,0,1,.789-1.71c.968-1.378,2.526-1.916,3.777-2.963a10.029,10.029,0,0,0,2.751-3.691,8.919,8.919,0,0,0,.716-4.333C731.178,302.944,730.19,301.513,729.887,299.81Zm-.672,4.108a6.66,6.66,0,0,1-1.88,7.732c-.577.434-1.241.727-1.831,1.142a10.215,10.215,0,0,0-1.847,1.684,9.243,9.243,0,0,0-1.42,2.2,9.465,9.465,0,0,0-.62,1.694c-.02.08-.052.156-.071.236a7.1,7.1,0,0,1-1.793,3.785,6.722,6.722,0,0,1-3.788,1.79c-1.587.221-3.148-.243-4.743.053a9.231,9.231,0,0,0-4.347,2.149,7.868,7.868,0,0,1-3.764,2.025c-.1.019-.191.041-.291.056-.207.031-.416.05-.627.063a7.565,7.565,0,0,1-.941-.008l-.072,0c-.24-.019-.481-.044-.718-.086s-.472-.1-.7-.161a7.273,7.273,0,0,1-1.54-.609c-1.448-.779-2.459-2.094-3.969-2.793a8.686,8.686,0,0,0-4.7-.688,7.7,7.7,0,0,1-7.52-3.633,11.663,11.663,0,0,1-1.052-3.067,10.373,10.373,0,0,0-.384-1.188c-.026-.064-.063-.122-.091-.186a8.1,8.1,0,0,0-.539-1.03,8.28,8.28,0,0,0-2.135-2.333c-1.236-.9-2.526-1.476-3.489-2.727a7.543,7.543,0,0,1-1.527-4.059,10.43,10.43,0,0,1,1.053-4.407,8.849,8.849,0,0,0,.325-4.9c-.352-1.59-1.271-2.915-1.378-4.577a6.7,6.7,0,0,1,.989-4.058c.846-1.309,2.121-1.82,3.33-2.7a10.139,10.139,0,0,0,3.042-3.561c.71-1.385.767-2.946,1.431-4.332a5.989,5.989,0,0,1,2.873-2.8,8.075,8.075,0,0,1,4.407-.566,8.711,8.711,0,0,0,4.721-.869c1.466-.737,2.483-2.061,3.935-2.786a7.3,7.3,0,0,1,4.437-.648,7.791,7.791,0,0,1,4.072,2.058,8.415,8.415,0,0,0,4.35,2.18c1.583.259,3.144-.206,4.723.042a7.685,7.685,0,0,1,6.168,5.494,11.687,11.687,0,0,0,1.656,4.178,13.81,13.81,0,0,0,3.586,2.891,7.534,7.534,0,0,1,2.986,7.813,19.451,19.451,0,0,1-.811,2.088,9.455,9.455,0,0,0-.569,2.565A10.608,10.608,0,0,0,729.214,303.917Z" transform="translate(-665.569 -262.004)" fill="#346db6"/>
  <path id="Path_270" data-name="Path 270" d="M722.939,297.4l-.192-.022-1.04-.118-1.167-.132-2.836-.321-6.571-.744-5.573-10.434c-.387-.723-1.375.562-1.526.894l-4.544,9.992-3.691.656-2.849.506-2.849.506-.672.119-.792.14-.291.052a1.289,1.289,0,0,0-.506.279c-.506.406-1.019,1.143-.6,1.528l.265.242.626.572.627.573,7.2,6.591q-.8,5.768-1.6,11.537c-.055.394.16.744.607.491l7.109-4.03.849-.482.849-.481,1.4-.8,1.8.877.673.327.672.327,7.4,3.6c.756.367,1.638-.985,1.507-1.628q-1.14-5.589-2.281-11.178l6.375-6.621.786-.816.483-.5a3.4,3.4,0,0,0,.31-.424C723.178,298.049,723.443,297.455,722.939,297.4Zm-8.3,8.161c-.311.323-.642.636-.936.977a1.779,1.779,0,0,0-.335,1.875l1.233,6.04.5,2.451-6.352-3.087-.672-.327-.556-.27c-.038-.019-.077-.041-.116-.062a5.408,5.408,0,0,0-1.07-.514c-.461-.118-.79.165-1.188.39l-1.63.925-.849.481-.849.482-2.033,1.152-3.691,2.092,1.35-9.724c.059-.419.153-.85.177-1.273.032-.544-.362-.748-.739-1.093l-4.542-4.154-2.209-2.021,4.664-.829,2.849-.506.558-.1a7.689,7.689,0,0,0,1.283-.243,1.49,1.49,0,0,0,.454-.268,3.813,3.813,0,0,0,.852-1.39l2.553-5.612q.611-1.342,1.221-2.686l5.041,9.436a.25.25,0,0,0,.215.21h0c.011,0,.018.008.03.009l1.219.138,2.836.321,2.836.322,4.057.459Z" transform="translate(-669.536 -266.391)" fill="#346db6"/>
</svg>
