<?xml version="1.0" encoding="utf-8"?>
<!-- Generator: Adobe Illustrator 19.0.0, SVG Export Plug-In . SVG Version: 6.00 Build 0)  -->
<!DOCTYPE svg PUBLIC "-//W3C//DTD SVG 1.1//EN" "http://www.w3.org/Graphics/SVG/1.1/DTD/svg11.dtd">
<svg version="1.1" id="Layer_1" xmlns="http://www.w3.org/2000/svg" xmlns:xlink="http://www.w3.org/1999/xlink" x="0px" y="0px"
	 width="112.5px" height="26.7px" viewBox="0 0 112.5 26.7" style="enable-background:new 0 0 112.5 26.7;" xml:space="preserve">
<style type="text/css">
	.st0{clip-path:url(#XMLID_17_);fill:#4A68AC;}
	.st1{clip-path:url(#XMLID_17_);fill:#744E99;}
	.st2{clip-path:url(#XMLID_17_);fill:#AA8ABF;}
	.st3{clip-path:url(#XMLID_17_);fill:#5084B3;}
	.st4{fill:#575756;}
</style>
<g id="XMLID_41_">
	<defs>
		<path id="XMLID_42_" d="M0,26.7c7.9,0,15.8,0,23.7,0c0.8,0,1.5,0,2.3,0c0.2,0,1,0.1,1.2,0c0.3-0.2,0.1-1.4,0.1-1.8
			c0-4.6,0-9.2,0-13.8c0-2.3,0-4.6,0-6.9c0-0.8,0-1.7,0-2.5c0-0.3,0.2-1.1,0-1.4C27.2-0.1,26.3,0,25.8,0c-1.9,0-3.8,0-5.7,0
			c-5,0-10,0-14.9,0C3.6,0,2.1,0,0.5,0C-0.2,0,0,0.2,0,1c0,8.3,0,16.7,0,25C0,26.2,0,26.4,0,26.7z"/>
	</defs>
	<clipPath id="XMLID_17_">
		<use xlink:href="#XMLID_42_"  style="overflow:visible;"/>
	</clipPath>
	<path id="XMLID_46_" class="st0" d="M13.2,2.1c6.3-0.5,11.7,4.5,12.4,10.7c0.7,6-3.1,12.1-9.1,13.5c6.8-0.5,11.6-7.1,10.8-13.7
		C26.5,5.8,20,0.5,13.2,2.1"/>
	<path id="XMLID_45_" class="st1" d="M21.2,6c3.5,5.2,2.5,12.6-2.3,16.6C14.2,26.5,7.3,26,3.2,21.5c2.9,4.3,8.4,6.3,13.3,4.6
		c4.7-1.7,7.8-6.3,7.9-11.2C24.5,11.6,23.4,8.4,21.2,6"/>
	<path id="XMLID_44_" class="st2" d="M15.7,24C9.5,25.3,3.5,21.2,2,15.2C0.6,9.4,3.8,3.2,9.4,1.1C2.9,2.4-1.1,9.2,0.3,15.5
		C1.9,22.3,9.1,26.5,15.7,24"/>
	<path id="XMLID_43_" class="st3" d="M6.5,20.5c-3.6-5-2.8-12.2,1.8-16.2c4.6-4,11.6-3.8,15.8,0.6c-3-4.2-8.6-5.9-13.5-4
		C6.1,2.6,3,7.1,3,12C3,15.2,4.3,18.2,6.5,20.5"/>
</g>
<g id="XMLID_145_">
	<path id="XMLID_146_" class="st4" d="M39.4,14.1c1.1,0,2.1-0.2,3.1-0.6v1.1c-1,0.4-2.1,0.6-3.2,0.6c-3.3,0-4.9-1.8-4.9-5.5
		c0-3.6,1.7-5.5,4.9-5.5c1.1,0,2.2,0.2,3.2,0.6V6c-1-0.4-2-0.6-3.1-0.6c-2.7,0-3.9,1.4-3.9,4.4C35.5,12.7,36.7,14.1,39.4,14.1z"/>
	<path id="XMLID_148_" class="st4" d="M54.1,9.7c0,3.6-1.7,5.5-5,5.5c-3.3,0-4.9-1.8-4.9-5.5c0-3.6,1.7-5.5,4.9-5.5
		C52.4,4.2,54.1,6.1,54.1,9.7z M53,9.7c0-3-1.2-4.4-3.8-4.4c-2.6,0-3.8,1.4-3.8,4.4c0,3,1.2,4.4,3.8,4.4C51.8,14.1,53,12.7,53,9.7z"
		/>
	<path id="XMLID_151_" class="st4" d="M65.2,4.4V15h-1.3l-6.4-9v9h-1.2V4.4h1.3l6.4,9v-9H65.2z"/>
	<path id="XMLID_153_" class="st4" d="M75.8,4.4v1.1H72V15h-1.2V5.5h-3.8V4.4H75.8z"/>
	<path id="XMLID_155_" class="st4" d="M78.7,4.4V15h-1.2V4.4H78.7z"/>
	<path id="XMLID_157_" class="st4" d="M90.2,4.4V15h-1.3l-6.4-9v9h-1.2V4.4h1.3l6.4,9v-9H90.2z"/>
	<path id="XMLID_159_" class="st4" d="M101.6,4.4v6.3c0,2.9-1.5,4.5-4.3,4.5c-2.8,0-4.3-1.6-4.3-4.5V4.4H94v6.4c0,2.3,1,3.4,3.2,3.4
		c2.1,0,3.2-1.1,3.2-3.4V4.4H101.6z"/>
	<path id="XMLID_161_" class="st4" d="M112.5,15h-1.2l-1.3-3.3h-4.6l-1.3,3.3h-1.2l4.3-10.7h1.2L112.5,15z M109.5,10.6l-1.9-4.9
		l-1.9,4.9H109.5z"/>
</g>
<g id="XMLID_3_">
	<g id="XMLID_197_">
		<path id="XMLID_216_" class="st4" d="M38.4,22.2c0,0.7-0.5,1.1-1.4,1.1c-0.4,0-0.8-0.1-1.2-0.3v-0.6c0.3,0.2,0.7,0.3,1.1,0.3
			c0.4,0,0.9-0.1,0.9-0.6c0-1-2.1-0.6-2.1-1.9c0-0.6,0.4-1.1,1.4-1.1c0.4,0,0.8,0.1,1,0.3V20c-0.2-0.1-0.5-0.3-1-0.3
			c-0.4,0-0.9,0.1-0.9,0.6C36.3,21,38.4,20.8,38.4,22.2z"/>
		<path id="XMLID_213_" class="st4" d="M48.3,21.2c0,1.7-1,2.1-1.9,2.1c-0.8,0-1.9-0.4-1.9-2.1s1-2.1,1.9-2.1
			C47.3,19.2,48.3,19.5,48.3,21.2z M47.7,21.2c0-1.4-0.7-1.5-1.3-1.5c-0.6,0-1.3,0.2-1.3,1.5s0.7,1.5,1.3,1.5
			C47,22.8,47.7,22.6,47.7,21.2z"/>
		<path id="XMLID_211_" class="st4" d="M57.2,22.7v0.5h-2.5v-4h0.6v3.5H57.2z"/>
		<path id="XMLID_209_" class="st4" d="M66.6,19.2v2.4c0,1.1-0.6,1.7-1.6,1.7c-1,0-1.6-0.6-1.6-1.7v-2.4h0.6v2.4
			c0,0.8,0.3,1.2,1.1,1.2c0.7,0,1.1-0.4,1.1-1.2v-2.4H66.6z"/>
		<path id="XMLID_207_" class="st4" d="M76,19.8h-1.4v3.5h-0.6v-3.5h-1.3v-0.5H76V19.8z"/>
		<path id="XMLID_205_" class="st4" d="M82.7,23.2h-0.6v-4h0.6V23.2z"/>
		<path id="XMLID_202_" class="st4" d="M92.8,21.2c0,1.7-1,2.1-1.9,2.1s-1.9-0.4-1.9-2.1s1-2.1,1.9-2.1S92.8,19.5,92.8,21.2z
			 M92.3,21.2c0-1.4-0.7-1.5-1.3-1.5s-1.3,0.2-1.3,1.5s0.7,1.5,1.3,1.5S92.3,22.6,92.3,21.2z"/>
		<path id="XMLID_200_" class="st4" d="M102.6,19.2v4H102L99.8,20v3.2h-0.6v-4h0.6l2.2,3.2v-3.2H102.6z"/>
		<path id="XMLID_198_" class="st4" d="M111.7,22.2c0,0.7-0.5,1.1-1.4,1.1c-0.4,0-0.8-0.1-1.2-0.3v-0.6c0.3,0.2,0.7,0.3,1.1,0.3
			c0.4,0,0.9-0.1,0.9-0.6c0-1-2.1-0.6-2.1-1.9c0-0.6,0.4-1.1,1.4-1.1c0.4,0,0.8,0.1,1,0.3V20c-0.2-0.1-0.5-0.3-1-0.3
			c-0.4,0-0.9,0.1-0.9,0.6C109.5,21,111.7,20.8,111.7,22.2z"/>
	</g>
</g>
</svg>
