<?xml version="1.0" encoding="utf-8"?>
<!-- Generator: Adobe Illustrator 19.2.1, SVG Export Plug-In . SVG Version: 6.00 Build 0)  -->
<svg version="1.1" id="Layer_1" xmlns="http://www.w3.org/2000/svg" xmlns:xlink="http://www.w3.org/1999/xlink" x="0px" y="0px"
	 viewBox="0 0 60.2 58.8" style="enable-background:new 0 0 60.2 58.8;" xml:space="preserve">
<style type="text/css">
	.st0{fill:#FFFFFF;}
</style>
<g>
	<path id="XMLID_18_" class="st0" d="M29.1,4.6c10.9-0.8,21.1,6,25.3,15.9c3.7,8.9,2.6,19.4-3.1,27.2c-3.6,5-8.9,8.6-14.9,10
		c11.7-0.8,21.1-10,23.4-21.3c2.1-10.6-2.2-21.9-11.2-28.1C42.9,4.4,35.8,3,29.1,4.6"/>
	<path id="XMLID_17_" class="st0" d="M46.8,13.2c6.1,9.1,6.2,21.5,0.1,30.7c-5.1,7.8-14.3,12.5-23.6,11.5c-6.2-0.6-12-3.7-16.1-8.3
		c6.4,9.5,18.6,13.9,29.4,10c10.3-3.7,17-13.8,17.3-24.6C54.1,25.5,51.5,18.5,46.8,13.2"/>
	<path id="XMLID_16_" class="st0" d="M34.6,52.8c-10.8,2.2-21.9-3-27.3-12.4C2.6,32.3,2.6,22,7.2,13.9c3-5.3,7.8-9.4,13.5-11.5
		C9.6,4.7,1.3,14.4,0.2,25.7c-0.9,10.5,4.6,20.8,13.9,25.8C20.4,54.8,27.9,55.3,34.6,52.8"/>
	<path id="XMLID_15_" class="st0" d="M14.3,45c-6.1-8.3-6.7-19.9-1.6-28.8c4.9-8.6,14.7-14,24.7-13.1c5.9,0.6,11.5,3.3,15.7,7.5
		C46.6,1.7,34.7-2.1,24.3,1.4C13.9,5,6.8,15.3,6.7,26.2C6.7,33.2,9.4,40,14.3,45"/>
</g>
</svg>
