<svg xmlns="http://www.w3.org/2000/svg" width="218" height="215.111" viewBox="0 0 218 215.111">
  <g id="Group_166" data-name="Group 166" transform="translate(-26.099 377.437)">
    <g id="Group_167" data-name="Group 167" transform="translate(26.099 -377.437)">
      <g id="Group_168" data-name="Group 168">
        <g id="Group_162" data-name="Group 162" transform="translate(42.073)">
          <g id="Group_158" data-name="Group 158" transform="translate(64.378 8.238)">
            <path id="Path_240" data-name="Path 240" d="M13.2,3.216C43.975.774,70.354,25.2,73.773,55.485c3.419,29.31-15.143,59.108-44.453,65.947,33.218-2.442,56.665-34.683,52.757-66.924C78.17,21.29,46.418-4.6,13.2,3.216" transform="translate(-13.2 -1.813)" fill="#eaf0f8"/>
          </g>
          <g id="Group_159" data-name="Group 159" transform="translate(15.529 28.692)">
            <path id="Path_241" data-name="Path 241" d="M91.129,6c17.1,25.4,12.212,61.55-11.235,81.09A55.607,55.607,0,0,1,3.2,81.716c14.166,21.005,41.033,30.775,64.97,22.471,22.959-8.3,38.1-30.775,38.591-54.711.489-16.12-4.885-31.752-15.632-43.476" transform="translate(-3.2 -6)" fill="#eaf0f8"/>
          </g>
          <g id="Group_160" data-name="Group 160" transform="translate(0 4.756)">
            <path id="Path_242" data-name="Path 242" d="M76.611,112.965c-30.287,6.35-59.6-13.678-66.924-42.987C2.849,41.645,18.481,11.358,45.836,1.1,14.084,7.45-5.455,40.668,1.383,71.443c7.816,33.218,42.987,53.734,75.228,41.522" transform="translate(-0.021 -1.1)" fill="#eaf0f8"/>
          </g>
          <g id="Group_161" data-name="Group 161" transform="translate(14.552)">
            <path id="Path_243" data-name="Path 243" d="M20.1,99.65C2.512,75.225,6.419,40.054,28.89,20.514s56.665-18.563,77.182,2.931A56.381,56.381,0,0,0,40.125,3.905C18.143,12.21,3,34.192,3,58.128A60.063,60.063,0,0,0,20.1,99.65" transform="translate(-3 -0.126)" fill="#eaf0f8"/>
          </g>
        </g>
        <g id="Group_163" data-name="Group 163" transform="translate(0 159.832)">
          <path id="Path_244" data-name="Path 244" d="M48.356,31.834a22.746,22.746,0,0,0,8.653-1.675v3.07A24.177,24.177,0,0,1,48.077,34.9C38.866,34.9,34.4,29.88,34.4,19.552,34.4,9.5,39.145,4.2,48.077,4.2a24.177,24.177,0,0,1,8.932,1.675v3.35A22.746,22.746,0,0,0,48.356,7.55c-7.536,0-10.886,3.908-10.886,12.282C37.47,27.926,40.82,31.834,48.356,31.834Z" transform="translate(-34.4 -4.2)" fill="#eaf0f8"/>
          <path id="Path_245" data-name="Path 245" d="M71.834,19.552C71.834,29.6,67.089,34.9,57.877,34.9S44.2,29.88,44.2,19.552C44.2,9.5,48.945,4.2,57.877,4.2,67.089,4.2,71.834,9.5,71.834,19.552Zm-3.07,0c0-8.374-3.35-12.282-10.607-12.282S47.55,11.178,47.55,19.552,50.9,31.834,58.156,31.834,68.763,27.926,68.763,19.552Z" transform="translate(-16.845 -4.2)" fill="#eaf0f8"/>
          <path id="Path_246" data-name="Path 246" d="M81.142,4.4V33.988H77.514L59.65,8.866V33.988H56.3V4.4h3.629L77.793,29.522V4.4Z" transform="translate(4.829 -3.842)" fill="#eaf0f8"/>
          <path id="Path_247" data-name="Path 247" d="M91.563,4.4V7.47H80.956V33.988h-3.35V7.47H67V4.4Z" transform="translate(23.996 -3.842)" fill="#eaf0f8"/>
          <path id="Path_248" data-name="Path 248" d="M80.85,4.4V33.988H77.5V4.4Z" transform="translate(42.805 -3.842)" fill="#eaf0f8"/>
          <path id="Path_249" data-name="Path 249" d="M106.142,4.4V33.988h-3.629L84.65,8.866V33.988H81.3V4.4h3.629l17.864,25.122V4.4Z" transform="translate(49.611 -3.842)" fill="#eaf0f8"/>
          <path id="Path_250" data-name="Path 250" d="M117.005,4.4V21.985c0,8.095-4.187,12.561-12,12.561S93,30.08,93,21.985V4.4h2.791V22.264c0,6.42,2.791,9.49,8.932,9.49,5.862,0,8.932-3.07,8.932-9.49V4.4Z" transform="translate(70.569 -3.842)" fill="#eaf0f8"/>
          <path id="Path_251" data-name="Path 251" d="M129.7,34.167h-3.35l-3.629-9.211h-12.84l-3.629,9.211H102.9L114.9,4.3h3.35Zm-8.374-12.282-5.3-13.677-5.3,13.677Z" transform="translate(88.303 -4.021)" fill="#eaf0f8"/>
        </g>
        <g id="Group_165" data-name="Group 165" transform="translate(2.752 203.388)">
          <g id="Group_164" data-name="Group 164">
            <path id="Path_252" data-name="Path 252" d="M43.236,27.753c0,1.954-1.4,3.07-3.908,3.07a7.432,7.432,0,0,1-3.35-.837V28.311a5.627,5.627,0,0,0,3.07.837c1.117,0,2.512-.279,2.512-1.675,0-2.791-5.862-1.675-5.862-5.3,0-1.675,1.117-3.07,3.908-3.07a4.167,4.167,0,0,1,2.791.837v1.675a5.482,5.482,0,0,0-2.791-.837c-1.117,0-2.512.279-2.512,1.675C37.375,24.4,43.236,23.845,43.236,27.753Z" transform="translate(-35.7 -19.1)" fill="#eaf0f8"/>
            <path id="Path_253" data-name="Path 253" d="M55.107,24.962c0,4.745-2.791,5.862-5.3,5.862-2.233,0-5.3-1.117-5.3-5.862S47.291,19.1,49.8,19.1C52.316,19.379,55.107,20.217,55.107,24.962Zm-1.675,0c0-3.908-1.954-4.187-3.629-4.187s-3.629.558-3.629,4.187,1.954,4.187,3.629,4.187C51.478,29.428,53.432,28.869,53.432,24.962Z" transform="translate(-19.937 -19.1)" fill="#eaf0f8"/>
            <path id="Path_254" data-name="Path 254" d="M61.678,28.97v1.4H54.7V19.2h1.675v9.77Z" transform="translate(-1.666 -18.921)" fill="#eaf0f8"/>
            <path id="Path_255" data-name="Path 255" d="M72.332,19.2v6.7c0,3.07-1.675,4.745-4.466,4.745S63.4,28.97,63.4,25.9V19.2h1.675v6.7c0,2.233.837,3.35,3.07,3.35,1.954,0,3.07-1.117,3.07-3.35V19.2Z" transform="translate(13.919 -18.921)" fill="#eaf0f8"/>
            <path id="Path_256" data-name="Path 256" d="M81.911,20.7H78v9.77H76.329V20.7H72.7V19.3h9.211Z" transform="translate(30.578 -18.742)" fill="#eaf0f8"/>
            <path id="Path_257" data-name="Path 257" d="M83.775,30.365H82.1V19.2h1.675Z" transform="translate(47.416 -18.921)" fill="#eaf0f8"/>
            <path id="Path_258" data-name="Path 258" d="M99.607,24.962c0,4.745-2.791,5.862-5.3,5.862S89,29.707,89,24.962,91.791,19.1,94.3,19.1,99.607,20.217,99.607,24.962Zm-1.4,0c0-3.908-1.954-4.187-3.629-4.187s-3.629.558-3.629,4.187,1.954,4.187,3.629,4.187S98.211,28.869,98.211,24.962Z" transform="translate(59.776 -19.1)" fill="#eaf0f8"/>
            <path id="Path_259" data-name="Path 259" d="M108.69,19.2V30.365h-1.675l-6.141-8.932v8.932H99.2V19.2h1.675l6.141,8.932V19.2Z" transform="translate(78.047 -18.921)" fill="#eaf0f8"/>
            <path id="Path_260" data-name="Path 260" d="M116.536,27.753c0,1.954-1.4,3.07-3.908,3.07a7.432,7.432,0,0,1-3.35-.837V28.311a5.627,5.627,0,0,0,3.07.837c1.117,0,2.512-.279,2.512-1.675,0-2.791-5.862-1.675-5.862-5.3,0-1.675,1.117-3.07,3.908-3.07a4.167,4.167,0,0,1,2.791.837v1.675a5.482,5.482,0,0,0-2.791-.837c-1.117,0-2.512.279-2.512,1.675C110.4,24.4,116.536,23.845,116.536,27.753Z" transform="translate(95.601 -19.1)" fill="#eaf0f8"/>
          </g>
        </g>
      </g>
    </g>
  </g>
</svg>
