<svg xmlns="http://www.w3.org/2000/svg" width="2048.675" height="542.867" viewBox="0 0 2048.675 542.867"><defs><style>.a,.b,.f,.g{fill:none;}.a,.b,.h{stroke:#fff;}.a,.e,.f,.g,.h{stroke-miterlimit:10;}.c{fill:#fff;}.d,.h{fill:#346db6;}.e{fill:#f9ac5f;}.e,.f{stroke:#f9ac5f;}.g{stroke:#346db6;}</style></defs><g transform="translate(309.536 -115.725)"><line class="a" x2="779.175" transform="translate(959.964 606.03)"/><path class="b" d="M133.325,0H1346.159" transform="translate(-442.861 606.03)"/><path class="a" d="M1354.412,645.756V377.762h103.913V551.483h27.107V578.59h27.114V605.7h27.107V632.81h27.114v27.114h27.107v27.107H1391.342l-8.422-.014" transform="translate(-422.899 -80.991)"/><path class="a" d="M616.461,377.762V687.031H376.992V659.924H404.1V632.81h27.114V605.7H458.32V578.59h27.114V551.483h27.107V377.762Z" transform="translate(-120.164 -80.991)"/><g transform="translate(422.262 525.314)"><path class="a" d="M660.807,718.041l-7.959,4.6-7.952,4.59v-6.744H616.658V715.6H644.9v-6.744l7.952,4.6Z" transform="translate(-616.658 -708.854)"/></g><g transform="translate(962.696 525.314)"><path class="a" d="M1443.737,718.041l-7.952,4.6-7.959,4.59v-6.744h-28.239V715.6h28.239v-6.744l7.959,4.6Z" transform="translate(-1399.588 -708.854)"/></g><g transform="translate(422.262 351.593)"><path class="a" d="M660.807,466.371l-7.959,4.59-7.952,4.6v-6.744H616.658v-4.887H644.9v-6.744l7.952,4.59Z" transform="translate(-616.658 -457.184)"/></g><g transform="translate(962.745 351.593)"><path class="a" d="M1443.807,466.371l-7.952,4.59-7.959,4.6v-6.744h-28.239v-4.887H1427.9v-6.744l7.959,4.59Z" transform="translate(-1399.658 -457.184)"/></g><g transform="translate(513.493 253.268)"><rect class="c" width="138.054" height="41.416" rx="20.708" transform="translate(128.925 0)"/><rect class="c" width="138.054" height="41.416" rx="20.708" transform="translate(128.479 267.657)"/><rect class="c" width="138.054" height="41.416" rx="20.708" transform="translate(258.568 133.828)"/><rect class="c" width="138.054" height="41.416" rx="20.708" transform="translate(0 133.828)"/></g><g transform="translate(413.406 442.76)"><path class="c" d="M603.827,590.542v-1.285h5.288v1.285l-1.648.283v11.6l1.648.284v1.274h-5.288v-1.274l1.648-.284v-11.6Z" transform="translate(-603.827 -589.257)"/><path class="c" d="M613.378,604.312l1.648-.284v-7.816l-1.648-.283v-1.284h3.428l.142,1.628a3.978,3.978,0,0,1,1.37-1.35,3.66,3.66,0,0,1,1.875-.48,3.572,3.572,0,0,1,2.74,1.037,4.551,4.551,0,0,1,.97,3.2v5.349l1.648.284v1.274h-5.288v-1.274l1.648-.284V598.72a2.964,2.964,0,0,0-.571-2.053,2.289,2.289,0,0,0-1.744-.606,2.811,2.811,0,0,0-1.522.414,3.028,3.028,0,0,0-1.057,1.133v6.42l1.648.284v1.274h-5.288Z" transform="translate(-606.785 -590.863)"/><path class="c" d="M632.758,608.508l1.648-.283V596.212l-1.648-.283v-1.284h3.357l.182,1.334a3.68,3.68,0,0,1,1.33-1.142,3.978,3.978,0,0,1,1.815-.394,3.639,3.639,0,0,1,3.16,1.612,7.3,7.3,0,0,1,1.126,4.262v.212a6.025,6.025,0,0,1-1.132,3.816,3.742,3.742,0,0,1-3.125,1.452,4.343,4.343,0,0,1-1.775-.339,3.431,3.431,0,0,1-1.3-1.006v3.772l1.648.283v1.284h-5.288Zm8.969-8.19a5.8,5.8,0,0,0-.728-3.064,2.375,2.375,0,0,0-2.163-1.193,2.666,2.666,0,0,0-1.456.384,2.892,2.892,0,0,0-.981,1.052v5.328a2.6,2.6,0,0,0,2.457,1.416A2.455,2.455,0,0,0,641,603.209a4.541,4.541,0,0,0,.728-2.68Z" transform="translate(-612.788 -590.863)"/><path class="c" d="M658.914,604.059a3.7,3.7,0,0,1-1.33,1.354,3.651,3.651,0,0,1-1.875.476,3.5,3.5,0,0,1-2.78-1.142,5.306,5.306,0,0,1-1-3.56V596.3l-1.254-.283v-1.284h3.246v6.471a4.074,4.074,0,0,0,.516,2.406,1.917,1.917,0,0,0,1.608.657,3.279,3.279,0,0,0,1.755-.429,2.7,2.7,0,0,0,1.046-1.218V596.3l-1.466-.283v-1.284h3.458v9.383l1.253.284v1.274h-3.043Z" transform="translate(-618.337 -590.954)"/><path class="c" d="M672.866,590.912v2.64h2.073v1.476h-2.073v6.643a1.487,1.487,0,0,0,.319,1.082,1.149,1.149,0,0,0,.844.313,4.471,4.471,0,0,0,.592-.046q.328-.046.551-.1l.273,1.365a2.545,2.545,0,0,1-.83.3,5.242,5.242,0,0,1-1.092.117,2.579,2.579,0,0,1-1.931-.733,3.182,3.182,0,0,1-.718-2.3v-6.643h-1.729v-1.476h1.729v-2.64Z" transform="translate(-624.058 -589.77)"/><path class="c" d="M688.986,598.083h-1.5l-.323-1.314a2.714,2.714,0,0,0-.915-.552A3.555,3.555,0,0,0,685,596.01a2.3,2.3,0,0,0-1.577.465,1.458,1.458,0,0,0-.516,1.122,1.252,1.252,0,0,0,.455,1.022,4.719,4.719,0,0,0,1.851.667,7.971,7.971,0,0,1,3.083,1.209,2.435,2.435,0,0,1,1.011,2.047,2.827,2.827,0,0,1-1.178,2.356,4.939,4.939,0,0,1-3.079.9,8.033,8.033,0,0,1-2.234-.288,5.968,5.968,0,0,1-1.77-.835l-.01-2.5h1.5l.374,1.466a2.078,2.078,0,0,0,.935.455,5.151,5.151,0,0,0,1.208.142,2.821,2.821,0,0,0,1.664-.429,1.327,1.327,0,0,0,.6-1.128,1.357,1.357,0,0,0-.5-1.082,4.711,4.711,0,0,0-1.9-.738,7.972,7.972,0,0,1-3-1.183,2.388,2.388,0,0,1-1.011-2.022,2.855,2.855,0,0,1,1.138-2.275,4.487,4.487,0,0,1,2.957-.94,7.17,7.17,0,0,1,2.234.324,4.66,4.66,0,0,1,1.648.9Z" transform="translate(-627.701 -590.863)"/></g><g transform="translate(566.12 265.978)"><g transform="translate(123.393)"><path class="d" d="M1010.59,334.676a5.189,5.189,0,0,1,3.665,1.214,4.565,4.565,0,0,1,0,6.4,5.214,5.214,0,0,1-3.665,1.2h-3.125v4.347l1.648.284V349.4h-5.288v-1.274l1.648-.284v-11.6l-1.648-.284v-1.284h6.765Zm-3.125,7.26h3.125a2.909,2.909,0,0,0,2.24-.8,2.872,2.872,0,0,0,.743-2.028,2.925,2.925,0,0,0-.743-2.043,2.876,2.876,0,0,0-2.24-.819h-3.125Z" transform="translate(-1003.825 -333.625)"/><path class="d" d="M1022.751,334.437v-1.284h3.64v14.216l1.648.284v1.274h-5.288v-1.274l1.648-.284V334.72Z" transform="translate(-1009.687 -333.153)"/><path class="d" d="M1039.8,351q-.091-.444-.141-.8t-.07-.708a4.817,4.817,0,0,1-1.441,1.229,4.129,4.129,0,0,1-4.444-.344,3.069,3.069,0,0,1-.89-2.351,2.722,2.722,0,0,1,1.259-2.4,6.135,6.135,0,0,1,3.453-.845h2.053v-1.274a1.969,1.969,0,0,0-.607-1.521,2.389,2.389,0,0,0-1.688-.562,4.127,4.127,0,0,0-1.32.193,2.472,2.472,0,0,0-.925.525l-.213,1.153h-1.536v-2.123a5.921,5.921,0,0,1,1.81-.956,7.183,7.183,0,0,1,2.3-.358,4.586,4.586,0,0,1,3.014.95,3.325,3.325,0,0,1,1.153,2.72V348.8q0,.212.005.414c0,.135.012.27.026.4l.808.112V351Zm-3.2-1.456a3.542,3.542,0,0,0,1.81-.476,2.946,2.946,0,0,0,1.173-1.142v-1.8h-2.123a3.03,3.03,0,0,0-1.937.566,1.7,1.7,0,0,0-.713,1.375,1.364,1.364,0,0,0,.445,1.1A2.038,2.038,0,0,0,1036.6,349.549Z" transform="translate(-1012.804 -335.231)"/><path class="d" d="M1048.693,349.731l1.648-.284v-7.816l-1.648-.283v-1.284h3.428l.141,1.628a3.97,3.97,0,0,1,1.37-1.35,3.658,3.658,0,0,1,1.876-.48,3.572,3.572,0,0,1,2.74,1.037,4.55,4.55,0,0,1,.97,3.2v5.349l1.648.284V351h-5.288v-1.274l1.648-.284v-5.308a2.958,2.958,0,0,0-.572-2.053,2.287,2.287,0,0,0-1.744-.607,2.806,2.806,0,0,0-1.521.415,3.019,3.019,0,0,0-1.058,1.133v6.42l1.648.284V351h-5.288Z" transform="translate(-1017.722 -335.231)"/></g><g transform="translate(114.844 267.664)"><path class="d" d="M1002.856,726.868h-1.405l-.374-2.083a3.854,3.854,0,0,0-1.193-.779,4.268,4.268,0,0,0-1.688-.3,4.128,4.128,0,0,0-3.529,1.664,6.892,6.892,0,0,0-1.234,4.221v.233a7.042,7.042,0,0,0,1.209,4.231,3.9,3.9,0,0,0,3.351,1.674,5.066,5.066,0,0,0,1.82-.313,3.486,3.486,0,0,0,1.264-.769l.374-2.083h1.405v2.619a5.505,5.505,0,0,1-1.911,1.461,6.473,6.473,0,0,1-2.953.642,5.954,5.954,0,0,1-4.712-2.123,7.86,7.86,0,0,1-1.84-5.339v-.213a7.952,7.952,0,0,1,1.81-5.354,5.939,5.939,0,0,1,4.742-2.118,6.412,6.412,0,0,1,2.953.652,5.686,5.686,0,0,1,1.911,1.462Z" transform="translate(-991.44 -721.297)"/><path class="d" d="M1010.659,735.42l1.648-.283V722.488l-1.648-.283V720.92h3.64v6.29a4,4,0,0,1,1.385-1.224,3.82,3.82,0,0,1,1.82-.435,3.53,3.53,0,0,1,2.73,1.052,4.643,4.643,0,0,1,.971,3.235v5.3l1.648.283v1.274h-5.288V735.42l1.648-.283v-5.319a2.929,2.929,0,0,0-.581-2,2.215,2.215,0,0,0-1.735-.647,2.92,2.92,0,0,0-1.491.389,3.25,3.25,0,0,0-1.108,1.057v6.522l1.648.283v1.274h-5.288Z" transform="translate(-997.393 -720.92)"/><path class="d" d="M1035.272,738.984a4.615,4.615,0,0,1-3.635-1.521,5.73,5.73,0,0,1-1.349-3.948v-.445a5.614,5.614,0,0,1,1.39-3.888,4.286,4.286,0,0,1,3.292-1.552,4.146,4.146,0,0,1,3.342,1.335,5.3,5.3,0,0,1,1.138,3.559v1.244h-7.1l-.03.05a4.325,4.325,0,0,0,.8,2.594,2.546,2.546,0,0,0,2.154,1.016,5.041,5.041,0,0,0,1.775-.288,4.1,4.1,0,0,0,1.319-.795l.779,1.294a4.79,4.79,0,0,1-1.552.956A6.224,6.224,0,0,1,1035.272,738.984Zm-.3-9.787a2.159,2.159,0,0,0-1.709.844,4,4,0,0,0-.869,2.118l.02.05h5.045v-.263a3.052,3.052,0,0,0-.627-1.962A2.234,2.234,0,0,0,1034.969,729.2Z" transform="translate(-1003.472 -722.998)"/><path class="d" d="M1051.32,737.427a2.683,2.683,0,0,0,1.744-.612,1.868,1.868,0,0,0,.754-1.5h1.79l.02.061a3.07,3.07,0,0,1-1.259,2.513,4.607,4.607,0,0,1-3.049,1.1,4.411,4.411,0,0,1-3.645-1.557,6.02,6.02,0,0,1-1.259-3.913v-.425a5.994,5.994,0,0,1,1.264-3.9,4.407,4.407,0,0,1,3.64-1.563,6.108,6.108,0,0,1,2.362.435,4.767,4.767,0,0,1,1.734,1.193l.091,2.426h-1.588l-.435-1.719a2.635,2.635,0,0,0-.91-.556,3.5,3.5,0,0,0-1.254-.212,2.4,2.4,0,0,0-2.24,1.128,5.309,5.309,0,0,0-.672,2.765v.425a5.377,5.377,0,0,0,.667,2.8A2.4,2.4,0,0,0,1051.32,737.427Z" transform="translate(-1008.468 -722.998)"/><path class="d" d="M1062.177,722.2V720.92h3.641v9.141h1.274l2.336-2.892-1-.131v-1.285h4.581v1.285l-1.335.262-2.882,3.438,3.509,4.439,1.244.242v1.274H1069V735.42l1.022-.131-2.9-3.641h-1.3v3.489l1.648.283v1.274h-5.288V735.42l1.648-.283V722.488Z" transform="translate(-1013.349 -720.92)"/></g><g transform="translate(262.703 134.888)"><path class="d" d="M1211.813,528.566a6.054,6.054,0,0,1,6.39,6.36v2.012a6.041,6.041,0,0,1-6.39,6.35h-6.168v-1.274l1.648-.283v-11.6l-1.648-.283v-1.284h6.168Zm-2.528,1.567v11.6h2.528a4.06,4.06,0,0,0,3.22-1.345,5.044,5.044,0,0,0,1.178-3.448v-2.033a5.013,5.013,0,0,0-1.178-3.427,4.06,4.06,0,0,0-3.22-1.345Z" transform="translate(-1205.645 -528.566)"/><path class="d" d="M1226.71,539.323a6.022,6.022,0,0,1,1.314-4,4.859,4.859,0,0,1,7.153,0,6,6,0,0,1,1.32,4v.222a6,6,0,0,1-1.314,4,4.887,4.887,0,0,1-7.159,0,6,6,0,0,1-1.314-4Zm1.991.222a5.189,5.189,0,0,0,.733,2.871,2.638,2.638,0,0,0,4.333,0,5.16,5.16,0,0,0,.739-2.871v-.222a5.173,5.173,0,0,0-.739-2.862,2.424,2.424,0,0,0-2.174-1.142,2.4,2.4,0,0,0-2.164,1.142,5.23,5.23,0,0,0-.728,2.862Z" transform="translate(-1212.17 -530.172)"/></g><g transform="translate(0 134.888)"><path class="d" d="M825.065,542.014l1.092-.152,5.147-13.3h1.709l5.056,13.3,1.082.152v1.274h-4.227v-1.274l1.112-.192-.971-2.71H829.17l-1,2.71,1.112.192v1.274h-4.216Zm4.722-4.57h4.671l-2.285-6.319h-.061Z" transform="translate(-825.065 -528.566)"/><path class="d" d="M852.454,543.549a2.686,2.686,0,0,0,1.744-.612,1.869,1.869,0,0,0,.754-1.5h1.789l.021.061a3.072,3.072,0,0,1-1.259,2.513,4.607,4.607,0,0,1-3.049,1.1,4.412,4.412,0,0,1-3.645-1.557,6.02,6.02,0,0,1-1.259-3.913v-.425a5.994,5.994,0,0,1,1.264-3.9,4.408,4.408,0,0,1,3.64-1.563,6.1,6.1,0,0,1,2.361.435,4.769,4.769,0,0,1,1.734,1.193l.091,2.426h-1.588l-.435-1.719a2.645,2.645,0,0,0-.91-.556,3.5,3.5,0,0,0-1.254-.212,2.4,2.4,0,0,0-2.24,1.128,5.311,5.311,0,0,0-.672,2.765v.425a5.381,5.381,0,0,0,.667,2.8A2.4,2.4,0,0,0,852.454,543.549Z" transform="translate(-832.029 -530.172)"/><path class="d" d="M867.077,530.221v2.639h2.073v1.477h-2.073v6.643a1.485,1.485,0,0,0,.319,1.082,1.15,1.15,0,0,0,.844.313,4.453,4.453,0,0,0,.592-.045c.219-.031.4-.063.551-.1l.273,1.365a2.565,2.565,0,0,1-.83.3,5.239,5.239,0,0,1-1.092.117,2.581,2.581,0,0,1-1.931-.733,3.185,3.185,0,0,1-.718-2.3v-6.643h-1.728V532.86h1.728v-2.639Z" transform="translate(-836.925 -529.079)"/></g></g><g transform="translate(945.256 442.775)"><path class="c" d="M1387.355,596.964a7.848,7.848,0,0,1-1.845,5.339,6.035,6.035,0,0,1-4.778,2.123,5.756,5.756,0,0,1-4.631-2.123,8.027,8.027,0,0,1-1.78-5.339v-.212a8.053,8.053,0,0,1,1.78-5.339,5.746,5.746,0,0,1,4.631-2.133,6.024,6.024,0,0,1,4.778,2.133,7.872,7.872,0,0,1,1.845,5.339Zm-1.992-.232a6.761,6.761,0,0,0-1.228-4.192,4.031,4.031,0,0,0-3.4-1.622,3.775,3.775,0,0,0-3.25,1.628,7.011,7.011,0,0,0-1.168,4.187v.232a7.04,7.04,0,0,0,1.168,4.211,3.778,3.778,0,0,0,3.25,1.624,4.024,4.024,0,0,0,3.417-1.618,6.848,6.848,0,0,0,1.214-4.217Z" transform="translate(-1374.321 -589.28)"/><path class="c" d="M1403.275,604.389a3.689,3.689,0,0,1-1.329,1.355,3.651,3.651,0,0,1-1.875.475,3.5,3.5,0,0,1-2.781-1.142,5.309,5.309,0,0,1-1-3.559v-4.884l-1.253-.283v-1.284h3.245v6.471a4.073,4.073,0,0,0,.516,2.406,1.916,1.916,0,0,0,1.608.657,3.277,3.277,0,0,0,1.755-.429,2.692,2.692,0,0,0,1.047-1.218v-6.32l-1.466-.283v-1.284h3.458v9.384l1.254.283v1.274h-3.043Z" transform="translate(-1380.737 -591.072)"/><path class="c" d="M1417.227,591.243v2.639h2.072v1.476h-2.072V602a1.483,1.483,0,0,0,.318,1.082,1.15,1.15,0,0,0,.844.313,4.458,4.458,0,0,0,.591-.045c.218-.031.4-.063.552-.1l.272,1.365a2.536,2.536,0,0,1-.829.3,5.239,5.239,0,0,1-1.092.117,2.58,2.58,0,0,1-1.931-.732,3.186,3.186,0,0,1-.718-2.3v-6.644h-1.729v-1.476h1.729v-2.639Z" transform="translate(-1386.457 -589.888)"/><path class="c" d="M1424.492,608.838l1.648-.283V596.542l-1.648-.283v-1.284h3.357l.182,1.334a3.679,3.679,0,0,1,1.33-1.142,3.977,3.977,0,0,1,1.814-.394,3.639,3.639,0,0,1,3.161,1.613,7.308,7.308,0,0,1,1.127,4.262v.212a6.03,6.03,0,0,1-1.132,3.816,3.743,3.743,0,0,1-3.125,1.452,4.344,4.344,0,0,1-1.775-.339,3.432,3.432,0,0,1-1.3-1.006v3.772l1.648.283v1.284h-5.288Zm8.969-8.19a5.809,5.809,0,0,0-.728-3.064,2.375,2.375,0,0,0-2.163-1.193,2.665,2.665,0,0,0-1.456.384,2.893,2.893,0,0,0-.981,1.052v5.328a2.6,2.6,0,0,0,2.457,1.416,2.456,2.456,0,0,0,2.143-1.031,4.547,4.547,0,0,0,.728-2.68Z" transform="translate(-1389.861 -590.981)"/><path class="c" d="M1450.647,604.389a3.7,3.7,0,0,1-1.329,1.355,3.652,3.652,0,0,1-1.875.475,3.5,3.5,0,0,1-2.781-1.142,5.31,5.31,0,0,1-1-3.559v-4.884l-1.254-.283v-1.284h3.246v6.471a4.074,4.074,0,0,0,.516,2.406,1.917,1.917,0,0,0,1.608.657,3.279,3.279,0,0,0,1.755-.429,2.7,2.7,0,0,0,1.046-1.218v-6.32l-1.466-.283v-1.284h3.458v9.384l1.253.283v1.274h-3.043Z" transform="translate(-1395.409 -591.072)"/><path class="c" d="M1464.6,591.243v2.639h2.073v1.476H1464.6V602a1.482,1.482,0,0,0,.319,1.082,1.149,1.149,0,0,0,.844.313,4.461,4.461,0,0,0,.592-.045c.219-.031.4-.063.551-.1l.273,1.365a2.537,2.537,0,0,1-.829.3,5.238,5.238,0,0,1-1.092.117,2.579,2.579,0,0,1-1.931-.732,3.186,3.186,0,0,1-.718-2.3v-6.644h-1.729v-1.476h1.729v-2.639Z" transform="translate(-1401.131 -589.888)"/><path class="c" d="M1480.72,598.413h-1.5l-.323-1.314a2.707,2.707,0,0,0-.915-.552,3.55,3.55,0,0,0-1.249-.207,2.3,2.3,0,0,0-1.577.465,1.458,1.458,0,0,0-.516,1.122,1.251,1.251,0,0,0,.455,1.022,4.718,4.718,0,0,0,1.85.667,7.974,7.974,0,0,1,3.084,1.209,2.435,2.435,0,0,1,1.011,2.047,2.827,2.827,0,0,1-1.177,2.356,4.939,4.939,0,0,1-3.079.9,8.035,8.035,0,0,1-2.234-.288,5.971,5.971,0,0,1-1.77-.835l-.01-2.5h1.5l.374,1.466a2.078,2.078,0,0,0,.935.455,5.156,5.156,0,0,0,1.208.141,2.822,2.822,0,0,0,1.664-.429,1.327,1.327,0,0,0,.6-1.128,1.358,1.358,0,0,0-.5-1.082,4.712,4.712,0,0,0-1.9-.738,7.973,7.973,0,0,1-3-1.183,2.385,2.385,0,0,1-1.011-2.022,2.854,2.854,0,0,1,1.138-2.275,4.487,4.487,0,0,1,2.957-.94,7.172,7.172,0,0,1,2.234.324,4.661,4.661,0,0,1,1.648.9Z" transform="translate(-1404.774 -590.981)"/></g><g transform="translate(558.626 285.797)"><g transform="translate(4.583 1.953)"><path class="a" d="M884.85,364.694l-4.218,9.084-4.218,9.077L871.88,376.4a150.051,150.051,0,0,0-46.421,70.076l-4.611-1.436a154.89,154.89,0,0,1,48.243-72.617l-4.183-5.957,9.968-.884Z" transform="translate(-820.848 -364.694)"/></g><g transform="translate(0 159.776)"><path class="a" d="M874.413,678.375l-3.016,3.776a154.864,154.864,0,0,1-50.114-71.333l-7.075,1.733,2.8-9.609,2.8-9.609,6.93,7.228,6.923,7.227-7.662,1.878A150.043,150.043,0,0,0,874.413,678.375Z" transform="translate(-814.208 -593.333)"/></g><g transform="translate(234.644)"><path class="a" d="M1219.638,426.432l-1.981,9.816-1.981,9.808-7.51-6.626-7.5-6.62,7.476-2.513a150,150,0,0,0-54-64.416l2.685-4.017a154.889,154.889,0,0,1,55.919,66.887Z" transform="translate(-1154.138 -361.864)"/></g><g transform="translate(241.16 162.145)"><path class="a" d="M1178.667,674.061l4.645,5.605-9.871,1.684-9.864,1.677,3.479-9.388,3.479-9.388,5.032,6.081a150.171,150.171,0,0,0,40.678-73.569l4.715,1.063A154.891,154.891,0,0,1,1178.667,674.061Z" transform="translate(-1163.578 -596.764)"/></g></g><g transform="translate(421.318 214.286)"><path class="a" d="M615.29,375.344c1.84,1.419,21.729,3.063,23.019,3.266,1.811.285,2.733.8,2.789,2.613.394,12.883-3.373,23.518-5.563,36.818" transform="translate(-615.29 -294.528)"/><path class="a" d="M615.29,374.793c1.521.17,19.482-1.2,23.2-1.227,1.711-.011,14.068.386,14.259,1.878.439,3.427.326,6.871.507,10.332a136.44,136.44,0,0,0,1.268,15.4,36.458,36.458,0,0,1,.6,6.353" transform="translate(-615.29 -293.978)"/><path class="a" d="M615.29,352.3c.376-3.345.321-9.584,1-12.48a65.527,65.527,0,0,0,1.128-7.07c.35-2.871.949-5.7,1.149-8.586a24.766,24.766,0,0,1,.9-4.811,17.917,17.917,0,0,0,.263-1.778q.29-1.778.694-3.534a56.238,56.238,0,0,1,4.781-13.1" transform="translate(-615.29 -271.485)"/><path class="a" d="M672.995,422.864c.935.679,15-.972,15.766-3.671.518-1.832-2-2.958-3.44-3.144-4.822-.621-8.1,1.933-9.572,2.684" transform="translate(-633.163 -307.106)"/><path class="a" d="M643.708,438.308a53.474,53.474,0,0,0,9.657-.128c1.707-.222,5.111-.925,5.487-3.119.476-2.778-3.928-2.8-5.5-2.8-2.028.006-3.949.521-5.968.479" transform="translate(-624.092 -312.158)"/><g transform="translate(3.341)"><path class="a" d="M644.058,259.13a17.92,17.92,0,0,1,7.538,13.8,17.255,17.255,0,0,1-9.7,16.046,15.282,15.282,0,0,1-21.063-18.631,17.615,17.615,0,0,1,10.549-10.976,16.146,16.146,0,0,1,10.055-.538,12.881,12.881,0,0,1,7.819,6.182" transform="translate(-620.131 -258.266)"/><path class="a" d="M658.5,281.2a5.3,5.3,0,0,1,.969-4.819,4.158,4.158,0,0,1-1.082,4.848l.845-3.927-.652,3.612" transform="translate(-631.949 -263.876)"/><path class="a" d="M654.5,294.018a11.333,11.333,0,0,1-5.292-10.182" transform="translate(-629.129 -266.186)"/></g><path class="e" d="M648.965,380.261a8.007,8.007,0,0,0-1.126-.822c-.4-.3-.811-.559-1.191-.882a23.739,23.739,0,0,0-4.663-2.689c-.972-.494-1.932-1.013-2.911-1.494-.532-.262-.786-.714-1.238-1.064a7.762,7.762,0,0,1-.917-.652,3.306,3.306,0,0,0-.953-.606c-.589-.318-1.211-.568-1.82-.858-.505-.242-.962-.538-1.471-.766a3.624,3.624,0,0,0-1.092-.481c.13-.266.571-.324.844-.408.489-.151,1-.261,1.47-.447,1.138-.445,2.235-.922,3.406-1.3.968-.311,1.911-.65,2.857-1.007.689-.26,1.339-.634,2.022-.912.455-.184.866-.421,1.327-.592s.906-.3,1.376-.43c.552-.153,1.123-.195,1.668-.333a10.7,10.7,0,0,1,1.177-.316,3.139,3.139,0,0,0,.952-.205,3.362,3.362,0,0,0,.561-.278c.195-.128.321-.291.595-.307s.521.2.75.3a12.444,12.444,0,0,0,1.379.526c1.494.482,3.036.835,4.543,1.283,2.359.7,4.807,1.268,7.1,2.12a8.2,8.2,0,0,1,2.6,1.005" transform="translate(-620.336 -290.833)"/><path class="a" d="M620.606,330.554c1.168,3.477,4.777,13.974,5.849,16.539,1.806,4.32,7.054,9.434,12.408,13.151" transform="translate(-616.936 -280.656)"/><path class="e" d="M657.117,373.275a31.925,31.925,0,0,0,2.907-6.756c.915-2.577,1.66-5.194,2.629-7.757.382-1.011.807-2.008,1.194-3.018.313-.814.539-1.654.893-2.455a26.825,26.825,0,0,0,1.965-6.179c.03-.17-.043-.339.129-.464s.5-.081.693-.11c1.179-.182,2.4-.328,3.59-.46,2.171-.24,4.284-.933,6.427-1.317,1.9-.342,3.763-.879,5.666-1.228a3.628,3.628,0,0,0,.66-.116c.157-.059.293-.2.477-.163.553.1-.515,2.261-.615,2.519a30.987,30.987,0,0,1-2.132,4.666c-.806,1.368-1.636,2.736-2.41,4.119-.342.611-.538,1.274-.885,1.884-.257.451-.569.873-.812,1.331-.306.574-.706,1.1-1.04,1.663a9.1,9.1,0,0,0-1.371,2.691Z" transform="translate(-628.245 -284.587)"/><path class="a" d="M620.575,330.7c7.363,1.21,15.2,4.509,20.538,13.186a79.736,79.736,0,0,1,6.664,12.777" transform="translate(-616.927 -280.702)"/></g><g transform="translate(282.228 402.718)"><path class="e" d="M506.149,591.324c.173.282,2.4,3.041,2.694,3.442a7.309,7.309,0,0,0,.967,1.06c.1-.148,1.119-4.582,1.333-5.191.182-.517,1.181-4.34,1.483-5.116.235-.6,1.584-5.291,1.646-5.557s-.881-.638-1.094-.717c-.745-.28-3.483-1.6-3.6-1.568a40.864,40.864,0,0,0-1.731,4.757c-.234.929-.572,1.9-.756,2.845-.129.658-.355,1.343-.418,2.009-.073.757-.951,3.425-.545,3.99" transform="translate(-442.356 -545.629)"/><g transform="translate(11.123 2.457)"><path class="a" d="M449.2,615.879c-8.076,12.363-10.539,26.983-15.55,39.461-.71,1.768-1.475,3.6-3.5,4.629" transform="translate(-429.981 -559.918)"/><path class="a" d="M433.954,742.941c.277.193.8.046,1.153.034,1.113-.035,2.194-.055,3.326-.174a46.2,46.2,0,0,0,4.871-.812c1.231-.266,3.4-.618,4.133-1.842.691-1.157.438-2.56-2.635-2.99a16.522,16.522,0,0,0-8.179,1.1" transform="translate(-431.158 -597.44)"/><path class="a" d="M468.639,703.708a16.164,16.164,0,0,0,6.91-.237,30.644,30.644,0,0,0,4.106-1.193c.866-.322,2.479-.948,3-1.716.84-1.229-2.072-1.851-3.021-2.071a25.536,25.536,0,0,0-8.018-.428" transform="translate(-441.901 -585.338)"/><path class="a" d="M461.571,657.555c1.1-.939,6.56-3.634,7.778-4.44a11.651,11.651,0,0,1,2.5-1.35,5.23,5.23,0,0,1,1.012-.3q.379-.076.457.236c.359.371.178,1.349.146,1.819a23.976,23.976,0,0,1-1.025,4.281c-.494,1.882-2.384,10.4-3.139,13.765-.617,2.751-1.374,5.47-1.991,8.22-.4,1.805-1.8,8.715-1.789,9.227" transform="translate(-439.712 -570.936)"/><path class="a" d="M452.543,660.423c-2.921,6.368-7.077,14.019-9.374,20.618-3.4,9.752-7.986,27.195-10.269,37.224" transform="translate(-430.832 -573.715)"/><path class="a" d="M456.348,590.09c.189,1.558.231,3.829.318,5.394.389,7.095,1.136,14.161,1.632,21.248.34,4.866.794,9.724,1.079,14.594a31.331,31.331,0,0,0,.577,6.531" transform="translate(-438.094 -551.931)"/><path class="a" d="M458.911,610.248c1.8-1.633,6.86-.694,9.141-.689a27.966,27.966,0,0,0,10.921-2.327,41.729,41.729,0,0,0,7.8-4.561c1.637-1.1,3.52-1.835,5.25-2.769,1.439-.778,3.271-1.311,4.569-2.2" transform="translate(-438.888 -554.287)"/><path class="a" d="M445.394,571.783c-6.346-2.376-11.983-6.718-14.318-13.079s-1.178-14.057,3.461-19,12.738-6.493,18.57-3.042c3.558,2.1,6,5.72,7.562,9.548a23.443,23.443,0,0,1,1.517,13.724,15.84,15.84,0,0,1-8.1,10.866c-4.2,2.058-7.706,2.061-12.536-.774" transform="translate(-429.904 -534.808)"/></g><path class="a" d="M459.438,564.937a14.934,14.934,0,0,0,11.755,5.172" transform="translate(-427.928 -541.683)"/><path class="a" d="M467.871,554.76l-1.269-2.626a3.42,3.42,0,0,1,1.789,3.807l-1.775-3.315" transform="translate(-430.147 -537.717)"/><path class="a" d="M445.879,533.808a14.6,14.6,0,0,0-19.165,2.348c-3.944,4.745-4.342,11.38-5.094,17.5s-2.517,12.9-7.83,16.031" transform="translate(-413.79 -531.249)"/><path class="a" d="M446.219,535.959c-5.761-1.185-11.519,2.861-14.483,7.942s-3.858,11.056-5.231,16.775-3.493,11.638-8.087,15.312" transform="translate(-415.223 -532.643)"/><path class="a" d="M449.79,535.556c-5.034,2.344-8.121,7.578-9.81,12.867s-2.29,10.883-4.041,16.152-4.978,10.448-10.09,12.615" transform="translate(-417.525 -532.583)"/><path class="a" d="M448.452,535.137c-4.053.717-7.2,4.062-9.018,7.754s-2.588,7.794-3.8,11.726a53.329,53.329,0,0,1-11.077,19.635" transform="translate(-417.124 -532.453)"/></g><g transform="translate(687.254 134.849)"><path class="e" d="M1023.68,167.21c-1.517,5.858-3.305,11.606-5.077,17.385-1.247,4.068-2.843,8.049-3.91,12.156-.8,3.066-1.86,6.1-2.508,9.2a44.842,44.842,0,0,1-1.334,5.5c-.215.618-.523.99-.061,1.47a4.529,4.529,0,0,0,1.484.688c1.583.634,3.249,1.047,4.837,1.674a126.426,126.426,0,0,0,14.827,5.152c3,.768,6.056,1.338,9.072,2.061,2.3.552,4.63,1.4,6.97,1.755,1.5.231,1.711-1.734,1.978-2.819.547-2.223.909-4.485,1.314-6.736,1.865-10.367,3.747-20.737,5.288-31.16,1.637-11.082,2.307-37.919,2.264-38.091-.089-.351-10.009-1.713-12.419-1.762-2.027-.042-9.132-.3-10.693-.289-1.49.013-5.649-.484-6.043.008C1029.669,143.4,1024.934,162.364,1023.68,167.21Z" transform="translate(-1003.649 -143.185)"/><path class="f" d="M1019.145,250.832a13.291,13.291,0,0,0-1.771,2.95c-.39.735-5.181,11.87-5.777,12.873-.636,1.071-4.769,14.408-5.157,15.54-.342.995-5.314,12.564-5.887,12.9" transform="translate(-1000.553 -176.527)"/><path class="f" d="M1048.935,258.194c0,2.243,0,5.66,0,7.9,0,1.2.32,5.566.3,6.573-.025,1.515.613,7.9.841,9.583.176,1.3.964,8.231.914,9.081-.12,2.018.008,4.081.008,6.1" transform="translate(-1015.538 -178.807)"/><path class="f" d="M1070.862,240.5c.281,3.572,1.258,7.824,1.905,11.345.433,2.359.5,4.75,1.018,7.1.4,1.824,3.5,20.349,3.614,20.981.14.784.957,6.754,2.224,11.857" transform="translate(-1022.33 -173.326)"/><path class="g" d="M1046.982,180.962c-.6-.079-5.74-.675-6.342-.7-.335-.013-.733.157-.856-.264a1.391,1.391,0,0,1,.092-.63c.071-.32.108-.646.15-.97.1-.725.312-1.407.45-2.123a26.956,26.956,0,0,1,.7-3.021c.185-.581.308-1.062.956-1.186a7.594,7.594,0,0,1,1.908.1,17.928,17.928,0,0,1,2.674.347c1.639.374,3.277.689,4.933.968.566.1,1.143.158,1.7.293a4.915,4.915,0,0,1,1,.187c-.359,1.029-.734,1.991-1,3.057-.266,1.082-.63,2.125-.926,3.195-.2.73-.865.917-1.572.944a25.2,25.2,0,0,1-2.533,0c-.405-.026-.948-.325-1.355-.117-.391.2-.385,1.053-.472,1.418-.236,1-.336,2.014-.55,3.015a51.08,51.08,0,0,1-1.737,5.7,38.959,38.959,0,0,0-1.335,4.141c-.09.413.029.9-.439,1.008-.694.153-1.393-.115-2.082.13a5.6,5.6,0,0,0-3.006,2.409,8.509,8.509,0,0,0-1.533,4.28c-.055,2.365.894,4.931,3.383,5.638,1.912.544,4.43.414,5.9-1.086a7.165,7.165,0,0,0,1.822-4.529,7.778,7.778,0,0,0-.821-4.594,5.808,5.808,0,0,0-3.806-2.225" transform="translate(-1011.471 -152.12)"/><path class="g" d="M1053.735,168.82a6.668,6.668,0,0,0,.594-1.468,10.213,10.213,0,0,0,.546-2.109c.139-.761.616-1.4.752-2.143.047-.255.023-.514.1-.768a3.688,3.688,0,0,0,.225-.594" transform="translate(-1017.025 -148.932)"/><path class="g" d="M1041.168,226.294c-.028,2.76-1.331,5.356-1.328,8.115" transform="translate(-1012.722 -168.926)"/><path class="a" d="M1042.25,217.456a11.029,11.029,0,0,0-.952-2.23c-.475-1.157-.861-2.348-1.309-3.515a16.9,16.9,0,0,1-.72-2.375,23.867,23.867,0,0,0-1.6-3.513" transform="translate(-1012.049 -162.586)"/></g><g transform="translate(650.193 116.27)"><path class="a" d="M993.336,166.511c0,1.305-.634,9.135-1.016,11.3-1.28,7.264-2.11,14.6-3.41,21.866-.915,5.111-1.959,8.561-1.317,15.917" transform="translate(-959.417 -131.831)"/><path class="a" d="M987.682,237.619c.941.583,8.24,9.806,11.965,27.7.962,4.623,1.791,14.885,1.474,26.442" transform="translate(-959.506 -153.855)"/><path class="a" d="M984.653,237.619c-.487,1.3-1.125,16.36-1.206,19.247-.079,2.8-.435,5.588-.543,8.389-.1,2.713-4.376,23.559-5,25.818" transform="translate(-956.477 -153.855)"/><path class="a" d="M978.536,313.278c-.072-.055,12.786.681,13.067-2.143.009-1.787-7.395-2.043-9.35-2.143" transform="translate(-956.673 -175.962)"/><path class="a" d="M1007.251,313.337c-.057-.064,12.419,1.748,12.12-1.159.434-.822-8.527-3.727-9.546-3.213" transform="translate(-965.567 -175.935)"/><path class="a" d="M994.1,189.825l.123-.114c.258.155.419.632.565.884.394.675.845,1.326,1.257,1.986,1.123,1.8,2.147,3.672,3.427,5.339.826,1.075,1.685,2.121,2.517,3.191a20.057,20.057,0,0,0,2.833,3.069,34.275,34.275,0,0,0,5.782,3.933,17.09,17.09,0,0,0,5.43,1.744c1.8.284,3.638.582,5.456.725,1.445.113,2.888.3,4.333.4a8.113,8.113,0,0,1,2.832.322" transform="translate(-961.492 -139.017)"/><path class="a" d="M993.241,188.635c.644.682,1.5.592,2.4.6,1.512.018,3.019-.024,4.528-.15a89.9,89.9,0,0,0,9.981-1.2,63.217,63.217,0,0,0,8.859-2.669" transform="translate(-961.228 -137.625)"/><path class="a" d="M997.812,118.61a17.923,17.923,0,0,1,9.375,12.624,17.258,17.258,0,0,1-7.384,17.233,15.281,15.281,0,0,1-23.438-15.538,17.612,17.612,0,0,1,8.929-12.33,16.138,16.138,0,0,1,9.883-1.924,12.887,12.887,0,0,1,8.6,5.04" transform="translate(-955.937 -116.971)"/><path class="a" d="M1011.194,155.918a9.461,9.461,0,0,1-8.478-4.463" transform="translate(-964.162 -127.168)"/><path class="a" d="M1003.249,124.49a22.8,22.8,0,0,1-26.034,7.868" transform="translate(-956.264 -118.816)"/><path class="a" d="M1002.229,122.838a20.545,20.545,0,0,1-21.983,5.125" transform="translate(-957.203 -118.305)"/><path class="a" d="M1000.141,120.8a16.46,16.46,0,0,1-15.129,2.829" transform="translate(-958.679 -117.674)"/><path class="a" d="M974.243,121.4a6.59,6.59,0,0,0-9.042-4.6c-2.456,1.06-4.044,3.522-4.891,6.061s-1.094,5.232-1.715,7.834a28.049,28.049,0,0,1-11.731,16.726" transform="translate(-946.863 -116.27)"/><path class="a" d="M976.755,124.211a7.992,7.992,0,0,0-6.774,1c-3,1.927-4.667,5.394-5.5,8.858s-.968,7.061-1.7,10.547-2.175,7.015-4.992,9.2" transform="translate(-950.248 -118.617)"/><path class="a" d="M979.41,125.247c-4.033.15-7.17,3.812-8.359,7.667s-.955,7.984-1.33,12-1.568,8.289-4.766,10.749" transform="translate(-952.467 -119.051)"/><path class="a" d="M1010.978,138.839a2.663,2.663,0,0,0,4.582,1.513" transform="translate(-966.721 -123.261)"/></g><g transform="translate(642.196 434.307)"><g transform="translate(0 31.293)"><path class="a" d="M992.115,622.346c-.106,2.21-14.768,33.431-14.513,35.2,1.966-2.412,25.214-9.684,26.31-4.778a5.124,5.124,0,0,1-.528,2.645s-1.405,2.869-2.253,4.227c-2.057,3.4-4.351,6.65-6.412,10.053a47.787,47.787,0,0,0-3.136,6.758" transform="translate(-948.385 -622.346)"/><path class="a" d="M999.36,699.427c1.2.075,10.288-.127,11.263-.594,2.144-1.025,1.188-3.282-.649-4.306-1.008-.563-4.17-.545-9.252.766" transform="translate(-955.125 -644.594)"/><path class="a" d="M967.94,673.334a41.62,41.62,0,0,0,.8,5.839c.411,2.97.88,5.936,1.5,8.871.336,1.6.469,3.237.855,4.821a4.464,4.464,0,0,1,.256,2.258c-.309.163-1.252-.2-1.55-.259-.781-.164-1.53-.443-2.3-.643-3.155-.82-6.4-1.267-9.529-2.16a37.878,37.878,0,0,1-7.231-3.351c-1.176-.629-2.991-1.951-4.336-2.682" transform="translate(-938.724 -638.138)"/><path class="a" d="M945.2,694.348c.1,1.251-6.394,12.9-9.029,12.065-3.217-1.024,3.149-13.27,4.565-14.69" transform="translate(-935.277 -643.834)"/><path class="a" d="M989.419,643.619c-.371.342-.518,9.815-.567,12.138-.059,2.718-.048,5.443,0,8.162.128,8.157,1.954,16.206,4.135,23.934.567,2.008,1.365,3.807,2.113,5.718.549,1.4,1.091,2.806,1.778,4.156" transform="translate(-951.858 -628.935)"/><path class="a" d="M989.692,643.619c1.718,1.385,8.514,6.04,10.264,7.38,2.168,1.661,7.157,5.341,7.4,5.539,3.759,3.112,3.146,5.067,5.9,19.145" transform="translate(-952.131 -628.935)"/></g><path class="a" d="M1008.364,578.149c6.8,3.523,8.5,8.12,8.708,13.548a17.257,17.257,0,0,1-9.7,16.046,15.282,15.282,0,0,1-21.064-18.63,17.614,17.614,0,0,1,10.549-10.976,15.057,15.057,0,0,1,12,.26" transform="translate(-950.865 -577.011)"/><path class="a" d="M1014.015,616.856a11.335,11.335,0,0,1-5.293-10.182" transform="translate(-958.018 -586.199)"/><path class="a" d="M1018.618,599.711a2.319,2.319,0,1,0,4.162,1.521" transform="translate(-960.96 -584.042)"/><path class="a" d="M996.953,581.609c3.308,3.543,9.429,5.1,14.36,4.88,2.167-.1,5.481-1.251,6.79-3.024" transform="translate(-954.38 -578.435)"/><path class="a" d="M1001.3,588.361a30.676,30.676,0,0,1-16.025,10.776" transform="translate(-950.762 -580.527)"/></g><g transform="translate(902.261 207.887)"><g transform="translate(0 52.432)"><path class="e" d="M1312.034,329.574c2.552.006,6.139,2,8.377,3.257,2.66,1.494,4.431,2.235,6.444,4.485.919,1.028,2.293,3.027,3.177,4.1.468.565,1.089.935,1.546,1.484a9.721,9.721,0,0,1,.856,1.668,6.8,6.8,0,0,0,.777,1.049c.384.471,3.977,4.164,4.44,4.512,1.14.857,2.837-.407,4.059-1.006a22.714,22.714,0,0,1,5.838-2.361c3.069-.794,2.042-2.141,5.209-2.3,1.449-.072,2.981-1.236,4.079-1.765-1.247-1.209-2.688-2.9-4.289-3.531-2.1-.833-2.575-1.891-4.63-2.849-2.006-.935-3.1-2.5-4.963-3.692-2.013-1.287-3.767-3.189-6.034-4.076-1.808-.708-3.4-1.762-5.123-2.6-1.421-.694-5.61-.989-5.61-.989s-4.7,1.546-7.934,2.527c-1.4.425-2.752.9-4.181,1.274-1.761.466.236-.606-1.309.418" transform="translate(-1312.034 -324.954)"/><g transform="translate(13.146 5.144)"><path class="g" d="M1331.363,334.494l-.284.3a1.022,1.022,0,0,0,.92.351,3.453,3.453,0,0,1,.8-1.27c.528-.407,1.24-.252,1.815-.577.777-.44,1.028-1.261,2.048-.693" transform="translate(-1331.079 -332.407)"/><path class="g" d="M1338.659,339.859a.51.51,0,0,1-.607-.279c.636-.079,1.528-.065,1.831-.7.387-.81-.67-.6.433-1.266.464-.277,1.059-.06,1.532-.228.631-.225,1.035-.708,1.709-.957" transform="translate(-1333.239 -333.653)"/><path class="g" d="M1343.833,344.4a3.729,3.729,0,0,1,.032-.555,2.536,2.536,0,0,0,.033-.475c0-.051-.036-.226,0-.269.082-.1.264,0,.36.024.268.077.537.14.8.224.163.05.557.244.716.138.315-.212-.023-.8.229-1.06.126-.128.485-.016.638.022.258.064.8.253,1.077.124.378-.175-.037-.8.2-1.04.179-.175.579.052.778.11.15.044.5.211.651.142.189-.089.108-.48.139-.632.027-.137.022-.407.142-.489.215-.149.737.173.945.246s.39.159.587.237c.09.035.309.057.388.138" transform="translate(-1335.029 -334.951)"/></g></g><g transform="translate(23.464)"><path class="a" d="M1400.647,304.683c1.011.427,1.409,2.013,1.581,2.958.508,2.8.983,5.626,1.584,8.41,1.275,5.9,2.387,11.884,3.83,17.746.547,2.223,1.321,4.434,1.7,6.694.279,1.687.336,3.417.636,5.1.207,1.163.71,2.156.854,3.339.089.734.085.683.208,1.412" transform="translate(-1362.944 -266.243)"/><path class="a" d="M1385.222,446.048l.284-.314a32.951,32.951,0,0,1-8.931-.5,23.264,23.264,0,0,1-9.54-3.761c-1.164-.864-2.183-3.027-.154-3.549a11.883,11.883,0,0,1,5.039.32c1.546.322,8.353,1.7,9.819,2.3" transform="translate(-1352.127 -307.459)"/><path class="a" d="M1407.067,373.646q.166-.166.34-.322a10.312,10.312,0,0,1-1.392.355,19.411,19.411,0,0,0-2.8,1.091c-.971.4-2.012.615-2.963,1.06-.881.412-1.773.765-2.677,1.125a10.024,10.024,0,0,1-3.506,1.174c-.617,0-.883-.049-1.076.6-.342,1.155-.56,2.387-.832,3.562-.48,2.078-1.284,4.071-1.739,6.156-.38,1.744-.487,3.507-.779,5.263a51.015,51.015,0,0,0-.669,10.614,13.308,13.308,0,0,0,.96,4.382,15.422,15.422,0,0,1,.976,3.993,32.98,32.98,0,0,0,.672,4.6,22.98,22.98,0,0,1,.878,4.057" transform="translate(-1359.314 -287.504)"/><path class="a" d="M1415.488,373.225a5.711,5.711,0,0,0,1.006.5,11.24,11.24,0,0,0,2.1.721,52.356,52.356,0,0,1,5.276,1.267c1.12.3,2.2.721,3.311,1.065.658.2,1.782.365,1.961,1.129a3.318,3.318,0,0,1-.061.989c-.075.7-.138,1.4-.16,2.1-.078,2.48.165,4.946.172,7.42.016,5.035-.687,10.041-.543,15.089.064,2.237.369,4.485.525,6.72.136,1.948.271,3.9.439,5.842.113,1.308.215,2.624.438,3.919a7.919,7.919,0,0,1,.341,1.922" transform="translate(-1367.54 -287.473)"/><path class="a" d="M1437.495,442.214c.253.409,1.366.215,1.715.216a17.816,17.816,0,0,0,6.038-1.377c1.591-.563,3.216-1.1,4.769-1.759a7.44,7.44,0,0,0,3.25-2.152c1.606-2.172-2.722-2.185-3.745-2.13a36.477,36.477,0,0,0-6.734,1.374,16.018,16.018,0,0,1-3.345.766" transform="translate(-1374.357 -306.606)"/><path class="a" d="M1348.982,348.464c.179-.137.4-.019.589.026.4.093.828.119,1.238.188a44.412,44.412,0,0,0,5.543.59,43.5,43.5,0,0,0,7.836-.5,72.765,72.765,0,0,0,7.83-1.782,68.1,68.1,0,0,0,7.243-2.363c2.268-.859,4.285-2.118,6.444-3.166a13.312,13.312,0,0,0,3.527-2.253c.186-.185.67-.538.6-.821" transform="translate(-1346.942 -276.682)"/><path class="a" d="M1388.6,335.826a2.167,2.167,0,0,0-.879-.274,12.594,12.594,0,0,0-2.4-.228c-2.2-.028-4.387.3-6.58.283s-4.385.26-6.569.442c-.886.075-1.771.117-2.657.191-.489.041-.974.01-1.463.036a8.953,8.953,0,0,1-1.282.079c-.779-.068-1.559-.068-2.337-.14-1.08-.1-2.144-.237-3.217-.389a27.3,27.3,0,0,1-6.658-1.612c-1.523-.627-3.021-1.283-4.569-1.839-.386-.139-.766-.3-1.14-.47a14.336,14.336,0,0,0-2.819-.965" transform="translate(-1346.027 -274.371)"/><path class="a" d="M1348.477,325.271c.269-.754,1.346-3.191,1.5-3.978a27.9,27.9,0,0,1,1.494-4.179c.365-.991.557-2.043,1.011-3a3.542,3.542,0,0,0,.581-1.49" transform="translate(-1346.786 -268.703)"/><path class="a" d="M1373.082,275.261c-1.084,6.538,2.113,12.423,7.75,15.909a15.282,15.282,0,0,0,23.246-15.823,17.141,17.141,0,0,0-4.371-8.6" transform="translate(-1354.342 -254.494)"/><path class="a" d="M1385.154,297.884a11.333,11.333,0,0,0,6.535-9.433" transform="translate(-1358.146 -261.216)"/><path class="a" d="M1381.262,280.823l.6,2.994a2.945,2.945,0,0,0-1.281-3.4l.959,3.781" transform="translate(-1356.729 -258.728)"/><path class="a" d="M1364.346,269.235a48.557,48.557,0,0,0,27.321-5.121c1.114-.574,2.165-1.354,3.327-1.823.26-.106.536-.164.8-.262a10.432,10.432,0,0,0,2.459-1.766c.234-.185.47-.368.691-.569a3.27,3.27,0,0,0,.673-.792,1.913,1.913,0,0,0-.083-1.842,13.911,13.911,0,0,0-3.05-3.889,15.345,15.345,0,0,0-22.793,1.927,24.306,24.306,0,0,0-4.011,10.018" transform="translate(-1351.701 -248.995)"/><path class="a" d="M1364.322,276.257a14.15,14.15,0,0,1,4.694-3.391" transform="translate(-1351.693 -256.389)"/></g></g><g transform="translate(901.415 564.351)"><path class="e" d="M1407.4,892.386c3.244-.531,10.647-.725,13.929-1.131,6.6-.817,13.237-1.585,19.875-1.778,1.494-.043,2.915-.448,4.405-.5,1.146-.039,2.3.108,3.447.047,1.072-.057,2.019-.435,3.085-.5.955-.057,1.924.07,2.88.034,1.512-.057,2.936-.378,4.465-.449,1.43-.067,2.409-.523,3.953-.431-2.874-1.126-5.232-3.2-7.817-4.765-3.016-1.829-6.268-3.268-9.373-4.959-1.4-.76-2.705-1.63-4.022-2.49-1.137-.741-2.421-1.207-3.586-1.891-1.454-.853-1.7-1.082-3.461-.7-2.309.5-4.523.75-6.858,1.126-3.867.622-7.689,1.171-11.516,1.824-1.425.244-6.542,1.246-6.542,1.246s-1.468,5.6-2.154,7.872a49.631,49.631,0,0,0-1.1,6.311" transform="translate(-1340.604 -798.638)"/><path class="e" d="M1318.816,778.887c2.241-.01,4.474-.228,6.734-.223,3.79.01,7.893.321,11.646-.088a31.713,31.713,0,0,1,5.077-.322c1.252.058,2.416.387,3.676.429,2.562.085,5.314-.3,7.852-.04a40.8,40.8,0,0,0,6.424.419c1.771-.086,3.371-.4,5.207-.4,1.745,0,3.49-.018,5.234,0a8.551,8.551,0,0,0,2.082-.3c.879-.169,1.736.045,2.614-.117.249-1.179-1.588-2.678-2.6-3.476a22.8,22.8,0,0,0-3.358-2.553c-1.161-.638-1.392-1.319-2.439-2.071-1.125-.808-1.823-1.812-2.984-2.6-1.254-.853-10.032-.893-12.273-.95-1.059-.026-2.042-.275-3.086-.364s-2.065.029-3.089-.122a58.429,58.429,0,0,0-6.266-.284c-1.635-.072-3.034-.415-4.712-.409-1.221,0-2.442,0-3.663,0-2.787,0-5.56-.163-7.473,1.543-2.068,1.844-4.123,3.7-6.137,5.56a38.3,38.3,0,0,0-3.024,2.612c-.5.583-.6,1.321-1.151,1.911a11.711,11.711,0,0,1-1.582,1.236S1317.439,778.893,1318.816,778.887Z" transform="translate(-1311.03 -765.408)"/><path class="f" d="M1312.107,788.609l-.385.124c.941.619,3.131.824,4.3.886,1.3.07,2.639-.019,3.946-.019a41.809,41.809,0,0,1,6.263-.026,16.66,16.66,0,0,0,3.138.519,14.1,14.1,0,0,1,3.659.25c2.765.683,6.056.248,8.917.248,1.527,0,3.054-.015,4.58,0a38.339,38.339,0,0,0,4.213-.519,34.911,34.911,0,0,0,3.809-.223c1.665-.333,3.474-.5,5.172-.7,2.07-.246,4.217.077,6.3-.03.945-.049,1.675-.46,2.618-.519a12.362,12.362,0,0,0,4.187-.484" transform="translate(-1311.092 -772.44)"/><path class="f" d="M1371.081,793.421a9.28,9.28,0,0,0-2.4.453,14.834,14.834,0,0,1-2.832.043c-.688,0-1.383-.028-2.07-.012-1.2.028-2.247.471-3.433.526a24.974,24.974,0,0,0-2.858.024,16.974,16.974,0,0,1-3.271.453c-2.267-.041-4.374.493-6.675.5-2.808,0-5.617.01-8.425,0-3.016-.01-5.841.5-8.86.495a75.484,75.484,0,0,0-8.615.042,19.293,19.293,0,0,1-4.621.477c-.852-.1-1.6-.628-2.465-.519" transform="translate(-1311.969 -774.084)"/><path class="f" d="M1311.522,801.638c1.56,1.4,6.415.375,8.229.11,1.861-.271,3.714.054,5.574-.22a33.452,33.452,0,0,1,5.6-.372c1.617.022,2.989-.449,4.57-.535,1.068-.058,2.153.073,3.224.037,1.4-.046,2.668-.451,4.058-.533,1.268-.074,2.465.1,3.734-.084,8.073-1.162,17.287-.855,25.575-.855" transform="translate(-1311.03 -775.859)"/><path class="f" d="M1311.522,888.928s6.022-1.488,7.835-1.753c1.861-.271,4.107,1.171,5.967.9,1.935-.285,4.422.345,6.391.373,1.617.023,2.989-.448,4.57-.534,1.069-.058,2.153.072,3.224.037,1.4-.046,2.668-.451,4.058-.533,1.268-.075,8.367.1,9.636-.084,8.072-1.162,11.272-.881,19.56-.881" transform="translate(-1311.03 -802.889)"/><path class="f" d="M1313.039,806.92c1.637,1.026,5.51.739,7.327.385,2.91-.566,5.839-.31,8.781-.77,1.456-.228,2.866.023,4.319-.085,1.32-.1,2.725-.354,4.042-.507,1.338-.156,2.57-.481,3.923-.521a32.087,32.087,0,0,0,3.664-.1,42.381,42.381,0,0,1,6.544-.387,33.268,33.268,0,0,0,5.326-.6,20.008,20.008,0,0,1,3.717-.373,30.95,30.95,0,0,0,3.518-.545c1.2-.1,2.1.567,3.257.583,1.091.016,2.076-.727,3.155-.547" transform="translate(-1311.5 -777.176)"/><path class="f" d="M1313.789,811.1c-.348,1.649,4.778.992,5.849.991,3.68,0,7.291-.561,10.952-.5a52.546,52.546,0,0,0,8.976-.87,45.561,45.561,0,0,1,4.985-.643c1.263-.055,2.524.139,3.781-.017,7.972-.988,15.974-.949,24.077-.949" transform="translate(-1311.727 -778.947)"/><path class="f" d="M1313.8,817.6c.9-.774,2.188-.48,3.323-.483a26.679,26.679,0,0,0,3.8-.4c2.016-.277,4.037.008,6.059-.152,1.887-.149,3.618-.482,5.532-.466,3.252.028,6.714.282,9.945.037,2.779-.211,5.372-.52,8.194-.521a35.749,35.749,0,0,0,6.3-.385c1.977-.341,3.857.625,5.849.139a36.893,36.893,0,0,1,5.863-1.019c1.667-.119,3.086-.478,4.8-.468" transform="translate(-1311.737 -780.422)"/><path class="f" d="M1316.072,822.118c1.549,1.788,6.34,1.117,8.505,1.017,1.343-.063,2.6-.491,3.939-.547,1.644-.069,3.327.02,4.972.037,1.728.018,3.268-.471,4.972-.534a27.244,27.244,0,0,0,3.371-.083c2.651-.418,5.334-.145,7.948-.633,2.22-.415,4.47.346,6.695.012,1.949-.293,3.856-.147,5.771-.518,1.073-.207,2.1.051,3.166-.086.694-.09,1.25-.42,1.925-.547a31.025,31.025,0,0,1,5.261.026" transform="translate(-1312.439 -782.351)"/><path class="f" d="M1314.555,832.11c.2,1.628,3.872.991,5.016,1,3.1.033,6.092-.534,9.2-.494s6.119-.5,9.23-.505c2.422,0,4.677.526,7.085.5,2.843-.026,5.435.371,8.231.521,2.6.14,5.188-.545,7.818-.531,2,.01,4.009-.012,6.014,0,2.067.016,3.978-.548,6.026-.5" transform="translate(-1311.969 -786.066)"/><path class="f" d="M1314.06,828.327c2.643.021,5.127-.442,7.75-.514,3.754-.1,7.319-.025,11.055-.369,2.112-.195,4.21.008,6.316-.217,1.531-.164,2.978-.385,4.537-.4,2.419-.023,4.681-.518,7.079-.494a113.516,113.516,0,0,0,11.476-.633c2.817-.251,5.865.025,8.707.025" transform="translate(-1311.816 -784.05)"/><path class="f" d="M1312.03,837.863c.877.63,2.356.246,3.389.14,1.577-.162,3.128-.167,4.708-.288,3.533-.269,7.088-.217,10.638-.371,3.372-.146,6.922-.4,10.288-.291a63.332,63.332,0,0,0,8.4.024c4.309-.449,8.814.128,13.181.382l9.811.572" transform="translate(-1311.187 -787.554)"/><path class="f" d="M1313.8,845.281c1.029-.984,3.87-.5,5.3-.5,3.349.017,6.555-.433,9.88-.52,3.919-.1,7.677.013,11.577-.36,3.008-.287,5.971.013,8.967-.358a69.122,69.122,0,0,1,7.019-.229c1.979-.046,4.034-.372,6-.561,1.854-.178,3.487-.352,5.367-.429,1.459-.06,2.469-.538,3.983-.515" transform="translate(-1311.737 -789.072)"/><path class="f" d="M1313.242,851.379c.123,1.655,5.388,1.06,6.62,1.017,1.8-.063,3.528-.488,5.33-.547,1.927-.063,3.862.118,5.788.051,1.793-.063,3.513-.486,5.3-.547,1.768-.061,3.56.024,5.331.037,2.987.021,5.838-.518,8.832-.506,7.1.028,14.191,0,21.286,0" transform="translate(-1311.563 -791.882)"/><path class="f" d="M1312.107,857.655a134.4,134.4,0,0,1,19.31-.979c3.729.027,7.358-.516,11.1-.505a53.648,53.648,0,0,0,8.2-.112c4.01-.63,8.2-.386,12.3-.386a32.189,32.189,0,0,0,4.516-.042,25.972,25.972,0,0,1,4.361-.453" transform="translate(-1311.211 -793.212)"/><path class="f" d="M1311.522,864c1.637,1.319,6.007.283,7.876.11,4.735-.438,9.707-.108,14.467-.11,4.309,0,8.455-.03,12.727-.435a66.823,66.823,0,0,1,7.467-.551c1.8.023,3.349-.48,5.129-.513,1.5-.027,3,.012,4.5.012,1.957,0,6.617.626,8.036-.5" transform="translate(-1311.03 -795.331)"/><path class="f" d="M1310.951,870.9c.8.826,1.938.369,2.928.145a26.557,26.557,0,0,1,5.446-.658c3.253-.059,6.582-.077,9.833,0,6.943.173,13.953.093,20.939.025,4.263-.042,8.6-.991,12.787-1.512a86.1,86.1,0,0,1,10.745-.481" transform="translate(-1310.853 -797.314)"/><path class="f" d="M1310.809,875.973c2.339,1.176,5.9.587,8.568.516,1.8-.048,3.5-.48,5.3-.543,1.928-.068,3.819.112,5.753-.085a90.762,90.762,0,0,1,10.01-.891,89.588,89.588,0,0,0,9.306-.442c1.305-.12,2.611.071,3.908-.083,1.342-.159,2.521-.384,3.885-.44,1.9-.079,3.6-.141,5.548-.137a43.116,43.116,0,0,0,5.156.026c.762-.094,1.355-.411,2.087-.549.87-.164,1.52.337,2.212-.468" transform="translate(-1310.809 -798.694)"/><path class="f" d="M1310.809,881.513a32.005,32.005,0,0,0,6.073.5c3.744-.01,7.386.517,11.12.516,2.244,0,4.367-.195,6.583-.41,1.9-.184,3.808,0,5.7-.217,2.861-.334,5.718-.251,8.552-.635,2.622-.354,5.382-.468,8.028-.7,2.219-.2,4.458.749,6.673.581,1.706-.13,3.616-.445,5.287-.743,1.322-.236,3.436-.948,4.755-.743" transform="translate(-1310.809 -800.783)"/><path class="g" d="M1417.443,884.521c-.108-.36.78-.763.965-1.091a5.076,5.076,0,0,1,.529,1.364c1.234.264,1.57-1.294,2.722-1.436.955-.119,1.311.549,2.247.568,1.287.026,1.983-1.167,3.327-1.2.859-.021,1.175.406,2.25.066.549-.173,1.053-.594,1.619-.727,1.017-.239,1.469.19,2.37.291a6.266,6.266,0,0,0,3.141-.485c.949-.328,2-.969,2.886-.112" transform="translate(-1343.834 -801.312)"/><path class="g" d="M1418.591,891.68a2.31,2.31,0,0,1,1.323-.746c2.6,1.218,4.359-.433,6.72-1.188,1.341-.429,1.372-.153,2.644.043a10.066,10.066,0,0,0,4.111-.639,18.864,18.864,0,0,1,3.571-1.008c1.284-.055,2.561.649,3.984.578,3.229-.164,5.718-1.6,9.085-1.548" transform="translate(-1344.192 -803.121)"/></g><g transform="translate(904.728 429.134)"><path class="a" d="M1339.6,635.171c.347.4,21.745-6.317,25.889-25.973" transform="translate(-1323.04 -581.808)"/><path class="a" d="M1338.518,617.943a34.724,34.724,0,0,1,.6,6.451c-.052,6.595.061,13.142.409,19.73.547,10.351,1.914,20.624,1.914,30.984" transform="translate(-1322.705 -584.517)"/><path class="a" d="M1342.753,700.744c1.488-.21,2.347.64,3.172,1.815,3.422,4.874,4.424,11.227,5.617,16.9,1.6,7.584,2.819,15.34,3.69,23.041a108.868,108.868,0,0,1,.967,14.365" transform="translate(-1324.016 -610.152)"/><path class="a" d="M1337.244,700.758c-2.6.674-3.344,3.785-3.919,4.906-3.126,6.087-4.656,13.453-5.148,20.377-.733,10.319-.859,21.488-3.212,31.557" transform="translate(-1318.507 -610.167)"/><path class="a" d="M1333.2,646.825c-6.151,2.325-7.36,9.814-8.765,13.812a79.68,79.68,0,0,0-3.428,15.442c-.588,4.193-.4,8.333-2.069,12.874" transform="translate(-1316.64 -593.462)"/><path class="h" d="M1330.3,569.518a17.923,17.923,0,0,1,13.521,8.026,17.256,17.256,0,0,1-.159,18.748,15.282,15.282,0,0,1-27.62-5.286,17.615,17.615,0,0,1,3.478-14.821,16.142,16.142,0,0,1,8.375-5.59,12.881,12.881,0,0,1,9.879,1.33" transform="translate(-1315.609 -569.518)"/><path class="a" d="M1351.179,605.873a11.331,11.331,0,0,1-9.745-6.06" transform="translate(-1323.608 -578.901)"/><path class="a" d="M1338.494,574.884c-3.144,2.733-6.34,5.5-10.1,7.284s-8.238,2.488-12.111.952" transform="translate(-1315.816 -571.18)"/><path class="a" d="M1317.48,580.173a15.8,15.8,0,0,0,18.053-6.783" transform="translate(-1316.188 -570.717)"/><path class="a" d="M1318.747,578.544a19.075,19.075,0,0,0,14.526-8.232" transform="translate(-1316.581 -569.764)"/><path class="a" d="M1322.591,577.914l8.439-5.944" transform="translate(-1317.771 -570.277)"/><path class="a" d="M1350.421,587.506l.641,2.985a2.944,2.944,0,0,1-.175-3.627l.623,3.85" transform="translate(-1326.367 -574.89)"/><path class="a" d="M1326.063,779.217a3.312,3.312,0,0,0,1.071-.313c.657-.233,1.294-.5,1.928-.79,1.762-.8,3.576-1.477,5.358-2.232a16.472,16.472,0,0,0,4.283-2.452,3.9,3.9,0,0,0,1.485-2.036c.081-.52-.452-.837-.885-.981a3.684,3.684,0,0,0-1.663,0,10.263,10.263,0,0,0-2.682.7c-.733.326-1.436.718-2.17,1.044-.583.26-1.164.517-1.724.823-.36.2-.706.4-1.075.585a1.31,1.31,0,0,0-.366.209" transform="translate(-1318.847 -631.71)"/><path class="a" d="M1363.936,777.744c.165.164.4-.022.567-.1a7.749,7.749,0,0,0,1.19-.688c1.231-.847,2.43-1.724,3.591-2.664a14.643,14.643,0,0,0,2.555-2.672c.224-.3,1.379-1.514,1-1.942-.225-.254-.62-.168-.906-.113-.573.11-1.152.2-1.719.342a9.039,9.039,0,0,0-2.828,1.211c-.358.237-.615.561-.948.821-.266.208-.565.364-.833.571a11.225,11.225,0,0,0-1.223,1" transform="translate(-1330.577 -631.461)"/></g></g></svg>