<svg xmlns="http://www.w3.org/2000/svg" width="209.402" height="49.905" viewBox="0 0 209.402 49.905"><defs><style>.a,.b{fill:#fff;}.b{opacity:0.75;}</style></defs><g transform="translate(-2982.051 -1828.275)"><g transform="translate(3052.074 1860.74)"><path class="a" d="M3110.163,1887.672h5.965a4.044,4.044,0,0,1,2.856,1,3.64,3.64,0,0,1,1.088,2.817,4.1,4.1,0,0,1-.97,2.718,3.661,3.661,0,0,1-2.97,1.157h-4.162V1901h-1.806Zm7,1.833a3.884,3.884,0,0,0-1.631-.281h-3.567v4.619h3.567a3.392,3.392,0,0,0,1.96-.517,2.057,2.057,0,0,0,.752-1.824A2.008,2.008,0,0,0,3117.167,1889.505Z" transform="translate(-3110.163 -1887.672)"/><path class="a" d="M3132.535,1887.672h1.661v1.851h-1.661Zm0,3.657h1.661V1901h-1.661Z" transform="translate(-3120.307 -1887.672)"/><path class="a" d="M3140.248,1894.129h1.6v1.289a3.975,3.975,0,0,1,1.074-1.025,3.463,3.463,0,0,1,1.948-.544,3.665,3.665,0,0,1,2.81,1.265,5.18,5.18,0,0,1,1.155,3.616q0,3.176-1.666,4.537a3.773,3.773,0,0,1-2.459.862,3.349,3.349,0,0,1-1.85-.481,4.266,4.266,0,0,1-.974-.934v4.963h-1.634Zm6.146,7.618a4.55,4.55,0,0,0,.76-2.863,5.329,5.329,0,0,0-.337-2,2.471,2.471,0,0,0-4.662.091,6.687,6.687,0,0,0-.337,2.3,4.859,4.859,0,0,0,.337,1.915,2.48,2.48,0,0,0,4.239.549Z" transform="translate(-3123.804 -1890.472)"/><path class="a" d="M3165.357,1894.366a3.688,3.688,0,0,1,1.47,1.257,4.36,4.36,0,0,1,.649,1.715,11.29,11.29,0,0,1,.144,2.141h-7.069a4.2,4.2,0,0,0,.694,2.38,2.312,2.312,0,0,0,2.008.9,2.579,2.579,0,0,0,2.026-.847,2.885,2.885,0,0,0,.6-1.139h1.607a3.378,3.378,0,0,1-.422,1.193,4.288,4.288,0,0,1-.8,1.075,3.766,3.766,0,0,1-1.828.98,5.515,5.515,0,0,1-1.324.145,4.056,4.056,0,0,1-3.057-1.321,5.16,5.16,0,0,1-1.253-3.7,5.606,5.606,0,0,1,1.263-3.8,4.152,4.152,0,0,1,3.3-1.461A4.382,4.382,0,0,1,3165.357,1894.366Zm.585,3.816a4.268,4.268,0,0,0-.459-1.7,2.348,2.348,0,0,0-2.223-1.18,2.455,2.455,0,0,0-1.872.813,3.083,3.083,0,0,0-.8,2.064Z" transform="translate(-3132.217 -1890.487)"/><path class="a" d="M3179.214,1887.672h1.633V1901h-1.633Z" transform="translate(-3141.473 -1887.672)"/><path class="a" d="M3187.093,1887.672h1.661v1.851h-1.661Zm0,3.657h1.661V1901h-1.661Z" transform="translate(-3145.045 -1887.672)"/><path class="a" d="M3195.055,1894.1h1.552v1.38a4.353,4.353,0,0,1,1.461-1.225,3.89,3.89,0,0,1,1.714-.372,2.83,2.83,0,0,1,2.8,1.443,5.123,5.123,0,0,1,.4,2.259v6.234h-1.661v-6.125a3.319,3.319,0,0,0-.263-1.434,1.6,1.6,0,0,0-1.58-.908,3.229,3.229,0,0,0-.952.118,2.452,2.452,0,0,0-1.18.8,2.4,2.4,0,0,0-.531.994,6.621,6.621,0,0,0-.123,1.465v5.091h-1.633Z" transform="translate(-3148.655 -1890.487)"/><path class="a" d="M3219.916,1894.366a3.684,3.684,0,0,1,1.47,1.257,4.364,4.364,0,0,1,.65,1.715,11.342,11.342,0,0,1,.144,2.141h-7.068a4.2,4.2,0,0,0,.693,2.38,2.313,2.313,0,0,0,2.008.9,2.578,2.578,0,0,0,2.025-.847,2.884,2.884,0,0,0,.6-1.139h1.606a3.394,3.394,0,0,1-.421,1.193,4.317,4.317,0,0,1-.8,1.075,3.769,3.769,0,0,1-1.829.98,5.513,5.513,0,0,1-1.323.145,4.054,4.054,0,0,1-3.057-1.321,5.157,5.157,0,0,1-1.254-3.7,5.606,5.606,0,0,1,1.262-3.8,4.153,4.153,0,0,1,3.3-1.461A4.383,4.383,0,0,1,3219.916,1894.366Zm.585,3.816a4.244,4.244,0,0,0-.459-1.7,2.347,2.347,0,0,0-2.222-1.18,2.454,2.454,0,0,0-1.871.813,3.083,3.083,0,0,0-.8,2.064Z" transform="translate(-3156.954 -1890.487)"/><path class="a" d="M3244.688,1887.672h1.824V1901h-1.824Z" transform="translate(-3171.16 -1887.672)"/><path class="a" d="M3253.4,1894.1h1.552v1.38a4.35,4.35,0,0,1,1.46-1.225,3.894,3.894,0,0,1,1.715-.372,2.827,2.827,0,0,1,2.794,1.443,5.114,5.114,0,0,1,.4,2.259v6.234h-1.661v-6.125a3.3,3.3,0,0,0-.263-1.434,1.6,1.6,0,0,0-1.579-.908,3.23,3.23,0,0,0-.953.118,2.45,2.45,0,0,0-1.18.8,2.388,2.388,0,0,0-.53.994,6.591,6.591,0,0,0-.123,1.465v5.091H3253.4Z" transform="translate(-3175.109 -1890.487)"/><path class="a" d="M3272.222,1889.316h1.651v2.713h1.552v1.334h-1.552v6.342a.685.685,0,0,0,.345.681,1.456,1.456,0,0,0,.635.1q.118,0,.254-.006c.091,0,.2-.014.318-.03v1.3a3.674,3.674,0,0,1-.585.118,5.722,5.722,0,0,1-.657.036,1.772,1.772,0,0,1-1.552-.585,2.6,2.6,0,0,1-.408-1.52v-6.433h-1.316v-1.334h1.316Z" transform="translate(-3183.048 -1888.417)"/><path class="a" d="M3288.113,1894.366a3.684,3.684,0,0,1,1.47,1.257,4.364,4.364,0,0,1,.65,1.715,11.311,11.311,0,0,1,.144,2.141h-7.069a4.2,4.2,0,0,0,.693,2.38,2.312,2.312,0,0,0,2.007.9,2.577,2.577,0,0,0,2.025-.847,2.88,2.88,0,0,0,.6-1.139h1.607a3.4,3.4,0,0,1-.422,1.193,4.282,4.282,0,0,1-.8,1.075,3.765,3.765,0,0,1-1.828.98,5.52,5.52,0,0,1-1.324.145,4.055,4.055,0,0,1-3.057-1.321,5.16,5.16,0,0,1-1.253-3.7,5.6,5.6,0,0,1,1.263-3.8,4.151,4.151,0,0,1,3.3-1.461A4.383,4.383,0,0,1,3288.113,1894.366Zm.585,3.816a4.256,4.256,0,0,0-.459-1.7,2.348,2.348,0,0,0-2.223-1.18,2.454,2.454,0,0,0-1.871.813,3.082,3.082,0,0,0-.8,2.064Z" transform="translate(-3187.877 -1890.487)"/><path class="a" d="M3306.754,1894.526a4.472,4.472,0,0,1,.94.926v-1.225h1.506v8.838a6.537,6.537,0,0,1-.542,2.922q-1.013,1.978-3.825,1.978a4.68,4.68,0,0,1-2.632-.7,2.746,2.746,0,0,1-1.194-2.2h1.66a1.848,1.848,0,0,0,.47,1.007,2.959,2.959,0,0,0,4.178-.78,7.471,7.471,0,0,0,.316-2.786,3.192,3.192,0,0,1-1.174,1.107,4.2,4.2,0,0,1-4.569-.757,4.94,4.94,0,0,1-1.18-3.707,5.628,5.628,0,0,1,1.189-3.811,3.67,3.67,0,0,1,2.87-1.37A3.521,3.521,0,0,1,3306.754,1894.526Zm.2,1.751a2.367,2.367,0,0,0-1.887-.871,2.33,2.33,0,0,0-2.347,1.615,6.369,6.369,0,0,0-.334,2.26,4.032,4.032,0,0,0,.663,2.5,2.141,2.141,0,0,0,1.784.857,2.5,2.5,0,0,0,2.464-1.588,5.148,5.148,0,0,0,.4-2.1A4.067,4.067,0,0,0,3306.954,1896.278Z" transform="translate(-3196.56 -1890.525)"/><path class="a" d="M3321.286,1894.1h1.552v1.679a3.729,3.729,0,0,1,.935-1.194,2.424,2.424,0,0,1,1.715-.7c.03,0,.081,0,.154.009s.2.018.373.036v1.724a2.447,2.447,0,0,0-.268-.036c-.082-.006-.171-.009-.268-.009a2.332,2.332,0,0,0-1.9.794,2.773,2.773,0,0,0-.662,1.829v5.59h-1.634Z" transform="translate(-3205.891 -1890.487)"/><path class="a" d="M3332.934,1887.672h1.66v1.851h-1.66Zm0,3.657h1.66V1901h-1.66Z" transform="translate(-3211.173 -1887.672)"/><path class="a" d="M3340.4,1889.316h1.651v2.713h1.552v1.334h-1.552v6.342a.686.686,0,0,0,.345.681,1.453,1.453,0,0,0,.635.1c.078,0,.164,0,.254-.006s.2-.014.318-.03v1.3a3.669,3.669,0,0,1-.585.118,5.729,5.729,0,0,1-.658.036,1.773,1.773,0,0,1-1.552-.585,2.6,2.6,0,0,1-.408-1.52v-6.433h-1.316v-1.334h1.316Z" transform="translate(-3213.962 -1888.417)"/><path class="a" d="M3355.993,1894.279h1.8q-.344.935-1.533,4.267-.889,2.505-1.488,4.085a27.653,27.653,0,0,1-1.994,4.534,2.282,2.282,0,0,1-2,.816,3.9,3.9,0,0,1-.53-.027,4.108,4.108,0,0,1-.458-.1v-1.488a5.772,5.772,0,0,0,.616.145,2.367,2.367,0,0,0,.336.027,1.179,1.179,0,0,0,.666-.149,1.4,1.4,0,0,0,.358-.367c.03-.049.139-.3.326-.743s.323-.779.408-1l-3.594-10h1.851l2.6,7.917Z" transform="translate(-3218.419 -1890.668)"/></g><g transform="translate(3050.64 1830.78)"><path class="a" d="M3110.476,1833.833l5.631,16.693,5.565-16.693h2.975l-7.153,19.6h-2.814l-7.14-19.6Z" transform="translate(-3107.54 -1833.3)"/><path class="a" d="M3144.481,1833.833h14.225v2.4H3147.07v5.951h10.756v2.269H3147.07v6.645h11.836v2.335h-14.425Z" transform="translate(-3124.29 -1833.3)"/><path class="a" d="M3191.1,1834.818a6.957,6.957,0,0,1,2.255,4.457h-2.589a4.931,4.931,0,0,0-5.346-4.11,5.762,5.762,0,0,0-4.594,2.037q-1.749,2.036-1.749,6.244a9.185,9.185,0,0,0,1.58,5.589,5.478,5.478,0,0,0,4.712,2.144,4.952,4.952,0,0,0,4.391-2.255,8.66,8.66,0,0,0,1.193-3.123h2.589a8.9,8.9,0,0,1-2.269,5.191,8.029,8.029,0,0,1-6.226,2.522,8.157,8.157,0,0,1-5.672-2.07q-3.021-2.737-3.02-8.452a10.884,10.884,0,0,1,2.268-7.117,8.242,8.242,0,0,1,6.766-3.018A7.884,7.884,0,0,1,3191.1,1834.818Z" transform="translate(-3138.743 -1832.857)"/><path class="a" d="M3229.98,1836.193a10.815,10.815,0,0,1,1.948,6.659,11.653,11.653,0,0,1-2.229,7.3,9.9,9.9,0,0,1-14.572.427,11.288,11.288,0,0,1-2.308-7.286,11.591,11.591,0,0,1,1.975-6.805,8.557,8.557,0,0,1,7.5-3.629Q3227.485,1832.857,3229.98,1836.193Zm-2.342,12.495a10.721,10.721,0,0,0,1.568-5.789,8.261,8.261,0,0,0-1.808-5.569,6.171,6.171,0,0,0-4.944-2.11,6.435,6.435,0,0,0-4.964,2.09q-1.922,2.091-1.921,6.163a9.007,9.007,0,0,0,1.648,5.5q1.647,2.238,5.344,2.237A5.526,5.526,0,0,0,3227.638,1848.687Z" transform="translate(-3155.276 -1832.857)"/><path class="a" d="M3254.753,1833.833h8.91a8.76,8.76,0,0,1,3.63.654,4.641,4.641,0,0,1,2.712,4.631,4.823,4.823,0,0,1-2.762,4.683,4.021,4.021,0,0,1,1.728,1.228,4.414,4.414,0,0,1,.646,2.468l.094,2.629a8.033,8.033,0,0,0,.187,1.668,1.641,1.641,0,0,0,.854,1.2v.44H3267.5a2.431,2.431,0,0,1-.214-.654,12.334,12.334,0,0,1-.134-1.548l-.16-3.269a2.764,2.764,0,0,0-1.387-2.576,5.588,5.588,0,0,0-2.321-.36h-5.873v8.406h-2.656Zm8.625,8.981a4.9,4.9,0,0,0,2.874-.747,3.082,3.082,0,0,0,1.058-2.7,2.911,2.911,0,0,0-1.479-2.856,4.725,4.725,0,0,0-2.115-.4h-6.307v6.7Z" transform="translate(-3174.29 -1833.3)"/></g><g transform="translate(2982.051 1828.275)"><path class="b" d="M3066.137,1867.159l-5.766.109a33.637,33.637,0,0,0,2.952-3.394v-.005l2.372-.164A24.73,24.73,0,0,1,3066.137,1867.159Z" transform="translate(-3017.563 -1844.339)"/><path class="a" d="M3011.938,1875.334a22.589,22.589,0,0,0,4.154-.383,24.342,24.342,0,1,1,.022-44.661,22.715,22.715,0,1,0-4.176,45.043Z" transform="translate(-2982.051 -1828.275)"/><path class="a" d="M3039.814,1853.806l-34.3,4.061v-1.541l32.287-6.7A24.355,24.355,0,0,1,3039.814,1853.806Z" transform="translate(-2992.688 -1837.955)"/><path class="a" d="M3038.448,1864.014a33.668,33.668,0,0,1-2.952,3.394l-29.985.579v-1.662Z" transform="translate(-2992.688 -1844.48)"/><path class="b" d="M3059.95,1875.583a24.186,24.186,0,0,1-.5,3.525l-12.686-.9a32.493,32.493,0,0,0,4.214-2.788Z" transform="translate(-3011.392 -1849.653)"/><path class="a" d="M3032.271,1875.034a32.52,32.52,0,0,1-4.214,2.788l-22.546-1.591v-1.667Z" transform="translate(-2992.688 -1849.264)"/><path class="b" d="M3048.333,1886.908A24.182,24.182,0,0,1,3046.3,1891l-21.748-4.5a32.765,32.765,0,0,0,6.734-1.558Z" transform="translate(-3001.322 -1853.966)"/><path class="a" d="M3022.651,1883.293a32.764,32.764,0,0,1-6.733,1.558l-10.407-2.154v-1.383Z" transform="translate(-2992.688 -1852.324)"/><path class="b" d="M3034.862,1896.093a23.994,23.994,0,0,1-4.794,4.017l-24.558-10.7v-1.345Z" transform="translate(-2992.688 -1855.385)"/><path class="a" d="M3035.2,1839.706l-29.685,7.936v-1.4l24.864-10.718A24.11,24.11,0,0,1,3035.2,1839.706Z" transform="translate(-2992.688 -1831.562)"/></g></g></svg>