<svg xmlns="http://www.w3.org/2000/svg" width="80.697" height="90.856" viewBox="0 0 80.697 90.856">
  <g id="Group_175" data-name="Group 175" transform="translate(0 0)">
    <path id="Path_263" data-name="Path 263" d="M1210.037,346.533h-14.762a.79.79,0,0,0-.079.016.872.872,0,0,0-.182.037,1.213,1.213,0,0,0-.122.047,1.172,1.172,0,0,0-.142.076c-.012.008-.024.022-.036.03a1.733,1.733,0,0,0-.142.117,1.78,1.78,0,0,0-.144.142c-.014.016-.026.033-.04.049a2.237,2.237,0,0,0-.171.24c-.012.02-.026.049-.043.084s-.022.053-.035.079a1.881,1.881,0,0,0-.1.329c0,.019-.009.037-.01.056s-.013.045-.013.068v34.089c0,.12.079.321.234.321h14.762a1.5,1.5,0,0,0,1.263-1.37V346.854a.385.385,0,0,0-.132-.288A.175.175,0,0,0,1210.037,346.533Zm-5.074,12.916v21.173h-9.454v-32.4h9.454Zm3.812,0v21.173h-2.315v-32.4h2.315Z" transform="translate(-1152.454 -291.457)" fill="#346db6"/>
    <path id="Path_264" data-name="Path 264" d="M1240.677,329.778h-14.762a.786.786,0,0,0-.079.016.871.871,0,0,0-.182.037,1.184,1.184,0,0,0-.122.047,1.145,1.145,0,0,0-.142.076c-.012.008-.024.022-.036.03a1.733,1.733,0,0,0-.142.117,1.941,1.941,0,0,0-.145.142c-.014.016-.026.033-.039.049a2.2,2.2,0,0,0-.17.24.824.824,0,0,0-.043.084c-.014.026-.022.053-.035.08a1.834,1.834,0,0,0-.1.328c0,.019-.009.037-.01.056s-.013.045-.013.068V376.6c0,.12.079.321.234.321h14.762a1.5,1.5,0,0,0,1.263-1.37V330.1a.384.384,0,0,0-.132-.288A.176.176,0,0,0,1240.677,329.778Zm-5.075,16.77V375.23h-9.454V331.469h9.454Zm3.812,0V375.23H1237.1V331.469h2.315Z" transform="translate(-1162.315 -286.065)" fill="#346db6"/>
    <path id="Path_265" data-name="Path 265" d="M1179.4,355.646h-14.762a.778.778,0,0,0-.079.016.873.873,0,0,0-.182.037,1.171,1.171,0,0,0-.122.047,1.2,1.2,0,0,0-.142.076c-.012.008-.023.022-.035.03a1.667,1.667,0,0,0-.142.117,1.908,1.908,0,0,0-.145.142c-.013.016-.026.033-.039.049a2.169,2.169,0,0,0-.17.24.884.884,0,0,0-.043.084c-.014.026-.022.053-.035.08a1.834,1.834,0,0,0-.1.328c0,.019-.009.037-.01.056s-.013.046-.013.068v27.909c0,.12.079.321.234.321h14.762a1.5,1.5,0,0,0,1.263-1.37V355.967a.433.433,0,0,0-.059-.206A.208.208,0,0,0,1179.4,355.646Zm-5.075,25.86v2.049h-9.454V357.337h9.454Zm3.812,0v2.049h-2.315V357.337h2.315Z" transform="translate(-1142.593 -294.39)" fill="#346db6"/>
    <path id="Path_266" data-name="Path 266" d="M1148.757,365.761h-3.812a.717.717,0,0,0-.078.016.873.873,0,0,0-.183.037,1.183,1.183,0,0,0-.122.047l-.04.018h-10.526a.79.79,0,0,0-.079.016.872.872,0,0,0-.182.037,1.18,1.18,0,0,0-.264.123c-.012.008-.023.022-.035.03a1.692,1.692,0,0,0-.142.117,1.751,1.751,0,0,0-.144.142c-.014.016-.026.033-.04.049a2.25,2.25,0,0,0-.171.24c-.012.02-.026.049-.043.084s-.022.053-.034.079a1.867,1.867,0,0,0-.1.329c0,.019-.009.037-.011.056s-.012.045-.012.068V388.18c0,.12.079.321.234.321h14.762a1.5,1.5,0,0,0,1.263-1.37h0V366.082C1148.991,365.962,1148.912,365.761,1148.757,365.761Zm-5.075,19.827v1.222h-9.454V367.57h9.454Zm3.812-18.018v19.24h-2.315V367.452h2.315Z" transform="translate(-1132.732 -297.645)" fill="#346db6"/>
    <path id="Path_267" data-name="Path 267" d="M1213.4,289.055q-.519-10.252-1.038-20.505-.073-1.458-.147-2.917c-.018-.346-.309-.361-.57-.256l-18.845,7.555L1190.15,274c-.318.127-1.472,1.477-.693,1.626l8.784,1.685a110.959,110.959,0,0,1-17.356,22.932,95.228,95.228,0,0,1-25.19,18.187,74.512,74.512,0,0,1-21.852,7.124c-.577.086-1.675,1.716-.715,1.682,14.055-.509,27.962-5.625,39.991-12.715a106.555,106.555,0,0,0,20.72-15.942,133.319,133.319,0,0,0,13.3-15.327l4.8,7.113s.007.007.01.011a.206.206,0,0,0,.167.129C1212.644,290.691,1213.625,289.558,1213.4,289.055Zm-5.225-7.754c-.293-.434-.9.087-1.108.365a118.669,118.669,0,0,1-21.649,22.976,101.164,101.164,0,0,1-27.984,15.951,86.194,86.194,0,0,1-11.247,3.33,91.945,91.945,0,0,0,23.987-13.02,104.816,104.816,0,0,0,18.114-17.345,117.913,117.913,0,0,0,11.529-16.905c.123-.217.41-.853-.03-.938l-7.029-1.348L1208.638,268l2.107-.845q.491,9.7.982,19.4Z" transform="translate(-1132.738 -265.32)" fill="#346db6"/>
  </g>
</svg>
