<svg xmlns="http://www.w3.org/2000/svg" width="83.176" height="79.737" viewBox="0 0 83.176 79.737">
  <g id="Group_143" data-name="Group 143" transform="translate(-1138.35 -1710.769)">
    <g id="Group_142" data-name="Group 142" transform="translate(1138.35 1710.769)">
      <path id="Path_188" data-name="Path 188" d="M1145.943,1745.333l3.01-2.463a2.486,2.486,0,0,1,1.8,2.877c-.156,1.5-.433,2.978-.656,4.458a2.411,2.411,0,0,0,2.643.678,11.972,11.972,0,0,0,6.753-3.883c2.365-2.7,4.593-5.529,6.883-8.3.292-.354.6-.693,1.037-1.191l1.155,1.324-3.263,10.531c3.392-1.168,6.155-2.91,9.385-3.074l2.781-2.033a1.766,1.766,0,0,1,1.317,1.97c.011.8-.08,1.607,0,2.4a9.659,9.659,0,0,0,.621,1.824c1.346-1.056,2.5-1.883,3.563-2.82,1-.888,1.906-1.892,2.752-2.743l1.423.243,2.516-1.869a2.092,2.092,0,0,1,1.076,2.52,18.77,18.77,0,0,0-.381,2.542,15.137,15.137,0,0,1,9-7.516l.922,1.339c-.431,2-1.908,3.067-3.112,4.328-1.152,1.206-2.328,2.389-3.622,3.713,1.931,1.118,4.257.518,6.164,1.445a2.233,2.233,0,0,1-2.312,1.636,12.663,12.663,0,0,1-3.55-.363,13.334,13.334,0,0,1-3.908-1.667,15.1,15.1,0,0,1-2.492-2.786l-1.747,2.665-1.729-.485v-1.93l.129-.108-.088.148c-.212.183-.527.325-.617.554a5.739,5.739,0,0,1-3.3,3.177c-2.674-.342-2.933-.613-3.987-4.326l-3.8,5.922-2.073-.95,1.7-3.935.113-.173-.071.215a23.306,23.306,0,0,0-2.724.706c-1.559.6-3.072,1.32-4.627,2-1.459,4.405-2.8,8.754-4.339,13.03-2.168,6.007-4.441,11.978-6.768,17.926a14.032,14.032,0,0,1-3.912,5.675c-4.12,3.527-9.134,2.1-10.812-3.061-.839-2.583-.369-5.048.365-7.51a27.36,27.36,0,0,1,4.861-8.752,95.714,95.714,0,0,1,13.984-15.115c1.462-1.233,3.064-2.3,4.62-3.456.544-1.832,1.08-3.638,1.617-5.444l-.262-.133c-1.089,1.229-2.148,2.485-3.273,3.68a13.073,13.073,0,0,1-7.777,4.417,6.681,6.681,0,0,1-2.588-.142c-1.98-.535-2.711-1.689-2.532-3.754.067-.774.226-1.539.407-2.734a10.027,10.027,0,0,0-2.362,2.915c-.414.683-.753,1.418-1.218,2.063-.683.947-1,.958-2.636.183.139-.911.243-1.92.45-2.907,1.161-5.543,3.861-10.471,6.246-15.526,1.635-3.468,3.412-6.885,4.794-10.453,1.265-3.265,2.086-6.7,3.108-10.061.2-.656.424-1.3.654-2,1.717.986,1.865,1.143,1.466,2.66-.589,2.24-1.267,4.458-1.974,6.664-2.035,6.341-5.258,12.167-7.956,18.221-1.029,2.31-1.878,4.7-2.809,7.055l-.17.319Zm10.646,12.054-.5.513c-.479.139-1.187.159-.478.916l-1,.993-.215-.328-.244.332-1.458,1.925-.482,0c-.223.2-.615.372-.641.59a4.5,4.5,0,0,1-1.768,2.772c-.078-.11-.155-.219-.233-.329l-.23.332c-1.151,1.015-1.286,2.926-3.021,3.456a7.228,7.228,0,0,0,.168.92l-.055-.058-.954.974-.236-.287-.245.285a13.525,13.525,0,0,1-2.106,3.587,14.072,14.072,0,0,0-2.467,7.223,10.5,10.5,0,0,0,1.1,4.81,3.686,3.686,0,0,0,6.024,1.188,12.607,12.607,0,0,0,2.706-3.307,39.166,39.166,0,0,0,2.75-5.836c2.8-7.631,5.509-15.3,8.228-22.959a3.326,3.326,0,0,0-.033-1.092l-1.783,1.016.062-.061-1.725,1.262-.73,1.184-.212-.332Z" transform="translate(-1138.35 -1710.769)" fill="#346db6"/>
      <path id="Path_189" data-name="Path 189" d="M1246.509,1811.421c4.113-.464,8.181.275,12.256.533a5.838,5.838,0,0,1,.353,1.116,5.47,5.47,0,0,1-.166,1.108l-10.21,3.086c1.014,2.024,3.311,2.1,4.7,3.656l-2.037.949a22.262,22.262,0,0,1-3.185-1.41,5.047,5.047,0,0,1-1.729-1.917c-.811-1.6-.372-2.748,1.235-3.572a22.25,22.25,0,0,1,2.245-.833,2.763,2.763,0,0,0,1.415-1.014c-6.564.153-13.134.17-19.689.5-6.456.32-12.9.95-19.155,1.429-.826-.728-1.053-1.323-.378-2.22,5.6-.462,11.323-1.117,17.061-1.356C1234.886,1811.236,1240.57,1811.421,1246.509,1811.421Z" transform="translate(-1176.304 -1762.728)" fill="#346db6"/>
      <path id="Path_190" data-name="Path 190" d="M1307.689,1845.171c.514,1.007.216,1.631-.73,2.288l-1.464-1.169C1305.995,1845.211,1306.559,1844.732,1307.689,1845.171Z" transform="translate(-1224.762 -1780.17)" fill="#346db6"/>
      <path id="Path_191" data-name="Path 191" d="M1175.98,1807.75l-.01-.564.552.015Z" transform="translate(-1157.799 -1760.615)" fill="#346db6"/>
      <path id="Path_192" data-name="Path 192" d="M1174.969,1808.189l.556.012-.54.537Z" transform="translate(-1157.282 -1761.134)" fill="#346db6"/>
      <path id="Path_193" data-name="Path 193" d="M1173.992,1809.736l.548-.547Z" transform="translate(-1156.777 -1761.651)" fill="#346db6"/>
      <path id="Path_194" data-name="Path 194" d="M1170.956,1812.172l.563.015-.3.267Z" transform="translate(-1155.207 -1763.194)" fill="#346db6"/>
      <path id="Path_195" data-name="Path 195" d="M1166.953,1816.159l.582.007-.29.3Z" transform="translate(-1153.138 -1765.255)" fill="#346db6"/>
      <path id="Path_196" data-name="Path 196" d="M1161,1823.142l.561,0-.285.238Z" transform="translate(-1150.06 -1768.865)" fill="#346db6"/>
      <path id="Path_197" data-name="Path 197" d="M1155.142,1832.251l-.055-.058Z" transform="translate(-1147.003 -1773.544)" fill="#346db6"/>
      <path id="Path_198" data-name="Path 198" d="M1152.009,1834.065l.584.008-.307.324Z" transform="translate(-1145.412 -1774.512)" fill="#346db6"/>
    </g>
  </g>
</svg>
