<svg xmlns="http://www.w3.org/2000/svg" width="117.656" height="73" viewBox="0 0 117.656 73"><defs><style>.a{fill:#fff;}</style></defs><g transform="translate(350.176 -164.073)"><g transform="translate(-337.299 164.073)"><g transform="translate(0 15.288)"><path class="a" d="M-308.1,197.315a13.077,13.077,0,0,0-3.189-1.816h6.346l-.1-3.009a12.949,12.949,0,0,0-5.205-10.506,18.117,18.117,0,0,0-11.023-3.431c-5.068,0-9.048,1.278-11.836,3.769a12.645,12.645,0,0,0-4.329,9.766c0,5.406,2.555,8.288,4.688,9.745a12.769,12.769,0,0,0,2.354,1.246h-7.591v2.9a12.879,12.879,0,0,0,4.952,10.632c3.083,2.428,7.243,3.664,12.374,3.664,5.079,0,9.143-1.278,12.079-3.78a12.632,12.632,0,0,0,4.625-9.956A11.272,11.272,0,0,0-308.1,197.315Zm-1.679,17.78c-2.587,2.207-6.251,3.336-10.875,3.336-4.709,0-8.478-1.1-11.223-3.263a11.086,11.086,0,0,1-4.255-9.186v-1.056h8.763l.127.908a6.039,6.039,0,0,0,1.056,2.967c.961,1.14,2.735,1.721,5.258,1.721a12.111,12.111,0,0,0,3.822-.5,2.912,2.912,0,0,0,2.333-2.956,1.851,1.851,0,0,0-.992-1.71,15.276,15.276,0,0,0-4.392-1.457l-3.685-.813c-3.8-.834-6.356-1.742-7.845-2.766-2.587-1.774-3.9-4.54-3.9-8.235a10.863,10.863,0,0,1,3.716-8.383c2.439-2.2,6-3.3,10.6-3.3a16.259,16.259,0,0,1,9.914,3.062,11.192,11.192,0,0,1,4.466,9.091l.032,1.1h-8.922l-.053-.992A3.811,3.811,0,0,0-318,189.175a8.357,8.357,0,0,0-3.759-.75,7.069,7.069,0,0,0-3.917.94,2.455,2.455,0,0,0-1.2,2.217,1.881,1.881,0,0,0,1.1,1.795,19.6,19.6,0,0,0,4.266,1.309l5.976,1.4a15.949,15.949,0,0,1,6.293,2.671,9.365,9.365,0,0,1,3.453,7.781A10.828,10.828,0,0,1-309.779,215.1Zm-15.774-10.506c.422.106.855.211,1.309.306l3.706.813a13.457,13.457,0,0,1,3.8,1.225c.106.063.137.106.116.137,0,.443,0,.824-1.088,1.2a10.02,10.02,0,0,1-3.22.4c-1.9,0-3.263-.38-3.843-1.066a4.264,4.264,0,0,1-.644-2.027Zm7.929-10.886-3.484-.824a16.768,16.768,0,0,1-3.79-1.13.984.984,0,0,0-.137-.074v-.1a.64.64,0,0,1,.37-.676,5.433,5.433,0,0,1,2.9-.633,6.62,6.62,0,0,1,2.925.549,2.009,2.009,0,0,1,1.161,1.953Z" transform="translate(337.98 -178.553)"/><path class="a" d="M-307.008,206.39a9.764,9.764,0,0,1-3.611,7.75q-3.611,3.072-10.189,3.083c-4.487,0-8-1.014-10.579-3.041a10.049,10.049,0,0,1-3.843-8.352h6.789a6.928,6.928,0,0,0,1.3,3.495c1.172,1.394,3.2,2.1,6.06,2.1a13,13,0,0,0,4.171-.56,3.955,3.955,0,0,0,3.041-3.949,2.909,2.909,0,0,0-1.489-2.608,16.142,16.142,0,0,0-4.73-1.594l-3.685-.8q-5.432-1.2-7.465-2.618c-2.291-1.563-3.442-4.023-3.442-7.359a9.774,9.774,0,0,1,3.368-7.6q3.373-3.025,9.893-3.03a15.1,15.1,0,0,1,9.291,2.861,10.132,10.132,0,0,1,4.033,8.278h-6.842a4.875,4.875,0,0,0-2.745-4.371,9.361,9.361,0,0,0-4.234-.855,8.058,8.058,0,0,0-4.5,1.109,3.517,3.517,0,0,0-1.679,3.1,2.924,2.924,0,0,0,1.647,2.724,20.92,20.92,0,0,0,4.53,1.4l5.976,1.4a15.156,15.156,0,0,1,5.881,2.481A8.326,8.326,0,0,1-307.008,206.39Z" transform="translate(338.134 -178.399)"/></g><g transform="translate(60.552 16.281)"><path class="a" d="M-267.865,207.42v-2.946h16.534v-11.72h-16.534v-1.425h18.012V179.493H-280.63v39.858h31.612V207.42Zm17,10.083h-27.916V181.341H-251.7v8.14h-18.012V194.6h16.534v8.024h-16.534v6.641h18.847Z" transform="translate(280.63 -179.493)"/><path class="a" d="M-252.076,210.17v6.124h-25.8V182.243h24.97v6.029h-18.012V195.5h16.534v5.913h-16.534v8.753Z" transform="translate(280.784 -179.339)"/></g><path class="a" d="M-316.85,164.073V179h14.929v40.554h16.46V179h15.141V164.073Zm44.651,13.113h-15.1v40.375h-12.871V177.186h-15.1V165.826H-272.2Z" transform="translate(339.16 -164.073)"/><g transform="translate(24.949 2.809)"><path class="a" d="M-273.394,166.733v9.249h-15.1v40.375h-10.759V175.982h-15.1v-9.249Z" transform="translate(314.35 -166.733)"/></g></g><g transform="translate(-350.176 225.577)"><path class="a" d="M-342.844,230.876a3.959,3.959,0,0,1-2.975,1.06,3.963,3.963,0,0,1-2.976-1.06,4.9,4.9,0,0,1-1.38-3.746,4.806,4.806,0,0,1,1.38-3.746,3.967,3.967,0,0,1,2.976-1.059,3.963,3.963,0,0,1,2.975,1.059,4.815,4.815,0,0,1,1.375,3.746A4.908,4.908,0,0,1-342.844,230.876Zm-1.186-1.379a3.723,3.723,0,0,0,.662-2.367,3.715,3.715,0,0,0-.662-2.362,2.166,2.166,0,0,0-1.79-.835,2.194,2.194,0,0,0-1.8.832,3.677,3.677,0,0,0-.672,2.365,3.685,3.685,0,0,0,.672,2.367,2.193,2.193,0,0,0,1.8.831A2.168,2.168,0,0,0-344.03,229.5Z" transform="translate(350.176 -222.325)"/><path class="a" d="M-338.8,231.669h-1.885v-9.082h1.885Z" transform="translate(350.706 -222.31)"/><path class="a" d="M-337.191,222.587h1.9v7.45h4.535v1.632h-6.432Z" transform="translate(350.901 -222.31)"/><path class="a" d="M-325.844,223.545a3.739,3.739,0,0,1,2.792-1.121,3.76,3.76,0,0,1,3.315,1.5,3.27,3.27,0,0,1,.622,1.694h-1.9a2.565,2.565,0,0,0-.466-.985,1.87,1.87,0,0,0-1.5-.592,1.853,1.853,0,0,0-1.6.835,4.08,4.08,0,0,0-.585,2.364,3.583,3.583,0,0,0,.618,2.289,1.937,1.937,0,0,0,1.57.76,1.78,1.78,0,0,0,1.489-.654,2.889,2.889,0,0,0,.47-1.054h1.886A4.1,4.1,0,0,1-320.38,231a3.629,3.629,0,0,1-2.569.93A3.855,3.855,0,0,1-326,230.674a5.07,5.07,0,0,1-1.11-3.463A5.018,5.018,0,0,1-325.844,223.545Z" transform="translate(351.464 -222.319)"/><path class="a" d="M-311.068,230.876a3.959,3.959,0,0,1-2.975,1.06,3.959,3.959,0,0,1-2.975-1.06,4.9,4.9,0,0,1-1.381-3.746,4.8,4.8,0,0,1,1.381-3.746,3.963,3.963,0,0,1,2.975-1.059,3.963,3.963,0,0,1,2.975,1.059,4.815,4.815,0,0,1,1.375,3.746A4.908,4.908,0,0,1-311.068,230.876Zm-1.186-1.379a3.723,3.723,0,0,0,.663-2.367,3.715,3.715,0,0,0-.663-2.362,2.164,2.164,0,0,0-1.79-.835,2.194,2.194,0,0,0-1.8.832,3.677,3.677,0,0,0-.672,2.365,3.685,3.685,0,0,0,.672,2.367,2.193,2.193,0,0,0,1.8.831A2.167,2.167,0,0,0-312.254,229.5Z" transform="translate(351.95 -222.325)"/><path class="a" d="M-302.733,222.587H-300v9.082h-1.768v-6.143c0-.177,0-.424.006-.743s.006-.563.006-.736l-1.721,7.622h-1.845l-1.708-7.622c0,.173,0,.419.005.736s.006.566.006.743v6.143h-1.767v-9.082h2.761l1.652,7.142Z" transform="translate(352.487 -222.31)"/><path class="a" d="M-292.686,227.738a3.462,3.462,0,0,1-2.277.665h-1.891v3.266h-1.885v-9.082h3.9a3.149,3.149,0,0,1,2.15.7,2.748,2.748,0,0,1,.8,2.176A2.819,2.819,0,0,1-292.686,227.738Zm-1.449-3.271a1.524,1.524,0,0,0-1.009-.3h-1.71v2.674h1.71a1.449,1.449,0,0,0,1.009-.326,1.332,1.332,0,0,0,.361-1.035A1.249,1.249,0,0,0-294.135,224.467Z" transform="translate(353.048 -222.31)"/><path class="a" d="M-289.035,222.587h2.147l3.213,9.082h-2.058l-.6-1.868h-3.345l-.616,1.868h-1.985Zm-.126,5.651h2.326l-1.148-3.574Z" transform="translate(353.409 -222.31)"/><path class="a" d="M-283.041,222.587h1.989l3.606,6.333v-6.333h1.767v9.082h-1.9l-3.7-6.444v6.444h-1.768Z" transform="translate(353.924 -222.31)"/><path class="a" d="M-269.137,222.587h2.151l-3.038,5.676v3.406h-1.9v-3.406l-3.142-5.676h2.237l1.885,3.955Z" transform="translate(354.37 -222.31)"/><path class="a" d="M-267.909,232.747a1.37,1.37,0,0,0,.779-.493,1.814,1.814,0,0,0,.287-.967h-1.066v-1.842h1.9v1.594a3.766,3.766,0,0,1-.111.876,1.775,1.775,0,0,1-.414.789,2.121,2.121,0,0,1-.767.538,1.945,1.945,0,0,1-.607.182Z" transform="translate(354.769 -221.928)"/><path class="a" d="M-259.259,231.669h-1.885v-9.082h1.885Z" transform="translate(355.147 -222.31)"/><path class="a" d="M-257.683,222.587h1.989l3.6,6.333v-6.333h1.768v9.082h-1.9l-3.7-6.444v6.444h-1.767Z" transform="translate(355.34 -222.31)"/><path class="a" d="M-248.111,223.545a3.739,3.739,0,0,1,2.792-1.121,3.76,3.76,0,0,1,3.315,1.5,3.271,3.271,0,0,1,.622,1.694h-1.9a2.565,2.565,0,0,0-.466-.985,1.87,1.87,0,0,0-1.5-.592,1.853,1.853,0,0,0-1.6.835,4.08,4.08,0,0,0-.585,2.364,3.583,3.583,0,0,0,.618,2.289,1.936,1.936,0,0,0,1.57.76,1.781,1.781,0,0,0,1.489-.654,2.889,2.889,0,0,0,.47-1.054h1.886A4.1,4.1,0,0,1-242.647,231a3.629,3.629,0,0,1-2.569.93,3.855,3.855,0,0,1-3.048-1.256,5.071,5.071,0,0,1-1.11-3.463A5.018,5.018,0,0,1-248.111,223.545Z" transform="translate(355.804 -222.319)"/><path class="a" d="M-240.509,229.444h1.866v1.842h-1.866Z" transform="translate(356.299 -221.928)"/></g></g></svg>