<svg xmlns="http://www.w3.org/2000/svg" width="694.775" height="269.579" viewBox="0 0 694.775 269.579">
  <g id="Group_169" data-name="Group 169" transform="translate(-677.086 -895.421)">
    <g id="Group_156" data-name="Group 156" transform="translate(841.83 -1327.906)">
      <g id="Group_155" data-name="Group 155" transform="translate(-164.744 2223.328)">
        <path id="Path_219" data-name="Path 219" d="M502.866,2382.8c.62-2.016-.044-3.633-.278-5.465l1.193-1.072a7.364,7.364,0,0,1,4.743.61c2.175.827,4.278,1.832,6.367,2.86a31.709,31.709,0,0,0,2.939,1.418c1.711.632,3.465,1.144,5.332,1.748l.679,1.214v1.425a14.1,14.1,0,0,1-1.239,1.078,46.808,46.808,0,0,1-9.94,5.142c-2.548,1-5.1,1.987-7.836,3.053l-1.672-.7c-.039-2.111-.076-4.123-.11-6.008-.433-.516-.886-.385-1.287-.406-.675-.035-1.355,0-2.03-.036-2-.115-4,.015-6.019-.281a43.975,43.975,0,0,0-6.086-.093c-2.031-.01-4.063-.025-6.094-.024-2.116,0-4.235.087-6.348.005s-4.151.5-6.264.405c-2.194-.1-4.4.034-6.6.065a58.782,58.782,0,0,0-6.342.136c-2.263.278-4.517.245-6.777.3-2.2.055-4.4.176-6.6.087-1.778-.072-3.478.468-5.247.413s-3.554.036-5.331.064-3.571-.075-5.328.127a58.051,58.051,0,0,1-6.011.333c-2.031.023-4.062.085-6.093.119a39.441,39.441,0,0,1-3.977.383,37.469,37.469,0,0,0-3.806.063,30.335,30.335,0,0,0-4.056.114,41.276,41.276,0,0,1-5.507.337,49.371,49.371,0,0,0-5.579.164,56.465,56.465,0,0,1-6.012.352c-2.031.06-4.063.071-6.093.122-1.5.038-2.957.479-4.486.373-1.429-.1-2.875.035-4.314.063a36.586,36.586,0,0,0-4.565.122,65.869,65.869,0,0,1-7.792.346c-2.537.074-5.088-.059-7.615.135-6.314.481-12.65.165-18.956.561-3.785.237-7.565.236-11.346.326-3.808.091-7.634-.128-11.421.179-4.042.331-8.074.232-12.109.281-4.993.059-9.988.02-14.982-.028a23.111,23.111,0,0,1-2.923-.386c-1.721,1.107-3.413,2.154-5.062,3.264a49.86,49.86,0,0,1-4.911,2.944c-1.258.651-2.435,1.464-3.714,2.066-2.932,1.379-5.875,2.74-8.9,3.9-2.017.773-4.04,1.514-6.107,2.148-1.271.39-2.565.692-3.833,1.093a21.983,21.983,0,0,1-3.864.889,31.515,31.515,0,0,0-3.4.767c-1.128.272-2.29.294-3.436.553a34.263,34.263,0,0,1-5.478.557c-1.773.106-3.553.138-5.33.134-2.708-.006-5.418-.137-8.124-.081-1.2.025-2.3-.371-3.46-.455a14.056,14.056,0,0,1-3.219-.4c-1.1-.339-2.295-.3-3.446-.556-1.212-.264-2.426-.561-3.65-.793-1.143-.217-2.265-.555-3.39-.867-1.2-.332-2.405-.628-3.567-1.054a101.906,101.906,0,0,1-10.849-4.384c-7.155-3.6-8.1-4.006-14.088-8.065a3.414,3.414,0,0,0-.6-.235l-1.219.505c-4.873,0-9.715.251-14.517-.074-4.462-.3-8.935-.079-13.37-.493-2.939-.274-5.891-.144-8.8-.5-2.261-.279-4.541-.167-6.762-.506-1.839-.282-3.691-.192-5.5-.494-1.749-.292-3.529-.2-5.234-.524-1.492-.284-3.02-.151-4.453-.538s-2.877-.134-4.246-.458c-1.158-.275-2.331-.256-3.456-.5-1.154-.253-2.308-.331-3.464-.487-1.725-.233-3.424-.665-5.151-.875s-3.431-.707-5.149-.9c-2.5-.281-4.9-1.059-7.413-1.264a23.559,23.559,0,0,1-2.687-.5,11.321,11.321,0,0,1-2.408-.554,9.017,9.017,0,0,0-2.212-.449c-.734-.138-1.459-.324-2.185-.5-1.682-.41-3.357-.855-5.046-1.237a121.114,121.114,0,0,1-15.742-4.775,5.505,5.505,0,0,0-1.133-.145c-.391.318-.826.7-1.284,1.041s-.97.653-1.429,1.012a42.221,42.221,0,0,1-14.913,7.31,34.669,34.669,0,0,1-12.759.8,25.416,25.416,0,0,1-8.359-2.274,45.818,45.818,0,0,1-6.954-3.938c-.622-.435-1.2-.9-1.785-1.376-.648-.528-1.342-1-1.959-1.565a25.083,25.083,0,0,1-1.745-1.822c-.39-.435-.722-.921-1.1-1.365-.266-.308-.571-.582-.776-.788-.251,0-.362-.035-.416.005-.8.61-1.63,1.186-2.375,1.856a74.6,74.6,0,0,1-10.875,7.678c-1.2.742-2.464,1.381-3.664,2.125-.71.44-1.3,1.083-2.028,1.481-2.489,1.362-4.818,2.985-7.261,4.424a82.037,82.037,0,0,1-8.076,3.9,52.346,52.346,0,0,1-7.073,2.407c-1.122.323-2.269.558-3.392.878-1.046.3-2.157.052-3.205.545a5.092,5.092,0,0,1-2,.113c-1.862.013-3.724.038-5.586.006a25.651,25.651,0,0,1-8.468-1.908,29.452,29.452,0,0,1-10.151-6.759c-.669-.642-1.263-1.364-1.836-1.988-2.078-.092-4.008.188-5.764-.63a5.925,5.925,0,0,0-.444,2.439c-.12.652-.318,1.289-.438,1.941a13.351,13.351,0,0,1-4.917,8.459,27.787,27.787,0,0,1-3.617,2.033c-1.687,0-3.459-.027-5.229.01a7.406,7.406,0,0,1-2.91-.636,20.089,20.089,0,0,1-5.617-3.231c-.573-.489-1.2-.916-1.791-1.382a16.112,16.112,0,0,1-2.69-3.309,15.941,15.941,0,0,1-2.711-6.9,7.706,7.706,0,0,1,.04-4.139,2.034,2.034,0,0,0-.034-.631,5.186,5.186,0,0,0-.878-.181,6.589,6.589,0,0,1-2.016-.052c-1.293-.516-2.663-.217-3.947-.582a50.794,50.794,0,0,1-5.025-1.518,4.041,4.041,0,0,0-3.353.09,50.22,50.22,0,0,1-5.654,1.94,31.309,31.309,0,0,0-4.33,1.107c-1.606-.1-3.116.627-4.716.556-2.106-.093-4.159.492-6.259.456a10.366,10.366,0,0,1-3.477-.3,4.633,4.633,0,0,0-1.384-.021c-.74,1.14-1.406,2.46-3.529,2.869H-161.3a4.988,4.988,0,0,1-3.41-3.636v-1.923a5.165,5.165,0,0,1,3.333-3.319,6.216,6.216,0,0,1,3.233.528c1.186.6,1.569,1.853,2.17,3.01,1.941-.181,3.891.25,5.759-.521a1.828,1.828,0,0,1,.755.011c2.034.146,4-.414,5.995-.6a44.2,44.2,0,0,0,5.809-1.328,19.984,19.984,0,0,0,3.8-1.175,8.139,8.139,0,0,0,1.041-.683,11.918,11.918,0,0,1-4.542-5.448c-.028-.472-.082-.978-.082-1.485s.054-1.013.082-1.491c1.192-3.208,3.577-5.229,6.454-6.815a20.022,20.022,0,0,1,7.295-2.39,9.28,9.28,0,0,1,2.442-.439,19.56,19.56,0,0,0,2.514.023c2.158.615,4.2,1.378,5,4.09v1.412c-.321.716-.577,1.433-.946,2.087a17.437,17.437,0,0,1-2.767,3.877,42.146,42.146,0,0,1-7.392,6.434c.256.27.4.552.6.612a12.953,12.953,0,0,0,2.662.639c2.418.172,4.81.8,7.416.422a4.5,4.5,0,0,0,.736-.837,23.7,23.7,0,0,1,8.238-8.3c1.974-1.3,4.115-2.236,6.165-3.361,1.162-.637,2.4-1.134,3.617-1.7-.211-1.341-1.307-2.111-1.93-3.162a21.64,21.64,0,0,0-2-2.571c-1.7-2.08-3.458-4.115-5.107-6.235-1.022-1.313-1.884-2.75-2.9-4.258a4.976,4.976,0,0,0-1.375.118,57.783,57.783,0,0,1-8.7,2.039c-1.882.372-3.789.4-5.672.768a40.554,40.554,0,0,1-5.823.23c-1.159.055-2.311.27-3.47.327-1.182.058-2.373-.047-3.555.025-1.52.092-2.962-.467-4.485-.4a15.468,15.468,0,0,1-4.549-.175c-1.626-.428-3.288-.368-4.914-.779-1.506-.381-3.043-.77-4.577-1-1.53,1.978-1.993,2.141-5.346,1.9l-1.55-.79a6.957,6.957,0,0,1-1.447-2.913c-.241-1.068.068-1.77,1.444-4.009a5.449,5.449,0,0,1,6.217.079l1.536,3.033a10.45,10.45,0,0,0,4.315.705,7.773,7.773,0,0,0,3.708.476c1.2-.037,2.284.439,3.466.436,3.385-.01,6.771.052,10.156.084.339,0,.677-.028,1.015-.013a70.4,70.4,0,0,0,8.79-.631,21.021,21.021,0,0,0,3.7-.51c1.206-.317,2.455-.33,3.651-.772a27.462,27.462,0,0,1,3.668-.722,19.587,19.587,0,0,0,1.982-.655c-.507-1.806-1.26-3.544-1.589-5.41a12.872,12.872,0,0,1,.02-4.168c.521-3.542,2.932-5.238,5.953-6.433a13.77,13.77,0,0,1,3.866-.645c-1-1.62-2.627-2.5-3.228-4.186-1.363.287-2.507.512-3.645.767a13.652,13.652,0,0,1-5.419.083,22.517,22.517,0,0,1-6.423-1.946c-1.955-.955-3.882-1.953-5.766-3.059-3.171-1.863-6.113-4.08-9.314-5.889a42.8,42.8,0,0,0-7.654-3.678,11.608,11.608,0,0,0-4.146-.75,10.886,10.886,0,0,0-6.826,2.691c-.443.393-.855.821-1.229,1.181-.744,2.631-.941,2.885-3.165,4.084h-2.187a8.964,8.964,0,0,1-1.341-.695,17.646,17.646,0,0,1-1.4-1.258l-.6-2.653,1.031-2.69a4.551,4.551,0,0,1,.593-.535c3.231-1.741,2.89-1.264,5.527-.042.454.211.826.564,1.376.457a18.88,18.88,0,0,1,5.529-2.819,5.829,5.829,0,0,1,1.2-.273,17.628,17.628,0,0,1,7.919.917,45.036,45.036,0,0,1,5.406,2.461c3.427,1.917,6.665,4.122,10,6.179a39.017,39.017,0,0,0,8.9,4.4,16.315,16.315,0,0,0,6.943.716,18.591,18.591,0,0,0,2.225-.612c-1.294-2.245-2.564-4.453-3.835-6.661-.249-.431-.51-.855-.743-1.294-1.683-3.165-3.308-6.363-5.053-9.493a64.31,64.31,0,0,0-6.9-10.418,14.883,14.883,0,0,0-3.3-3.1c-.986-.626-1.748-1.543-2.757-2.191a35.9,35.9,0,0,0-12.275-5.287,32.452,32.452,0,0,0-10.3-.542c-1.061.132-2.1.457-3.2.706a6.538,6.538,0,0,0-.723,1.576,4.551,4.551,0,0,1-3.223,3.727h-1.838c-1.237-.142-2.473-1.3-3.483-3.2-.419-1.332.29-2.386.476-3.52,1.381-1.937,3.341-2.064,5.533-1.712l1.321.949a2.99,2.99,0,0,0,.8-.01c.953-.294,1.876-.7,2.842-.927a26.287,26.287,0,0,0,2.967-.457,8.527,8.527,0,0,1,3.021-.045,10.74,10.74,0,0,1,2.97.281c1.09.349,2.294.3,3.448.57a48.43,48.43,0,0,1,7.533,2.468,44.265,44.265,0,0,1,5.94,3.249,29.713,29.713,0,0,1,3.9,3.161,43.267,43.267,0,0,1,6.755,8.428c1.19,1.808,2.271,3.679,3.322,5.578,1.934,3.5,3.76,7.053,5.784,10.5,1.26,2.146,2.589,4.251,3.905,6.4a4.382,4.382,0,0,0,1.061-.278,88.57,88.57,0,0,0,9.259-5.886c1.263-.964,2.547-1.9,3.787-2.9q2.452-1.968,4.839-4.012a20.551,20.551,0,0,0,1.958-1.986,2.983,2.983,0,0,0,.348-.968c-.577-.32-1.076-.6-1.583-.874a17.736,17.736,0,0,1-4.817-3.565,20.5,20.5,0,0,1-4.354-8.062,24.845,24.845,0,0,1,.314-6.515,23.531,23.531,0,0,1,1.9-4.6,13.353,13.353,0,0,1,2.429-3.5c.653-.663,1.312-1.32,1.956-1.991a13.35,13.35,0,0,1,5.8-3.348,7.09,7.09,0,0,1,1.947-.335c1.081-.037,2.163-.024,3.393-.034-.194-.348-.253-.6-.413-.719-1.695-1.218-3.374-2.462-5.121-3.6-1.825-1.19-3.53-2.541-5.273-3.837-1.95-1.45-3.808-3.031-5.643-4.625a7.691,7.691,0,0,1-2.007-2.255,3.854,3.854,0,0,0-.837-.854c-1.313.084-2.18,1.1-3.37,1.18-2.675,1.2-5.564,1.648-8.373,2.366-.968.246-2.058.037-3.011.317a10.008,10.008,0,0,1-2.985.167c-1.158-.007-2.279-.414-3.463-.417a12.092,12.092,0,0,1-3.217-.38c-1.105-.3-2.3-.257-3.446-.567-1.124-.3-2.3-.388-3.45-.62-1.548-.313-3.038-.842-4.622-1.058a24.542,24.542,0,0,1-4.556-1.136c-1.118-.381-2.354-.143-3.4-.775-2.734-.3-5.38-1.264-8.176-1.109-2.566-.7-5.182-.339-7.778-.374a2.643,2.643,0,0,0-2.044.744,4.519,4.519,0,0,1-2.727,2.2c-3.114.032-3.941-.469-5.441-3.373v-2c.084-1.187,1.342-2.537,3.354-3.564h2.02a4.873,4.873,0,0,1,3.192,2.943,16.513,16.513,0,0,1,5.022-.406,31.374,31.374,0,0,1,4.815.059,29.353,29.353,0,0,0,4.224.447c1.271.747,2.83.187,4.106.9,1.944.021,3.734.814,5.622,1.135,1.868.318,3.691.94,5.545,1.316a36.714,36.714,0,0,0,3.929.748,34.035,34.035,0,0,1,3.863.844c1.224.26,2.477.085,3.729.4a14.176,14.176,0,0,0,3.785.143,10.456,10.456,0,0,0,2.758-.233,23.406,23.406,0,0,1,2.729-.311,27.389,27.389,0,0,0,2.668-.635c.876-.24,1.742-.516,2.608-.792s1.745-.566,2.607-.873a10.243,10.243,0,0,0,1-.485l-2.039-4.312c.173-.939-.456-2-.509-3.173-.054-1.193.648-2.265.465-3.4a36.3,36.3,0,0,1,2.5-4.416,11.133,11.133,0,0,1,3.634-2.987c.432-.251.914-.418,1.493-.678h2.434l2.508,1.25a12.439,12.439,0,0,1,2.223,4.117,11.56,11.56,0,0,1-.026,5.421,12.731,12.731,0,0,1-2.006,4.529,18.947,18.947,0,0,1-3.833,3.923c-.477.339-.91.738-1.337,1.086a2.973,2.973,0,0,0,1.236,1.883c1.705,1.105,2.968,2.7,4.607,3.905,3.234,2.372,6.575,4.583,9.828,6.921,2.709,1.947,5.525,3.743,8.148,5.815,1.705,1.346,3.537,2.533,5.256,3.864,1.326,1.024,2.58,2.144,3.842,3.251a90.919,90.919,0,0,1,7.769,7.285c1.338-.792,1.806-2.261,2.918-3.138s2.156-1.874,3.238-2.806a23.924,23.924,0,0,1,3.291-2.72c1.226-.726,2.325-1.665,3.553-2.385s2.529-1.271,3.892-1.943a12.3,12.3,0,0,0-.471-1.739c-.468-1.076-1.025-2.114-1.529-3.176a80.3,80.3,0,0,1-4.57-11.808A36.277,36.277,0,0,1-42,2252.961a35.871,35.871,0,0,1-.41-3.979c0-1.945-.051-3.9.113-5.833a19.3,19.3,0,0,1,1.47-5.521,18.2,18.2,0,0,1,4.116-6.521,18.429,18.429,0,0,1,7.621-4.2,9.285,9.285,0,0,1,2.179-.462,20.444,20.444,0,0,1,4.058.007,21.578,21.578,0,0,1,11.417,5.253,21.9,21.9,0,0,1,4.324,5.545,13.578,13.578,0,0,1,1.729,5.646,21.9,21.9,0,0,1-2.229,10.679,70.671,70.671,0,0,1-5.972,10.407,44.667,44.667,0,0,1-6.2,6.981c-.6.585-1.213,1.161-1.888,1.806.844.74,1.814.19,2.643.559.731.325,1.709.067,2.482.336a9.036,9.036,0,0,0,2.826.486c.311-.627.627-1.287.966-1.934a19.263,19.263,0,0,1,2.553-3.7,31.959,31.959,0,0,1,8.8-7.059c4.667-2.566,9.707-4.277,14.7-6.085,1.372,0,2.555-.7,3.837-1.026s2.574-.666,3.86-.965,2.586-.613,3.867-.966c.156-.043.317-.068.475-.1.9-.168,1.789-.346,2.687-.5,1.065-.183,2.135-.344,3.2-.521.986-.163,2.043.111,2.96-.5.113-.076.33,0,.5.006,2.693.076,5.328-.639,8.032-.543s5.417-.016,8.125.044a19.1,19.1,0,0,1,4.241.281,20.622,20.622,0,0,0,4.3.2,7.687,7.687,0,0,1,2.271.042c1.732.622,3.506.384,5.253.448,1.511.054,2.951.555,4.48.47a17.456,17.456,0,0,1,4.306.107c3.179.63,6.379.314,9.564.488,1.243.068,2.48.255,3.723.315,1.267.063,2.54.048,3.809.048q21.585,0,43.171-.017c.085,0,.169-.006.254-.006,1.186-.005,2.37,0,3.556-.015a15.174,15.174,0,0,0,3.531-.123,15.089,15.089,0,0,1,3.238-.2c1.182-.055,2.37-.012,3.555-.012s2.37-.006,3.556,0a4.116,4.116,0,0,1,2.657.456c.812-.782,1.561-1.466,2.267-2.191a91.285,91.285,0,0,1,16-12.617,99.565,99.565,0,0,1,11.657-6.258,30.4,30.4,0,0,0,3.846-1.756c3.048-.82,5.964-2.064,9-2.888,1.825-.5,3.676-.958,5.55-1.314a23.768,23.768,0,0,0,3.651-.764c1.162-.414,2.527.09,3.676-.618.059-.037.166,0,.251.006,2.529.137,5-.526,7.525-.542,1.665-.01,3.372.205,4.994-.465a2.906,2.906,0,0,1,1.008,0c1.863,0,3.726-.045,5.587.019a34.628,34.628,0,0,1,3.463.386c1.153.158,2.363-.148,3.462.429a34.723,34.723,0,0,1,6.394,1.14,69.878,69.878,0,0,1,10.642,3.311c2.289.975,4.621,1.858,6.854,2.953a89.073,89.073,0,0,1,11.369,6.781c2.263,1.566,4.457,3.236,6.611,4.964a124.43,124.43,0,0,1,11.172,10.233c.235.24.489.462.785.742h2.492q19.3-.018,38.6-.041c7.363-.016,14.728-.1,22.092-.094,1.182,0,2.281-.394,3.467-.411,1.358-.019,2.623.429,3.976.416,4.485-.045,8.972.027,13.459.061,2.116.017,4.233.018,6.347.1,1.073.039,2.138.27,3.212.348,1.012.074,2.03.067,3.046.088a16.6,16.6,0,0,1,3.292.088c2.416.548,4.858.3,7.28.486.822.063,1.631.274,2.453.35.842.077,1.691.078,2.537.1a10.969,10.969,0,0,1,2.529.074c1.9.522,3.853.238,5.75.515a39.709,39.709,0,0,0,6,.464c1.614.62,3.349.239,4.973.555a47.269,47.269,0,0,0,8.8.464c2.962.021,5.924-.087,8.887-.109,1.174-.01,2.267-.475,3.465-.457a6.641,6.641,0,0,0,3.468-.452c.128-.071.333,0,.5,0a43.892,43.892,0,0,0,6.238-.688c1.832-.218,3.684-.2,5.488-.5a32.712,32.712,0,0,1,5.249-.368c1.693-.009,3.385.029,5.079.043.253,0,.558-.106.753,0,1.31.7,2.793.28,4.167.695,1.344.4,2.808.366,4.169.792,1.819.57,3.7.874,5.551,1.3a32.257,32.257,0,0,0,4.206.6c1.761.166,3.55.036,5.328.034a5.46,5.46,0,0,1,2.693-.405c1.848-.035,3.629-.637,5.492-.575,1.763.06,3.529.014,5.265.014a12.829,12.829,0,0,0-.148-6.22l1.2-1.39h1.92c3.212,2.719,7.144,4.172,11.095,5.528a56.181,56.181,0,0,1,6.361,2.794,3.471,3.471,0,0,1,.544.384c.175,1.082.4,2-.539,2.685a81.6,81.6,0,0,0-10.424,4.178c-3.286,1.595-6.344,3.6-9.517,5.317l-1.031-.759a7.585,7.585,0,0,1-.279-4.836,9.983,9.983,0,0,0,.049-2.929,4.684,4.684,0,0,0-1.045-.2,30.016,30.016,0,0,0-5.048.215c-1.641.311-3.377-.141-4.932.678-1.607.033-3.216.118-4.822.085-1.587-.032-3.207.226-4.742-.422a26.342,26.342,0,0,1-5.881-1.157c-1.851-.456-3.756-.686-5.567-1.314a3.993,3.993,0,0,0-.743-.143,34.679,34.679,0,0,0-3.963-.508c-3.214-.064-6.431,0-9.647.01-1.171,0-2.265.479-3.464.451a6.712,6.712,0,0,0-3.466.445c-.129.069-.333-.012-.5,0a28.806,28.806,0,0,0-4.035.322,29.336,29.336,0,0,1-4,.3,121.119,121.119,0,0,1-17.932.38c-1.244-.051-2.482-.266-3.722-.412s-2.525.119-3.715-.443a.594.594,0,0,0-.252-.015c-2.363.08-4.659-.61-7.017-.6a9.55,9.55,0,0,1-2.743-.189,12.879,12.879,0,0,0-2.751-.275,17.729,17.729,0,0,1-2.783-.119c-1.989-.5-4.035-.186-6-.525-2.343-.4-4.712-.164-7.018-.513-2.852-.431-5.724-.153-8.546-.5-4.2-.517-8.429-.132-12.608-.522-5.311-.5-10.613-.247-15.918-.314-5.332-.07-10.666,0-16,.01s-10.666.048-16,.009c-1.1-.009-2.109.448-3.215.367a40.349,40.349,0,0,0-5.247-.368c-1.686.1-3.384.006-5.077-.008q-2.666-.023-5.332-.057c-1.694-.024-3.387-.025-5.078-.1-.736-.033-1.461-.271-2.2-.337-.665-.06-1.339-.013-2.007-.013-.3.432.11.607.283.8a120.135,120.135,0,0,1,12.657,16.883,49.334,49.334,0,0,1,4.181,7.9,55.941,55.941,0,0,0,2.558,5.857,7.721,7.721,0,0,0,3.109-.238,3.078,3.078,0,0,1,.97-.122c1.776-.042,3.554-.073,5.331-.1a23,23,0,0,0,4.052-.12,24.707,24.707,0,0,1,3.983-.293,33.266,33.266,0,0,0,4.056-.151,46.032,46.032,0,0,1,6.765-.489q3.3-.051,6.6-.025c2.284.022,4.569.109,6.854.14,2.77.037,5.5.73,8.283.518,2.215.7,4.536.2,6.756.566a55.774,55.774,0,0,0,7.788.4c2.538.064,5.079.05,7.619.044q31.363-.071,62.727-.146c7.026-.01,14.052.085,21.077.108,2.878.009,5.757-.01,8.634-.091,1.5-.041,2.986-.274,4.483-.361a36.628,36.628,0,0,0,4.56-.2,44.939,44.939,0,0,1,7.028-.373c2.282-.069,4.571-.03,6.855.022a16.468,16.468,0,0,1,4.485.373,9.019,9.019,0,0,0,2.154.134c.938-1.763.609-3.555.783-5.442l.676-.549c1.316.5,2.7.744,4.018,1.214,2.2.782,4.338,1.688,6.489,2.571,2.687,1.1,5.339,2.293,8,3.469a15.294,15.294,0,0,1,1.5.872c.038.5.069.915.1,1.371-.235.251-.417.609-.694.714-3.115,1.173-6.06,2.74-9.176,3.921-1.394.528-2.739,1.222-4.127,1.79a16.415,16.415,0,0,1-4.566,1.124l-1.244,1.062-1.739-.64c-.1-.238-.232-.391-.225-.537a16.411,16.411,0,0,1,.324-4.237,8.352,8.352,0,0,0,.042-2.416c-.127-.109-.186-.2-.256-.213a85.967,85.967,0,0,0-16.394-.513c-2.514.249-5.043.141-7.529.479-3.521.479-7.052.379-10.579.506a3.214,3.214,0,0,0-1.245.128c-.819.4-1.661.083-2.478.216-1.705-.688-3.5-.371-5.245-.379q-24.378-.11-48.759-.114c-12.274,0-24.548.065-36.823.082-2.877,0-5.755-.05-8.632-.129-.819-.022-1.63-.265-2.451-.346-.757-.074-1.521-.076-2.282-.094a8.053,8.053,0,0,1-2.52-.081,10.824,10.824,0,0,0-3.989-.4c-2.19,0-4.322-.563-6.514-.507-2.115.054-4.232-.03-6.348-.018a60.293,60.293,0,0,0-6.595.153c-1.5.174-2.991.266-4.489.321-1.522.055-3.048.134-4.569.1-1.6-.033-3.124.524-4.74.4-1.514-.118-3.046-.01-4.569.01-1.608.021-3.216.053-4.824.087-.328.007-.655.04-1.024.063a2.224,2.224,0,0,0-.052,1.979c.781,1.956.659,4.1,1.373,6.061a.657.657,0,0,1-.007.252c-.126,1.859.529,3.64.532,5.49s.125,3.722.115,5.582c-.016,3.215-.085,6.43-.155,9.644a10.764,10.764,0,0,1-.259,1.5c.631.009,1.123.027,1.615.024,9.311-.045,18.622-.074,27.934-.153,1.663-.015,3.324-.268,4.989-.342,1.606-.071,3.216-.048,4.824-.074,1.693-.029,3.385-.05,5.078-.108,1.244-.044,2.448-.427,3.721-.359,1.349.074,2.707-.036,4.061-.062,1.269-.023,2.54-.076,3.809-.054,1.425.025,2.784-.5,4.229-.394,1.345.1,2.707-.013,4.061-.028,1.44-.016,2.878-.025,4.317-.041,1.354-.015,2.709-.037,4.063-.05q2.158-.021,4.317-.031c1.354-.005,2.709.014,4.063-.008a2.909,2.909,0,0,0,1.957-.321.8.8,0,0,1,.734-.01c.945.6,1.98.315,2.966.324q13.84.119,27.68.175c1.09.005,2.1.465,3.214.384,1.094-.078,2.2.014,3.3.033s2.2.069,3.3.054c3.62-.048,7.207.527,10.83.529a45.3,45.3,0,0,1,6.776.3,52.238,52.238,0,0,0,6.845.205,21.319,21.319,0,0,1,3.8.057c2.844.574,5.7.29,8.554.408,2.366.1,4.775-.208,7.1.123,3.278.468,6.556.175,9.82.439a25.837,25.837,0,0,1,3.994.243,20.186,20.186,0,0,0,4.042.16c.337.007.674,0,.931,0,.538-.3.457-.755.462-1.157.016-1.438.006-2.877.006-4.335.374-.993.751-1.992,1.079-2.861a7.606,7.606,0,0,1,5.05.335c2.361.78,4.7,1.637,7.04,2.468a41.411,41.411,0,0,1,8.267,4.151,9.539,9.539,0,0,1,1.239,1.082v1.483a18.953,18.953,0,0,1-5.49,4.3,44.122,44.122,0,0,1-9.582,4.289c-1.429.42-2.841.895-4.276,1.292a6.869,6.869,0,0,1-1.513.146c-.335.016-.672-.024-1.036-.041l-.693-.643a27.45,27.45,0,0,1-.582-5.69c-.233-.158-.371-.334-.5-.327-2.443.117-4.835-.507-7.278-.463a53.828,53.828,0,0,1-7.357-.146c-4.119-.493-8.244-.248-12.361-.449a16.607,16.607,0,0,1-2.786-.038c-2.418-.546-4.858-.279-7.285-.394a52.752,52.752,0,0,1-5.326-.126c-3.775-.572-7.566-.292-11.345-.469a3.387,3.387,0,0,1-.507,0c-3.414-.726-6.884-.307-10.323-.513a7.173,7.173,0,0,1-1.266-.008c-2.656-.657-5.364-.29-8.043-.427-1.859-.1-3.756.159-5.578-.121a48.171,48.171,0,0,0-7.286-.346q-20.061-.027-40.122.049c-1.325,0-2.649.262-3.976.33-1.267.063-2.538.027-3.809.044-1.354.019-2.708.05-4.062.074a29.937,29.937,0,0,0-3.8.1,70.829,70.829,0,0,1-8.55.363c-2.793.073-5.586.058-8.379.135-1.073.03-2.141.249-3.216.3-1.1.055-2.2.01-3.3.01l-3.3,0c-1.609,0-3.22-.062-4.825.015-1.685.08-3.3-.468-4.993-.386-1.6.077-3.214-.061-4.822-.089-.93-.017-1.861,0-2.838,0a2.278,2.278,0,0,0-.254.665,38.886,38.886,0,0,1-1.2,6.623,19.515,19.515,0,0,1-1.305,4.791c-.032,1.7-1,3.161-1.236,4.844a21.129,21.129,0,0,1-1.4,3.954c-.916,2.578-1.8,5.17-2.9,7.672a36.137,36.137,0,0,1-1.639,3.9c-.061.106.036.3.059.46.149.05.325.177.441.136a24.193,24.193,0,0,1,7.828-1.393c3.47-.028,6.94,0,10.41.05.734.011,1.461.262,2.2.327.757.068,1.522.059,2.284.058,4.231-.007,8.471.14,12.69-.087,3.017-.162,6.043-.242,9.05-.507,1.664-.147,3.325-.3,5-.356a49.872,49.872,0,0,0,5.073-.153,83.9,83.9,0,0,1,9.566-.385c3.216-.062,6.433-.074,9.649-.061q9.016.04,18.03.142c1.161.012,2.278.439,3.467.376,1.265-.069,2.538,0,3.808.017,1.185.015,2.369.042,3.555.057s2.37.028,3.555.036q1.905.014,3.81.018a25.409,25.409,0,0,1,3.552.023c3.773.546,7.564.279,11.345.368,3.722.088,7.469-.16,11.167.17,4.629.414,9.276.075,13.874.513,4.464.424,8.92.25,13.374.457.99.046,1.97.268,2.959.347.927.074,1.861.066,2.791.092.507.015,1.015.033,1.522.039.847.012,1.694.02,2.539.02.928,0,1.857-.01,2.785-.015.789.721,1.554-.206,2.387-.031a12.51,12.51,0,0,0,2.784.025c.846-.016,1.694-.029,2.537-.1,1.41-.11,2.815-.294,4.226-.386,1.435-.093,2.879-.067,4.313-.181.9-.072,1.782-.308,2.69-.474.663-.89-.225-1.724-.148-2.62a24.056,24.056,0,0,0,.014-2.79c-.026-.921-.1-1.841-.143-2.519.456-1.014,1.233-1.215,2.008-1.571,1.611.764,3.523.987,5.3,1.73,1.683.706,3.392,1.374,5.1,2.028a51.541,51.541,0,0,1,5.165,2.441c1.624.842,3.11,1.947,4.675,2.947v1.577a5.316,5.316,0,0,1-2,1.855,43.7,43.7,0,0,1-10.886,5.049c-2.213.68-4.429,1.354-6.5,1.986-1.417-.324-1.812-1.353-2.243-2.65,0-.147.005-.567,0-.989a9.222,9.222,0,0,0-.051-1.013c-.053-.4.111-.849-.348-1.34a5.231,5.231,0,0,0-1.089,0c-2.661.491-5.37.253-8.032.542a56.73,56.73,0,0,1-5.759.338c-1.862.012-3.724.034-5.587.03a37.2,37.2,0,0,1-4.82-.091,66.327,66.327,0,0,0-8.3-.458c-2.385-.723-4.85-.327-7.273-.526-1.326-.109-2.65-.288-3.978-.364-1.352-.078-2.708-.077-4.062-.1a44.991,44.991,0,0,1-6.32-.142,45.428,45.428,0,0,0-6.036-.271c-3.976-.1-7.972.11-11.928-.2-3.111-.247-6.211-.237-9.314-.311-3.047-.073-6.094-.062-9.142-.087-1.185-.01-2.37,0-3.555-.037-2.934-.093-5.863.021-8.807-.279-2.85-.289-5.749-.1-8.627-.116-2.963-.02-5.925-.049-8.888-.059q-4.317-.014-8.635,0c-2.878.015-5.771-.117-8.629.133-3.1.273-6.225.172-9.3.527-2.6.3-5.215.148-7.784.486a69.779,69.779,0,0,1-8.043.36c-2.708.043-5.419-.081-8.126-.02-1.275.028-2.454-.454-3.724-.422-1.691.044-3.386-.036-5.076-.122-.906-.046-1.8-.216-2.707-.333-1.941-.252-3.826.388-5.752.364a24.977,24.977,0,0,0-8.215,2.093,78.386,78.386,0,0,1-6.359,10.527c-.981,1.355-2.014,2.664-3.062,3.967a104.734,104.734,0,0,1-8.2,8.61,14.483,14.483,0,0,1-2.469,2.151,10.909,10.909,0,0,0-1.474,1.305c.188.695.673.505,1.019.5q8.125-.041,16.251-.118a20.846,20.846,0,0,0,3.549-.072c2.843-.522,5.7-.224,8.55-.349,2.283-.1,4.6.125,6.847-.187,2.267-.314,4.52-.212,6.777-.308,2.282-.1,4.589.085,6.85-.167,3.777-.421,7.57-.2,11.337-.5,1.663-.135,3.321-.312,4.992-.337a41.391,41.391,0,0,0,5.072-.156c3.266-.455,6.544-.339,9.816-.471a23.437,23.437,0,0,1,3.213-.389,26.88,26.88,0,0,0,3.044-.05,25.656,25.656,0,0,0,3.3-.1,33.269,33.269,0,0,1,4.739-.361,38.673,38.673,0,0,0,4.82-.148,95.7,95.7,0,0,1,9.817-.467c1.167-.041,2.259-.528,3.468-.4a25.608,25.608,0,0,0,3.3-.045,30.865,30.865,0,0,0,3.552-.1c3.516-.486,7.073-.155,10.573-.543,3.7-.411,7.394-.288,11.089-.427a42.223,42.223,0,0,1,4.23-.406c1.516.092,3.044-.033,4.568-.059a31.792,31.792,0,0,0,4.312-.106,65.455,65.455,0,0,1,8.295-.361c2.708-.076,5.417-.1,8.125-.119,1.588-.014,3.125-.493,4.738-.37,1.514.117,3.046.016,4.569.008q2.412-.014,4.825-.035c1.523-.011,3.047-.028,4.571-.033,1.606-.006,3.211,0,4.817,0,1.524-.005,3.048-.023,4.571-.028,1.609-.005,3.217-.01,4.826,0q6.6.043,13.2.1C501.485,2382.806,502.153,2382.8,502.866,2382.8ZM-38.96,2283.144a2.641,2.641,0,0,0,1.41-1.38l-.555-.115-.722.9a11.854,11.854,0,0,0-3.441,2.431c-1.7,1.5-3.229,3.21-4.829,4.831l-1.585,1.341c.472.047.792.173.9.072.463-.431.863-.928,1.285-1.4q3.646-3.311,7.294-6.618C-39.148,2283.155-39.042,2283.163-38.96,2283.144Zm-28.815-3.24a1.907,1.907,0,0,0,.1.487c1.671,3.431,1.522,6.953.514,10.509a32.861,32.861,0,0,1-5.918,11.005c-.757.986-1.53,1.958-2.375,3.039,1.3.992,2.89.289,4.17.888a30.744,30.744,0,0,0,9.423-.479,93.031,93.031,0,0,1,8.653-13.7,3.227,3.227,0,0,0-.284-.427,144.848,144.848,0,0,0-11.654-10.505c-.694-.59-1.49-1.06-2.239-1.585-.181-.683-.795-.955-1.258-1.383-.519.781.291,1.241.386,1.86C-68.222,2279.872-68.087,2280.058-67.775,2279.9Zm109.125,37.36c1.271,2.241,1.245,4.658.938,7.162-2.126,4.693-3.039,5.344-5.7,7.838a48.94,48.94,0,0,1-6.144,4.8c-3.683,2.48-7.367,4.957-11.138,7.5-.816,1.639-1.647,3.381-2.545,5.089-.936,1.782-1.885,3.561-2.922,5.286-.992,1.652-2.15,3.2-3.149,4.852-1.028,1.695-2.481,3.1-3.387,4.869,1.216.848,2.55.625,3.733.953a11.821,11.821,0,0,0,4.006.25,38.047,38.047,0,0,0,4.175-.7,17.292,17.292,0,0,0,5.754-2.355,35.884,35.884,0,0,0,5.759-4.2,5.545,5.545,0,0,1-.395-1.432,37.266,37.266,0,0,1,.3-6.522,39,39,0,0,1,4.514-12.714,17.162,17.162,0,0,1,8.242-7.515,11.5,11.5,0,0,1,9.459.164,17.389,17.389,0,0,1,7.4,6.27,21.766,21.766,0,0,1,3.976,11.961c.014.409.035.818.055,1.271,3.15,1.382,6.176,2.8,9.267,4.045a37.777,37.777,0,0,0,13.424,2.746c3.216-.01,6.433-.009,9.649.039a72.941,72.941,0,0,1,9.833.31l31.741.091h1.652c-.766-1.838-1.5-3.488-2.146-5.172q-.986-2.574-1.821-5.2c-.555-1.75-1.116-3.5-1.59-5.276s-.856-3.571-1.231-5.363a25.632,25.632,0,0,1-.8-5.456c-.821-1.7,0-3.692-.893-5.448a9.384,9.384,0,0,1-2.251-.251,8.239,8.239,0,0,0-1.971-.381,10.565,10.565,0,0,1-2.224-.325,8.552,8.552,0,0,0-2.013-.116c-2.794-.192-5.526.521-8.3.544-1.5.6-3.12.513-4.673.818s-3.124.574-4.711.748a30.978,30.978,0,0,0-3.979.524,24.944,24.944,0,0,1-3.236.383c-1.161.132-2.319.321-3.485.4a87.013,87.013,0,0,1-14.644-.522,26.976,26.976,0,0,1-3.968-.527c-2.024-.534-4.091-.832-6.125-1.276-3.259-.71-6.464-1.6-9.659-2.52-6.18-1.782-12.211-4.01-18.255-6.2-.2-.66-.912-.455-1.334-.908C40.661,2316.6,40.662,2316.6,41.35,2317.263Zm182.09,89.469v-.047c1.355,0,2.709.017,4.064,0a27.933,27.933,0,0,0,3.8-.155c1.321-.2,2.643-.333,3.969-.475a23.789,23.789,0,0,0,3.943-.657c2.236-.639,4.626-.693,6.738-1.774,2.6-.282,4.956-1.415,7.4-2.213a57.353,57.353,0,0,0,7.13-2.983,99.148,99.148,0,0,0,10.981-6,76.113,76.113,0,0,0,9.727-7.1c3.51-3.175,6.764-6.633,10.08-10.018a26.88,26.88,0,0,0,2.532-3.142,116.671,116.671,0,0,0,6.852-10.492,93.623,93.623,0,0,0,6.5-14.084c1.115-3.035,2.049-6.119,2.979-9.21a79.421,79.421,0,0,0,1.922-8.783,20.7,20.7,0,0,0,.674-5.224,8.343,8.343,0,0,0,.465-2.958,18.558,18.558,0,0,1,.3-2.983,11.315,11.315,0,0,0,.149-3.026c-.03-3.614.248-7.227-.355-10.836-.274-1.641-.289-3.327-.529-4.994a61.188,61.188,0,0,0-2.586-10.679,54.564,54.564,0,0,0-5.1-11.39,87.814,87.814,0,0,0-7.441-10.7c-1.138-1.353-2.417-2.6-3.447-4.028a42.707,42.707,0,0,0-3.343-3.789c-1.194-1.3-2.347-2.65-3.6-3.9-1.37-1.366-2.849-2.622-4.249-3.959-1.462-1.4-2.976-2.728-4.5-4.058a106.082,106.082,0,0,0-9.206-7c-1.5-1.047-3.17-1.849-4.718-2.836a80.6,80.6,0,0,0-12.76-6.3,49.47,49.47,0,0,0-5.257-1.636,26.864,26.864,0,0,0-3.866-.954c-1.408-.187-2.75-.814-4.209-.631a4.7,4.7,0,0,0-2.7-.458c-1.029.033-1.96-.41-2.966-.415-2.284-.01-4.57-.031-6.855-.037a2.122,2.122,0,0,0-.994.1,4.876,4.876,0,0,1-2.461.336c-1.776.064-3.57-.042-5.325.175a22.432,22.432,0,0,1-2.967.328c-1.1-.012-2.135.365-3.205.449a23.206,23.206,0,0,0-4.226.593c-1.445.386-2.934.529-4.387.928a33.108,33.108,0,0,0-5.5,1.56,46.2,46.2,0,0,0-10.576,3.795,91.717,91.717,0,0,0-9.325,4.833,90.211,90.211,0,0,0-14.3,10.59,80.771,80.771,0,0,0-9.572,10.419,97.516,97.516,0,0,0-7.946,12.192,77.563,77.563,0,0,0-5.056,11.2c-1.011,2.732-1.812,5.542-2.667,8.33a27.073,27.073,0,0,0-.6,2.689c-.212,1.06-.343,2.137-.6,3.185-.282,1.14-.276,2.343-.564,3.435-.354,1.338-.161,2.7-.5,3.971a15.683,15.683,0,0,0-.389,3.99q-.037,6.344.06,12.688c.013.9.275,1.8.361,2.709.1,1.01.12,2.026.178,3.04a1.152,1.152,0,0,0,.042.248c.6,2.161.837,4.4,1.268,6.589.627,3.193,1.5,6.312,2.43,9.411.813,2.7,1.9,5.328,2.932,7.964.6,1.545,1.585,2.93,2.042,4.548,1.538,2.093,2.222,4.677,3.853,6.717a61.763,61.763,0,0,0,8.893,12.165,94.649,94.649,0,0,0,13.083,12.284,102.693,102.693,0,0,0,12.875,8.283,85.177,85.177,0,0,0,13.542,5.808c2.2.73,4.444,1.351,6.67,2.012a25.16,25.16,0,0,1,2.93.625c.514.22,1.18.061,1.732.225a46.1,46.1,0,0,0,8.637,1.305C218.687,2406.771,221.07,2406.678,223.44,2406.732ZM15.777,2275.712a12.936,12.936,0,0,0,2.234-.216,13.287,13.287,0,0,1,6.693.073,13.329,13.329,0,0,1,7.424,4.9c.413,1.28,1.543,2.194,1.806,3.564.05.262.374.471.557.689a12.092,12.092,0,0,0,1.4-.843c1.738-1.412,3.93-1.789,5.915-2.636,1.937.032,3.8-.67,5.749-.577,1.6.076,3.215,0,4.821.038a29.328,29.328,0,0,1,4.748.37c1.635.309,3.324.1,4.993.475,1.614.36,3.319.21,4.977.557,1.375.288,2.813.259,4.221.509,1.471.26,2.984.275,4.478.488a40.182,40.182,0,0,0,5.067.193c1.674.024,3.307.4,4.993.4,9.983-.029,19.966.021,29.949.028a68.46,68.46,0,0,0,7.859-.142c2.522-.29,5.024-.222,7.537-.274q.507-.011,1.015-.016a6.883,6.883,0,0,0,4.246-1.3,5.65,5.65,0,0,1,1.423-.544,88.017,88.017,0,0,1,6.179-12.559,101.54,101.54,0,0,1,8.129-11.547,8.47,8.47,0,0,0-2.659-.18q-6.6-.019-13.2-.005c-4.4,0-8.8.055-13.2.016-4.376-.039-8.752.1-13.13-.27-2.773-.235-5.58-.077-8.371-.1-2.876-.026-5.753-.133-8.627-.07-2.786.063-5.526-.461-8.307-.471a37.958,37.958,0,0,1-6.536-.383,40.893,40.893,0,0,0-4.558-.2c-1.587-.1-3.167-.279-4.751-.417a45.652,45.652,0,0,1-5.261-.408,31.836,31.836,0,0,0-4.3-.208c-1.418-.092-2.83-.315-4.248-.38-2.112-.1-4.229-.164-6.342-.136-4.459.057-8.936-.3-13.368.5a24.533,24.533,0,0,0-4.728.588c-1.567.181-3.093.626-4.639.936-4.022.808-7.952,1.927-11.89,3.056a80.654,80.654,0,0,0-9.152,3.371,41.077,41.077,0,0,0-7.112,3.763,24.984,24.984,0,0,0-5.373,4.559,10.019,10.019,0,0,0-2.458,4.322,3.259,3.259,0,0,0,2.33,1.261,13.847,13.847,0,0,1,6.581-4.416,19.423,19.423,0,0,1,8.68-.928,13.089,13.089,0,0,1,3.122.792A11.582,11.582,0,0,1,15.777,2275.712ZM131.282,2321.1c0-2.4-.052-4.676.015-6.948a61.222,61.222,0,0,1,.39-6.777c.324-2.308.488-4.643.94-6.939.436-2.218.792-4.453,1.308-6.652.5-2.148,1.169-4.259,1.758-6.372-.177-.073-.263-.146-.325-.13a25.389,25.389,0,0,1-6.523.41c-3.808-.018-7.614.006-11.421.01q-4.57,0-9.139,0c-2.284-.008-4.569-.035-6.853-.049-2.2-.012-4.4.019-6.6-.039-2.259-.06-4.5-.357-6.773-.364-4.2-.014-8.422.183-12.608-.492-1.23-.2-2.483-.163-3.722-.46-1.287-.309-2.641-.162-3.969-.5-1.278-.323-2.645-.27-3.971-.527-1.3-.253-2.65-.291-3.977-.487-1.9-.281-3.833-.34-5.749-.5a68.087,68.087,0,0,0-8.622-.053,16.071,16.071,0,0,0-8.173,2.81,23.433,23.433,0,0,0-1.93,1.575,37.877,37.877,0,0,1,.106,10.012,37.215,37.215,0,0,1-2.918,9.575,7.035,7.035,0,0,0,1.063.8c1.429.69,2.877,1.346,4.324,2,3.946,1.78,8.017,3.239,12.07,4.749,4.611,1.717,9.374,2.93,14.058,4.4a36.555,36.555,0,0,0,4.87,1.126c2.211.373,4.356,1.153,6.636,1.115,1,.636,2.138.357,3.212.506a27.893,27.893,0,0,0,3.462.411c4.653.055,9.308.1,13.959.016,2.171-.039,4.337-.376,6.5-.578a.706.706,0,0,0,.251-.021,10.611,10.611,0,0,1,2.7-.491c.98-.239,2-.264,2.948-.522,1.233-.335,2.518-.24,3.708-.6a16.541,16.541,0,0,1,2.472-.354,19.463,19.463,0,0,1,2.45-.385c3.044-.061,6.09-.071,9.134-.061A37.8,37.8,0,0,1,131.282,2321.1Zm33.879,68.745a99.636,99.636,0,0,1-13.064-13.062c-1.857-2.389-3.675-4.8-5.365-7.315-1.676-2.493-3.125-5.12-4.661-7.689-2.987,0-5.863.036-8.737-.01a52.506,52.506,0,0,1-8.56-.342c-7.255-.114-14.513-.053-21.763-.5-2.869-.175-5.755-.019-8.631-.115-4.124-.137-8.261.288-12.375-.432-1.4-.246-2.768-.531-4.132-.9a80.344,80.344,0,0,1-12.577-4.937c-.284-.131-.591-.214-1.011-.364a4.065,4.065,0,0,0-.488,1.219,14.248,14.248,0,0,1-.781,3.683,39.953,39.953,0,0,1-7.731,14.525A4.861,4.861,0,0,0,54,2375.815a8.509,8.509,0,0,0,1.272.636c2.39.747,4.782,1.5,7.194,2.17,1.683.47,3.429.725,5.092,1.249a43.691,43.691,0,0,0,5.112,1.175c1.969.368,3.9.92,5.876,1.245,1.232.2,2.493.312,3.7.61,2.514.62,5.071.964,7.615,1.389a17.614,17.614,0,0,0,3.961.543c1.2.75,2.618.385,3.916.786a30.544,30.544,0,0,0,3.971.556c2.229.369,4.5.479,6.758.695.167.016.376-.073.5,0,1.015.583,2.144.332,3.217.472s2.145.311,3.222.4c1.666.146,3.331.208,5,.439,2.317.32,4.679.25,7.022.531,2.494.3,5.028.132,7.542.483a44.534,44.534,0,0,0,5.326.145c1.777.031,3.555.077,5.331.071s3.477.455,5.252.395c2.2-.074,4.4.023,6.6.033C159.837,2389.851,162.2,2389.844,165.161,2389.844ZM-7.248,2369.485a13.069,13.069,0,0,1-.8-1.061c-2.04-3.363-4.046-6.747-6.111-10.1a15.139,15.139,0,0,0-2.876-3.927c-.764-.3-1.637-.595-2.463-.982a17.133,17.133,0,0,1-8.831-8.564c-.309-.689-.579-1.4-.944-2.056a4.719,4.719,0,0,0-.834-.87,5.978,5.978,0,0,0-1.056.324,45.627,45.627,0,0,1-4.372,1.869,62.464,62.464,0,0,1-11.945,3.508,12.856,12.856,0,0,0-6.158,2.54c-.765.649-1.607,1.207-2.51,1.877a13.747,13.747,0,0,0-.417,2.067c-.126,2.179-.2,4.351-.521,6.524-.194,1.324-.426,2.653-.683,3.956a24.319,24.319,0,0,1-1.278,5.074c-.464,1.07-.755,2.215-1.149,3.315a31.547,31.547,0,0,1-6.627,10.85,22.9,22.9,0,0,1-8.067,5.774,13.87,13.87,0,0,0,5.4,4.179c1.355.6,2.821.949,4.229,1.435,1.116.385,2.313.163,3.453.582a8.313,8.313,0,0,0,2.518.131,44.512,44.512,0,0,0,10.486-.9c2.776-.577,5.509-1.248,8.223-2.05a119.789,119.789,0,0,0,14.646-5.786,16.007,16.007,0,0,0,1.919-1.178,65.2,65.2,0,0,0,10.009-8.051,59.99,59.99,0,0,0,6.705-7.32Zm-23.3-95.054a6.819,6.819,0,0,0,3.044-1.4c1.915-1.779,3.915-3.469,5.782-5.3a39,39,0,0,0,5.778-6.99c1.121-1.773,2.367-3.474,3.379-5.307a35.576,35.576,0,0,0,2.86-6.142,13.339,13.339,0,0,0,.665-6.947,14.3,14.3,0,0,0-3.717-7.009,19.179,19.179,0,0,0-9.779-5.358,11.455,11.455,0,0,0-5.538.07A13.964,13.964,0,0,0-36.93,2237a22.185,22.185,0,0,0-2.384,9.115,22.725,22.725,0,0,0,.287,3.989,34.074,34.074,0,0,0,1.3,6.887A88.657,88.657,0,0,0-30.544,2274.432Zm-55.788,89.2a33.635,33.635,0,0,1,3.265-6.182,32.887,32.887,0,0,1,7.932-9.1,48.791,48.791,0,0,1,13.877-8,4.5,4.5,0,0,0,.9-.552l-.444-4.235c-.5-.115-1-.1-1.488-.19a14.676,14.676,0,0,1-1.446-.415,9.883,9.883,0,0,1-5.625-3.559,3.293,3.293,0,0,0-.528-.482c-.792.849-1.487,1.674-2.264,2.414a15.613,15.613,0,0,1-11.294,4.731c-.339-.005-.676-.009-1.015,0a15.9,15.9,0,0,1-7.577-1.464,3,3,0,0,0-.9-.146c-.118.138-.2.195-.222.269-.053.157-.075.323-.117.484a16.791,16.791,0,0,1-6.321,9.121,31.884,31.884,0,0,1-4.5,2.758c-.273.148-.69.123-.712.734,3.36,5.205,7.808,9.722,11.536,14.792a11.889,11.889,0,0,0,.858.944C-90.25,2365.415-88.479,2364.17-86.332,2363.631Zm86.008,9.682c.841.98,1.555,1.924,2.379,2.757a34.473,34.473,0,0,0,10.23,7.194,27.759,27.759,0,0,0,8.623,2.4,28.73,28.73,0,0,0,8.55-.3,38.373,38.373,0,0,0,9.018-2.969,33.074,33.074,0,0,0,7.2-4.582c.307-.255.8-.334.723-.982-6.329-3.274-11.945-7.4-14.8-14.416-3.933,2.751-7.819,5.282-12.6,6.127A26.163,26.163,0,0,1,5.061,2367.3Zm-71.139-45.72c0-.923.036-1.6-.006-2.269a15.275,15.275,0,0,1,1.121-6.9c.223-.54.439-1.084.688-1.612a40.013,40.013,0,0,1,4.049-6.65,4.895,4.895,0,0,0,.411-.851c-.16-.1-.228-.173-.3-.182a6.265,6.265,0,0,0-.991-.091,36.064,36.064,0,0,1-10.234-.933,8.128,8.128,0,0,0-1.393-.132c-1.779,1.6-3.493,3.088-5.148,4.64a71.651,71.651,0,0,1-6.215,5.13,80.083,80.083,0,0,1-10.99,7.052c-.362.188-.752.345-.788.889,1.116,1.21,2.3,2.395,3.456,3.6a21.563,21.563,0,0,0,6.385,4.374c3.333,1.607,6.811,1.59,10.351,1.253a2.837,2.837,0,0,0,.477-.154,13.731,13.731,0,0,0,6.2-3.677C-73.295,2329.935-72.341,2328.651-71.463,2327.593ZM.1,2330.2a63.985,63.985,0,0,1-11.13,1.709,8.8,8.8,0,0,0-1.1.561,62.811,62.811,0,0,1-6.718,3.916c-2.078,1.085-4.2,2.093-6.288,3.151a11.771,11.771,0,0,0-1.116.736c4.975,2.825,8.46,7.006,11.6,11.253,2.974,1.1,7.015,1.515,12.4,1.18,1.707-.106,4.389-.475,5.824-1.489.752-2.269,1.536-4.635,2.23-6.733A44.645,44.645,0,0,0,.1,2330.2Zm-83.081,35.7c-.168,2.035-.788,3.828-.487,5.686a49.509,49.509,0,0,0,1.079,5.391,22.419,22.419,0,0,0,2,5.119c.9,1.587,1.484,3.4,3.036,4.534a20.737,20.737,0,0,0,5.468-3.118,29.06,29.06,0,0,0,8.2-11.915,64.843,64.843,0,0,0,2.239-7.66c.636-2.611.745-5.3,1.175-7.943a9.162,9.162,0,0,0,.007-1.238c-3.712,2.282-7.265,4.44-11,6.264C-75.028,2362.851-78.915,2364.365-82.984,2365.9Zm132.625,8.322a35.135,35.135,0,0,0,4.548-5.614,39.187,39.187,0,0,0,5.793-12.979,8.211,8.211,0,0,0,.2-3.228,29.657,29.657,0,0,0-4.193-1.126c-4.062-.48-8.031-.216-11.762,1.77a45.839,45.839,0,0,0-8.6,6.109,12.1,12.1,0,0,0-.971,1.065,16.485,16.485,0,0,0,2.261,4.6,24.657,24.657,0,0,0,6.2,5.837A60.752,60.752,0,0,0,49.641,2374.221ZM-78.02,2277.113a3.191,3.191,0,0,1-.846.357,8.29,8.29,0,0,0-4.311,1.888,17.4,17.4,0,0,0-3.63,3.81,13.547,13.547,0,0,0-2.8,6.632,11.852,11.852,0,0,0,3.4,9.888,16.193,16.193,0,0,0,5.1,3.612,2.522,2.522,0,0,0,1.971.174,37.96,37.96,0,0,0,5.065-6.871,28.4,28.4,0,0,0,3.4-8.028,9.3,9.3,0,0,0-2.587-9.192,5.746,5.746,0,0,0-3.721-1.9A3.994,3.994,0,0,1-78.02,2277.113ZM-88.053,2389.57c-.225-.2-.386-.441-.606-.519-4.475-1.585-8.786-3.644-13.629-4.1-2.959-.281-5.908-.145-8.858-.275a2.7,2.7,0,0,0-.783.25c-.042.851-.083,1.684-.124,2.518a11.95,11.95,0,0,0,2.45,7.531,19.391,19.391,0,0,0,8.176,6.535c1.182.532,2.457.476,3.649.888.825.285,1.639-.224,2.457-.363a6.685,6.685,0,0,0,4.157-2.623A14.656,14.656,0,0,0-88.053,2389.57ZM60.284,2348.5a15.371,15.371,0,0,0-2.144-7.873,14.315,14.315,0,0,0-7.193-6.757,8.031,8.031,0,0,0-5.2-.235,10.088,10.088,0,0,0-4.14,2.315,21.8,21.8,0,0,0-5.121,7.4,29.21,29.21,0,0,0-1.641,4.715,54.658,54.658,0,0,0-1,5.4,16.888,16.888,0,0,0-.018,2.377c.588-.353,1.042-.576,1.44-.874.943-.7,1.838-1.476,2.793-2.163a27.852,27.852,0,0,1,9.3-4.793,17.337,17.337,0,0,1,8.148-.479C57.028,2347.867,58.552,2348.261,60.284,2348.5Zm-117.834-16.777c1.023.369,1.793-.14,2.6-.187a23.192,23.192,0,0,0,6.8-1.672,17.029,17.029,0,0,0,6.987-4.376,8.3,8.3,0,0,0,1.9-3.783c-.609-.642-1.207-1.23-1.756-1.862a27.133,27.133,0,0,1-1.74-2.162,12.753,12.753,0,0,1-2.745-7.947,1.937,1.937,0,0,0-.162-.534,45.1,45.1,0,0,0-17.008,12.876c.315.336.644.7.993,1.051.659.657,1.343,1.29,1.994,1.954a7,7,0,0,1,1.6,2.808A36.435,36.435,0,0,1-57.551,2331.726Zm27.5-7.339a10.208,10.208,0,0,0,1.95-2.048c1.727-2.273,3.5-4.514,5.008-6.946a46.4,46.4,0,0,0,3.721-6.841,13.4,13.4,0,0,0,1.286-6.335,1.252,1.252,0,0,0-.728-1.18c-6.528,1.533-13.073,2.872-19.357,5.179,3.3,7.422,3.629,11.631,3.058,14.975A30.464,30.464,0,0,0-30.053,2324.387Zm56.127-8.291a53.565,53.565,0,0,1-.366,6.451c-.123,1.681-.61,3.294-.689,4.969-.61.958-.449,2.106-.765,3.154-.7,2.315-1.32,4.652-2.147,6.929a.7.7,0,0,0,.282.944c2.872-1.932,5.842-3.817,8.68-5.883A41.518,41.518,0,0,0,35.8,2328.5a14.271,14.271,0,0,0,3.181-4.488,4.574,4.574,0,0,0,.269-2.955,6.854,6.854,0,0,0-2.12-3.632,24.722,24.722,0,0,0-7.7-4.844Zm-40.722-9.413a41.2,41.2,0,0,1-5.678,11.372,44.782,44.782,0,0,0-4.134,7.471,6.981,6.981,0,0,0-.288,1.031,7.44,7.44,0,0,0,1.345.647c1.619.409,3.238.847,4.884,1.1,1.731.267,3.492.335,5.328.5a61.811,61.811,0,0,0,8.857-6.631c-1.7-2.628-3.287-5.182-4.966-7.676S-12.562,2309.466-14.649,2306.683Zm13.265,12.732a8.074,8.074,0,0,0,2.217-2.1c2.747-3.308,4.514-7.2,6.52-10.919-2.267-1.094-4.468-2.09-6.609-3.2a24.068,24.068,0,0,1-5.811-4.753l-6.5,1.183a17.244,17.244,0,0,0-1.243,3.261q5.323,7.86,10.691,15.773A6.584,6.584,0,0,0-1.384,2319.416Zm23.961-.271a71.642,71.642,0,0,1-9.624,5.94,16.071,16.071,0,0,0-.466,2.241c-.149,2.261-.637,4.466-.966,6.7-.451,3.067-1.212,6.055-1.923,9.058a2.607,2.607,0,0,0,.018,1.956c.391.644-.2,1.5.5,2,2-1.449,3.987-2.853,5.927-4.318a3.907,3.907,0,0,0,1.324-1.483,85.93,85.93,0,0,0,3.693-10.886,43.418,43.418,0,0,0,1.169-6.157c.072-.723.317-1.467.341-2.22C22.6,2321.138,22.577,2320.3,22.577,2319.145ZM-110.15,2381.1c1.722.1,3.233.005,4.738.064a33.494,33.494,0,0,1,4.5.364c1.394.246,2.805.487,4.186.788a37.68,37.68,0,0,1,4.26,1.43,31.9,31.9,0,0,0,4.17,1.524c.5-3.724-1.635-10.419-4.878-15.354a5.083,5.083,0,0,0-.924.2,75.088,75.088,0,0,0-8.13,3.917,25.007,25.007,0,0,0-7.2,5.853A10.2,10.2,0,0,0-110.15,2381.1ZM17.385,2278.708a29.08,29.08,0,0,0,.431,4.214,5.062,5.062,0,0,1,.005,2.481,22.1,22.1,0,0,0-.328,2.738c-.167.985-.358,1.966-.51,2.954a6.569,6.569,0,0,0-.007.991l1.382,1.325c5.423.151,9.4-2.419,12.993-5.972-1.368-4.173-3.51-7.49-8-8.795A37.024,37.024,0,0,0,17.385,2278.708Zm-48.548,2.336c-3.928,3.164-7.641,6.578-11.465,9.861-1.089.935-2.111,1.948-3.151,2.938-.106.1-.125.291-.195.465.177.672.758,1.077,1.175,1.592.457.565.611,1.432,1.582,1.593a2.633,2.633,0,0,0,.644-.209q7.7-4.7,15.386-9.415A42.461,42.461,0,0,0-31.164,2281.045Zm-86.7,84.5a18.117,18.117,0,0,0-7.74.612,24.2,24.2,0,0,0-5.021,2.218,9.886,9.886,0,0,0-3.277,3.119v2.111c1.085,2.214,3.018,3.263,4.837,4.414a44.709,44.709,0,0,0,8.935-7.374,26.933,26.933,0,0,0,2.374-3.223A1.557,1.557,0,0,0-117.861,2365.541Zm129.92-88.123a7.745,7.745,0,0,0-2.373-1.924,12.286,12.286,0,0,0-3.13-.828c-1.923-.392-3.831.234-5.747.41a11.248,11.248,0,0,0-2.357.8,6.672,6.672,0,0,0-3.278,2.485c1.08.863,2.05,1.663,3.05,2.427a4.347,4.347,0,0,0,1.778.885,24.82,24.82,0,0,1,6.331,2.264c1.116.575,2.237,1.139,3.355,1.708a1.2,1.2,0,0,0,.128-.257,2.1,2.1,0,0,0,.049-.492,8.574,8.574,0,0,1,2.01-6.548C12.059,2278.141,12.005,2277.722,12.059,2277.418Zm-119.872,59.8c-1.223,2.585-.653,5.958,1.345,9.392.745-.343,1.529-.637,2.243-1.05.8-.461,1.534-1.03,2.3-1.551a15.146,15.146,0,0,0,5.4-7.122,7.185,7.185,0,0,0,.251-1.706l-1.3-1.272c-1.326,0-2.592-.048-3.853.009A7.578,7.578,0,0,0-107.813,2337.214Zm71.847-12.975c-.255.476-.414.767-.567,1.061a14.215,14.215,0,0,1-4.651,5.193,30.988,30.988,0,0,1-14.262,4.972c-.56.068-1.2-.176-1.645.362a11.27,11.27,0,0,0,.01,1.27c.055.471-.162,1.026.5,1.481,2.283-.2,4.541-1.194,6.919-1.491a35.084,35.084,0,0,1,7.382-.6c3.049-2.316,8.735-7.878,10.014-9.8Zm65.406-18.178a24.1,24.1,0,0,0,2.7-14.674c-.956.681-1.809,1.339-2.711,1.921A20.432,20.432,0,0,1,26.8,2294.8a11.529,11.529,0,0,1-3.051,1.134c-1.043.155-2.061.485-3.161.755l2.8,5.372a29.737,29.737,0,0,0,5.5,4.036C29.019,2306.166,29.223,2306.08,29.44,2306.061Zm-7.55,3.928c-2.992-.965-6.18-1.464-9.353-2.284a4.307,4.307,0,0,0,.014,2.3,20.6,20.6,0,0,1,.4,5c.062,1.854.011,3.71.031,5.565a2.478,2.478,0,0,0,.265.7,53.456,53.456,0,0,0,9.29-6.412C22.644,2312.073,22.644,2312.073,21.89,2309.989Zm-50.163-31.358A81.9,81.9,0,0,0-23.9,2286.1c1.574-.684,3.121-1.3,4.622-2.022s3.188-.928,4.659-1.9c.033-.755.083-1.5.093-2.25a7.784,7.784,0,0,0-.016-2.148,22.815,22.815,0,0,0-9.5-1.121C-25.61,2276.8-27.177,2277.089-28.273,2278.631Zm-61.77-39.522a3.1,3.1,0,0,0-3.107,1.224,12.577,12.577,0,0,0-2.728,4.738,6.117,6.117,0,0,0,.04,4.16c.375.924.723,1.86,1.072,2.793a.922.922,0,0,0,.816.738,2.652,2.652,0,0,0,.708-.369c1-.906,2-1.81,2.935-2.783a9.4,9.4,0,0,0,2.284-4.124C-87.236,2242.612-87.7,2240.964-90.043,2239.109Zm87.008,45.158c-1.492.089-2.672-.171-3.875.188A15.966,15.966,0,0,0-3.653,2294.9a19.055,19.055,0,0,0,2.806-.155,20.117,20.117,0,0,1,2.477-.337,6.728,6.728,0,0,0,2.74-.277,2.249,2.249,0,0,0-.007-.539,3,3,0,0,0-.283-.7,35.045,35.045,0,0,0-5.351-7.3A14.3,14.3,0,0,0-3.034,2284.267Zm4.2,72.034c-2.183,0-4.355-.1-6.516.026-2.179.124-4.275-.814-6.556-.454,2.217,3.583,4.378,7.061,6.513,10.555.193.315.373.531.744.553C-2.291,2364.1.768,2358.516,1.167,2356.3Zm8.113-32.933c.213-.942.415-1.58.488-2.232.074-.668,0-1.352.03-2.026a41.252,41.252,0,0,0-.386-6.525c-.046-.422.142-.925-.272-1.279-1.264,2.034-2.49,4.03-3.738,6.01a41.588,41.588,0,0,1-4.681,5.452,2.2,2.2,0,0,0,.072.649c.436.8.9,1.594,1.348,2.386a2.287,2.287,0,0,0,.8.029C5.043,2325.033,7.138,2324.2,9.28,2323.368Zm-68.773-15.149c-.441,1.044-.834,1.962-1.217,2.883s-.8,1.833-1.127,2.777c-.311.9-1.169,1.66-.82,2.846,1.472-1.262,2.842-2.489,4.268-3.645a41.075,41.075,0,0,1,5.99-4.126,56.1,56.1,0,0,1,7.143-3.612,1.758,1.758,0,0,0,1.305-1.922,3.809,3.809,0,0,0-.238-.459c-.146-.205-.315-.394-.536-.663A58.054,58.054,0,0,1-59.493,2308.219Zm37.3-19.123c2.041,2.842,3.392,5.9,6.22,7.874l1.411-.22a13.161,13.161,0,0,0,.436-2.313,20.5,20.5,0,0,0-.229-4.258c-.279-1.382-.014-2.852-.233-4.286A34.38,34.38,0,0,0-22.193,2289.1Zm-38.572,61.721a4.373,4.373,0,0,0-1.119.015c-.793.243-1.543.636-2.345.834a48.566,48.566,0,0,0-10.462,4.011,20.86,20.86,0,0,0-6.6,5.344c-.124.148-.093.425-.145.7a97.645,97.645,0,0,0,10.495-4.881C-67.48,2355.055-64.183,2353-60.765,2350.817Zm40.244-52.848a15.374,15.374,0,0,0-1.778-1.045,11.285,11.285,0,0,0-6.661-.12,22.88,22.88,0,0,0-9.842,5.333c-.173.162-.581.323-.311.8,2.946-.936,5.867-1.9,8.875-2.58C-27.179,2299.672-24.145,2298.867-20.522,2297.969Zm41.626,8.45a6.208,6.208,0,0,0-.142-1.469,8.733,8.733,0,0,0-1.495-2.606c-1.324-1.528-2.645-3.06-3.978-4.582-.075-.086-.235-.1-.4-.165-.392,1.121-.766,2.226-1.164,3.323s-1.194,2.043-1.031,3.4C15.454,2305.284,18.233,2305.527,21.1,2306.42ZM4.588,2362.811c.583-.771,1.105-1.423,1.586-2.1a102.676,102.676,0,0,0,6.972-10.984c.162-.3.342-.579.059-.925-1.733,1.7-3.795,3.037-5.393,4.88a15.42,15.42,0,0,0-3.6,5.649A3.8,3.8,0,0,0,4.588,2362.811Zm-94.909,5.967c.891,1.9,1.911,3.72,2.613,5.658a38.581,38.581,0,0,1,1.794,5.942,58.753,58.753,0,0,1,.917,6.085c.839.254,1.54.5,2.258.666.2.048.449-.117.8-.221-.175-.438-.3-.823-.476-1.181-.654-1.344-1.361-2.661-1.981-4.019a22.716,22.716,0,0,1-1.749-5.2c-.634-3.381-1.171-5.809-.964-8.179a3.48,3.48,0,0,0-.149-.814c-.759.226-1.463.4-2.141.652A4.889,4.889,0,0,0-90.321,2368.778Zm63.241-32.261c2.959-1.542,5.775-3.005,8.581-4.483.158-.084.25-.292.417-.5-2.583-.665-5.1-1.1-7.385-1.949-.847.339-.688,1.038-.834,1.577A15.808,15.808,0,0,0-27.08,2336.517Zm-3.145,1.287a69.633,69.633,0,0,1,.935-7.039c.1-.543.77-1.052.318-1.8l-7.8,7.78a24.166,24.166,0,0,0,3.232.675C-32.479,2337.5-31.545,2338.435-30.225,2337.8Zm-26.261,7.8a6.463,6.463,0,0,0,4.982-1.39c1.586-1.227,3.151-2.478,4.716-3.73.073-.059.049-.238.072-.378a10.314,10.314,0,0,0-4.67.54,18.49,18.49,0,0,0-5.1,1.6Zm-3.806-1.98a44.083,44.083,0,0,0-13.213,7.662c2.446-.792,4.4-1.855,6.508-2.5,2.219-.683,4.466-1.275,6.736-1.917A7.926,7.926,0,0,0-60.291,2343.621Zm-1.02-11.935a12.264,12.264,0,0,0-.032-2.251,4.358,4.358,0,0,0-.816-1.8,16.371,16.371,0,0,0-1.959-1.977,6.077,6.077,0,0,0-1.728-1.42c-1.464,1.663-1.773,2.5-1.394,3.815l.867,1.211A8.05,8.05,0,0,0-61.312,2331.687Zm68.951,5.479c.276-1.42.508-2.537.706-3.66a16.791,16.791,0,0,0,.466-3.195c-.024-1.135.777-2.2.315-3.429-.938.365-1.8.656-2.615,1.031a6.624,6.624,0,0,0-2.5,1.26C5.191,2331.774,6.354,2334.336,7.64,2337.165Zm4.77-43.578c-.278-1.61-.5-2.141-1.476-2.881a28.913,28.913,0,0,0-6.106-3.923c-.109-.045-.288.072-.434.115-.018.071-.075.166-.049.21,1.428,2.349,2.863,4.693,4.341,7.107A6.018,6.018,0,0,0,12.41,2293.587Zm-6.3,3.887a25.372,25.372,0,0,0-6.792.619,18.858,18.858,0,0,0,8.541,4.653A23.353,23.353,0,0,0,6.114,2297.474Zm-52.529,1.829c-1-.66-1.348-1.853-2.311-2.52a51.313,51.313,0,0,0-7.235,7A31.113,31.113,0,0,0-46.414,2299.3Zm39.046-4.184a4.8,4.8,0,0,0-.232-.659,19.584,19.584,0,0,1-2.433-8.044,4.606,4.606,0,0,0-.351-1.182c-.071-.206-.137-.48-.59-.184-.015.321-.052.728-.051,1.133q.011,4.53.046,9.058a2.056,2.056,0,0,0,.221.634C-8.45,2295.8-8.45,2295.8-7.369,2295.119Zm-34.8,12.538a9.379,9.379,0,0,0,3.353,9.964,15.6,15.6,0,0,0-.191-3.063,28.9,28.9,0,0,0-2.639-6.9Zm6.292,32.663a8.118,8.118,0,0,0-4.289-.651l-4.333,3.269h2.038Zm33.847,30.2a36.77,36.77,0,0,0,4.67-5.4c-.444-.25-.644-.844-1.134-.973l-4.04,6.2Zm-23-79.643-.574-.085c-.6.328-1.251.7-1.913,1.039-.7.364-.7.359-1.518,1.505,1.582-.85,3.209-.381,4.757-.706C-24.213,2291.875-24.714,2291.416-25.028,2290.882ZM13,2281.99c-.078,1.878-.52,3.792.868,5.743a35.536,35.536,0,0,0-.055-6.618ZM-1.72,2327.082a2.922,2.922,0,0,0-.145-.807,6.687,6.687,0,0,0-.685-.886c-.7,1.119-2.189,1.331-3,3C-4.138,2327.665-2.89,2327.9-1.72,2327.082ZM-24.5,2345.269c-.053.092-.147.186-.127.229.48,1.031.991,1.56,3.015,3.161l.458-.194Zm14.379-63.769.756-1.621-1.373-.865a3.065,3.065,0,0,0-.066,2.485Zm21.049,16.2c-.323-.437-.651-.439-.988-.021.086.426-.213,1.051.62,1.112C10.933,2298.526,10.865,2298.087,10.925,2297.7Z" transform="translate(164.744 -2223.328)" fill="#346db6"/>
        <path id="Path_220" data-name="Path 220" d="M-32.255,2338.522l3.346,3.2-.458.194c-2.024-1.6-2.535-2.13-3.015-3.161C-32.4,2338.708-32.308,2338.614-32.255,2338.522Z" transform="translate(172.497 -2216.58)" fill="#110f03"/>
        <path id="Path_221" data-name="Path 221" d="M-53.519,2286.132l.6.013c-.422.472-.823.969-1.285,1.4-.108.1-.428-.025-.9-.072Z" transform="translate(171.166 -2219.649)" fill="#110f03"/>
        <path id="Path_222" data-name="Path 222" d="M-45.92,2279.917l.133-.595.722-.9.555.116A2.643,2.643,0,0,1-45.92,2279.917Z" transform="translate(171.704 -2220.1)" fill="#110f03"/>
        <path id="Path_223" data-name="Path 223" d="M185.717,2364.094c-.011.031-.021.074-.032.105.032-.01.074-.01.106-.021v-.032A.463.463,0,0,1,185.717,2364.094Zm-5.526-14.683v-.032h-.021Z" transform="translate(184.947 -2215.944)" fill="#110f03"/>
        <path id="Path_224" data-name="Path 224" d="M245.251,2293.977a50.784,50.784,0,0,0-1.228-5.081,72.747,72.747,0,0,0-4.52-10.564c-1.588-3.038-3.144-6.087-4.785-9.093a38.663,38.663,0,0,0-4.869-7.3,34.094,34.094,0,0,0-9.686-7.971,25,25,0,0,0-8.225-2.752,32.832,32.832,0,0,0-6.838,0,28.253,28.253,0,0,0-5.356,1.133,57.7,57.7,0,0,0-9.5,3.758,89.89,89.89,0,0,0-10.311,6.2,77.281,77.281,0,0,0-7.23,5.886c-1.069.931-1.884,2.149-2.869,3.186a23.785,23.785,0,0,0-2.773,3.578c-.667,1.069-1.313,2.138-1.958,3.218a24.548,24.548,0,0,0-3.589,11.835,67.172,67.172,0,0,0,.36,12.872c.3,1.884.519,3.79.942,5.664.614,2.763,1.387,5.483,2.138,8.2a53.028,53.028,0,0,0,2.784,7.738,110.5,110.5,0,0,0,6.849,12.533,57.686,57.686,0,0,1,6.055,13.952,9.131,9.131,0,0,1,.646,4.171v.032l-.021-.032c-.053.36.127.508.455.54-.011.243.085.54-.032.72a11.673,11.673,0,0,1-.868,1.154v1.863c.8.889,1.6,1.758,2.339,2.562.064.857.127,1.609.191,2.456.762,1.027,1.567,2.106,2.392,3.229.032.529.064,1.122.1,1.7.286.084.455.243.392.561l.074.116c.169-.021.318-.063.476-.085.011-.031.021-.074.032-.106a.447.447,0,0,0,.074.053c-.032-.413-.064-.815-.106-1.312.2-.053.455-.2.635-.148,1.112.349,2.2.751,3.3,1.122a6.632,6.632,0,0,0,.953.307,45.485,45.485,0,0,0,11.062.445c1.662-.212,3.345-.2,4.986-.466,1.662-.275,3.335-.349,4.975-.6a48.771,48.771,0,0,0,4.817-1.26c.709-.18,1.429-.307,2.223-.487a1.843,1.843,0,0,1-.053.7c-1.08,2.308-3.133,3.43-5.388,4.2a34.821,34.821,0,0,1-5.113,1.186,47.235,47.235,0,0,1-9.3.381,3.806,3.806,0,0,1-1.26-.063c-1.281-.487-2.657-.275-3.959-.6s-2.6-.582-3.874-.953a6.563,6.563,0,0,1-3.218-1.895,3.819,3.819,0,0,0-.677-.551v.032c-.032.011-.074.011-.106.021-.053.148-.1.286-.138.434.254.212.508.434.794.667-.381.477-.688.858-1,1.239a9.606,9.606,0,0,0,.5,1.651,5.233,5.233,0,0,0,1.164,1.905,17.766,17.766,0,0,0,4.266,2.541c.582.254,1.291.169,1.937.476.5.243,1.217.085,1.694.36.635.371,1.355-.042,2.329.688.222.254.783.889,1.313,1.482,1.376.593,2.689,1.122,3.97,1.7,1.789.8,3.335.243,4.9-.656a12.785,12.785,0,0,0,3.07-2.689c.116-.487.2-.815.254-1.069.974-.508,1.853-.974,2.975-1.567-.794,0-1.291-.021-1.789,0-.243.021-.466.159-.7.191a10.361,10.361,0,0,1-1.493.2c-4.785.106-9.58.381-14.354-.4a15.694,15.694,0,0,1-4.912-1.725,2.242,2.242,0,0,1-1.27-1.556c.159-.148.318-.4.5-.424a1.7,1.7,0,0,1,.974.159c2.234,1.239,4.785,1.207,7.177,1.8,3.97.01,7.939.021,11.909.01a6.789,6.789,0,0,0,1.44-.222A20.37,20.37,0,0,0,218.13,2373c.159-.1.434.01.688.021a4.337,4.337,0,0,1-1.122,1.99c-.265.233-.4.519-.021.942.879-1.143,1.757-2.266,2.583-3.335.042-.487.074-.91.116-1.365a4.68,4.68,0,0,0,1.387-4.584c.55-.582,1.059-1.133,1.609-1.725a7.027,7.027,0,0,0-.021-1.493,7.353,7.353,0,0,0-.593-1.4c1.429-.868,2.795-1.725,3.133-3.6a10.424,10.424,0,0,1-.423-4.838,3.9,3.9,0,0,1,.138-1.238c.773-1.567,1.567-3.133,2.435-4.658,1-1.747,2.138-3.4,3.112-5.145,1.63-2.922,3.165-5.9,4.732-8.85a99.362,99.362,0,0,0,4.7-9.961,88.638,88.638,0,0,0,3.938-11.835,30.358,30.358,0,0,0,1.154-5.611C245.875,2302.2,246.161,2298.063,245.251,2293.977Zm-36.521,85.162a2.617,2.617,0,0,1-1.493,2.011,5.44,5.44,0,0,1-3.769.921,5.676,5.676,0,0,1-2.816-2.456C203.352,2379.488,206.02,2379.71,208.73,2379.139Zm-19.171-5.78c-.042.011-.106-.106-.169-.159.116-.064.222-.116.328-.18l.18.18A1.4,1.4,0,0,1,189.559,2373.359Zm34.785-13.9a6,6,0,0,1-.91.741,27.206,27.206,0,0,1-5.833,2.234,32.086,32.086,0,0,0-4.118.889c-.222.085-.445.191-.646.286-.011.2-.011.36-.021.582a3.648,3.648,0,0,0,2.414-.2,11.545,11.545,0,0,1,3.631-.826,16.112,16.112,0,0,0,2.382-.5c.752.466,1.27.953,1.133,1.948-.879,1.418-2.445,1.821-3.97,2.254a8.7,8.7,0,0,1-3.2.593c-.91.6-1.98.3-2.943.529-2.234.551-4.531.265-6.754.572a32.161,32.161,0,0,1-6.764.2,30.752,30.752,0,0,1-8.638-1.4,9.938,9.938,0,0,1-3.864-2.308,4.031,4.031,0,0,1-1.207-2.138c.953-.021,1.831.984,2.805.222-1.376-.8-2.752-1.577-4.107-2.4a4.127,4.127,0,0,1-1.927-2.657c.222-.3.466-.625.762-1.027,1.778.519,3.345,1.493,5.2,1.779,1.725.275,3.419.752,5.176.889q9.114.031,18.218.074a2.714,2.714,0,0,1,.487.105,8.228,8.228,0,0,1,1.006-.127,29.89,29.89,0,0,0,11.464-2.53C224.757,2357.925,224.556,2358.645,224.344,2359.46Zm18.409-53.892a16.037,16.037,0,0,1-.826,4.149,45.43,45.43,0,0,1-1.44,5.293,82.1,82.1,0,0,1-3.462,8.553c-2.022,4.118-4.033,8.257-6.235,12.279-1.853,3.356-3.6,6.775-5.653,10.035a19.132,19.132,0,0,0-3.239,9.6c-1.853.5-3.567,1.059-5.388,1.387a24.914,24.914,0,0,1-4.234.391c-7.1,0-14.217.011-21.32-.105a17.861,17.861,0,0,1-5.4-.942,5,5,0,0,1-2.795-1.821,3.408,3.408,0,0,1,1.8-3.25,10.909,10.909,0,0,1,4.912-1.63c1.175-.01,2.255-.572,3.451-.487,1.1.084,2.2.021,3.43.021a6.313,6.313,0,0,1,.212,1.133c.032,1.355.011,2.71.011,3.959.254.54.466.985.677,1.429h.614a13.3,13.3,0,0,0,.169-3.24c.021-1.016,0-2.022,0-3.049.529-.254.963-.466,1.313-.635a14.322,14.322,0,0,1,3.387.053,16.883,16.883,0,0,0,3.239.318c1.08.074,2.181.074,3.133.116.9,1.027.445,2.107.646,3.07.2.889.423,1.778.656,2.763a1.259,1.259,0,0,0,1.493.625c.191-.17.434-.392.656-.593.032-.212.127-.413.063-.519-.54-.974-.466-2.106-.826-3.133a4.315,4.315,0,0,1-.032-1.429c.1-.116.138-.2.212-.233a.323.323,0,0,1,.243-.032c2.4.635,4.933.667,7.336,1.567.127-.37.212-.582.3-.815a10.478,10.478,0,0,0-4.562-1.334,32.256,32.256,0,0,1-3.525-.529,10.018,10.018,0,0,1-.074-2.509,9.261,9.261,0,0,1,.191-2.773c.434-1.365.275-2.816.783-4.171a22.1,22.1,0,0,0,.593-2.932,37.434,37.434,0,0,0,.932-4.128c.159-1.418.783-2.763.635-4.213a8.589,8.589,0,0,0,.466-3.727c0-2.276.053-4.573-.148-6.838-.074-.9-.349-1.8-.349-2.721-.011-2.106,0-4.213,0-6.33.9-1.249,2.35-1.609,3.578-2.4a28.9,28.9,0,0,1,3.451.476,6.452,6.452,0,0,0,4.086-.551c.1-.116.307-.36.5-.582-.18-1.514-1.207-2.191-2.445-2.71a9.361,9.361,0,0,0-5.1.794,3.342,3.342,0,0,1-1.217.2c-.593.042-1.186.011-1.778.011-.529.265-1.048.529-1.683.847-.349.667-.752,1.4-1.207,2.244a14.871,14.871,0,0,1-6.044,2.858c-.476-.148-1.1-.339-1.863-.582.656-.71,1.26-1.376,1.863-2.033.91-2.032,1.09-3.906-1.186-5.346h-2.339c-.7.677-1.482,1.429-2.265,2.191v4.192a37.535,37.535,0,0,1-7.548.149c-1.99-2.879-4.192-5.335-7.77-6.076-.286.243-.54.455-.762.646-.519,1.344.1,2.488.455,3.662,1.482,2.043,3.747,2.721,6.055,3.525a19.83,19.83,0,0,1,2.456,7.474c.138.984.339,1.958.466,2.943a11.083,11.083,0,0,0,.4,2.985,5.067,5.067,0,0,1,.085,1.757c.021,4.044.741,8.045.614,12.1.6,2.223.349,4.509.508,6.764a4.5,4.5,0,0,0,.2,1.207,10.315,10.315,0,0,1,.212,2.488,5.053,5.053,0,0,1-.868.169,15.167,15.167,0,0,0-3.038.127c-.974.233-1.969.3-2.943.476a14.666,14.666,0,0,0-6.171,2.509c-.2.148-.4.3-.614.424-.064.032-.169,0-.307,0-.646-.36-.2-1.249-.72-1.7a58.637,58.637,0,0,0-2.107-6.394c-.275-.688-.55-1.387-.836-2.075-1.905-4.636-4.3-9.04-6.489-13.539a71.726,71.726,0,0,1-3.578-8.786c-.9-2.678-1.524-5.441-2.286-8.162-.413-1.524-.677-3.091-1.059-4.626a32.617,32.617,0,0,0-.942-4.383c-.254-3.61-.921-7.209-.5-10.829a31.028,31.028,0,0,1,1.524-7.314,33.685,33.685,0,0,1,3.3-6.447,51.852,51.852,0,0,1,7.833-8.9,52.487,52.487,0,0,1,11.411-8.2c1.905-1.037,3.874-1.948,5.822-2.879a51.7,51.7,0,0,1,7.526-2.668,30.08,30.08,0,0,1,10.543-.54,24.624,24.624,0,0,1,7.474,2.689,28.054,28.054,0,0,1,7.018,5.684A38.658,38.658,0,0,1,231,2268.1c2.932,4.965,5.4,10.184,7.833,15.4a48.86,48.86,0,0,1,3.716,10.829,2.21,2.21,0,0,1,.127.487c-.074,2.191.614,4.309.572,6.51C243.218,2302.773,242.7,2304.117,242.752,2305.568Zm-38.342,5.282c.963.085,1.884.836,3.049.487a18.566,18.566,0,0,0,4.2-1.556,6.72,6.72,0,0,1,1.027-.4c.021.582.042,1,.064,1.4.1,2.181-.159,4.372.466,6.521a4.96,4.96,0,0,1,.064,1.26c.021,1.524.074,3.049.063,4.562a15.982,15.982,0,0,1-.222,4.287c-.37,1.3-.021,2.721-.783,3.917a69.149,69.149,0,0,1-2.011,9.008c.011,1.853-.741,3.61-.646,5.484a22.476,22.476,0,0,1-.127,2.318,23.9,23.9,0,0,1-5.61-.328,5.274,5.274,0,0,0-1.228-.127c-1.44-.042-2.879-.064-4.594-.1-.021-1.556-.053-2.9-.064-4.234-.021-2.032-.085-4.065-.032-6.1.106-4.044-.7-8.045-.6-12.089a22.777,22.777,0,0,1-.487-4.235c-.127-1.418-.328-2.837-.572-4.223-.392-2.191-1.122-4.33-1.747-6.584a6.726,6.726,0,0,1,.879-.1,20.128,20.128,0,0,0,6-.529,4.88,4.88,0,0,1,1.112-.085C203.151,2309.845,203.733,2310.311,204.411,2310.85Zm-1.715-6.034a5.047,5.047,0,0,1,2-1.937c.318.265.625.529.921.783v1.778c-1.122,1.292-1.122,1.292-2.212,1.482A3.507,3.507,0,0,1,202.7,2304.816Z" transform="translate(183.847 -2221.705)" fill="#346db6"/>
        <path id="Path_225" data-name="Path 225" d="M180.191,2349.38v.032l-.021-.032Z" transform="translate(184.947 -2215.944)" fill="#110f03"/>
        <g id="Group_154" data-name="Group 154" transform="translate(328.105 22.817)">
          <path id="Path_226" data-name="Path 226" d="M238.059,2344.039a4.716,4.716,0,0,0-.792.541,45.527,45.527,0,0,1-7.472,6.129c-1.361.9-2.439,2.216-3.935,2.966a3.734,3.734,0,0,1,.134-1.24c.77-1.575,1.565-3.142,2.436-4.663,1-1.74,2.144-3.4,3.116-5.148,1.623-2.921,3.16-5.891,4.731-8.841a103.834,103.834,0,0,0,4.7-9.96,88.539,88.539,0,0,0,3.935-11.837,29.833,29.833,0,0,0,1.153-5.612c.2-4.116.5-8.257-.421-12.342a50.23,50.23,0,0,0-1.231-5.088,72.962,72.962,0,0,0-4.511-10.562c-1.592-3.034-3.147-6.089-4.8-9.1a38.762,38.762,0,0,0-4.863-7.3,34.122,34.122,0,0,0-9.689-7.963,24.765,24.765,0,0,0-8.22-2.751,32.035,32.035,0,0,0-6.841,0,28.263,28.263,0,0,0-5.357,1.129,57.134,57.134,0,0,0-9.5,3.758,90.466,90.466,0,0,0-10.309,6.205,77.159,77.159,0,0,0-7.223,5.885c-1.071.928-1.884,2.149-2.867,3.186a22.751,22.751,0,0,0-2.775,3.578q-1,1.594-1.965,3.21a24.554,24.554,0,0,0-3.584,11.836,66.614,66.614,0,0,0,.357,12.871c.3,1.892.52,3.793.94,5.668.619,2.763,1.389,5.481,2.142,8.209a53.466,53.466,0,0,0,2.783,7.735,110.278,110.278,0,0,0,6.852,12.534,57.744,57.744,0,0,1,6.056,13.953,9.269,9.269,0,0,1,.648,4.2,3.206,3.206,0,0,1-.951-.2,30.365,30.365,0,0,1-3.5-2.4,83.741,83.741,0,0,1-9.477-9.1,41.7,41.7,0,0,1-7.3-10.4c-1.055-2.137-1.774-4.437-2.694-6.643a27.114,27.114,0,0,1-1.557-4.946c-.084-.4-.426-.78-.405-1.156.065-1.2-.623-2.241-.58-3.44a8.1,8.1,0,0,0-.35-2.71,9.723,9.723,0,0,1-.1-3.271c.055-1.073-.291-2.2.361-3.212.089-2.174.405-4.353-.2-6.508a4.68,4.68,0,0,1-.163-1.23c-.014-2.029-.046-4.059.023-6.087.026-.814.442-1.626.409-2.427a11.574,11.574,0,0,1,.565-2.675,16,16,0,0,1,.6-2.4c.65-1.866,1.291-3.742,2.067-5.558a19.03,19.03,0,0,1,2.394-4.078c1.772-2.313,3.631-4.558,5.181-7.042.7-1.129,1.694-2.076,2.486-3.155,1.037-1.413,2.237-2.693,3.233-4.144a11.586,11.586,0,0,1,2.13-2.164A44.767,44.767,0,0,1,185.706,2253c2.1-.869,5.69-2.012,7.414-1.858,1.027.091,1.874-.645,2.942-.525a4.423,4.423,0,0,0,2.707-.376,3.386,3.386,0,0,1,1.5-.1q4.567-.008,9.134.008a3.059,3.059,0,0,1,1.95.36.747.747,0,0,0,.48.1c1.95-.2,3.792.635,5.729.578a9.154,9.154,0,0,1,3.549,1.032,62.407,62.407,0,0,1,8.21,3.474,26.237,26.237,0,0,1,3.772,2.412c.772.628,1.6,1.181,2.379,1.745,1.324.1,2.412-1.012,4.107-.333a1.308,1.308,0,0,1,.4,1.535l-1.568,1.676c.9,1.093,1.81,2.169,2.692,3.266s1.814,2.2,2.62,3.366,1.465,2.4,2.233,3.681a5.291,5.291,0,0,1,3.526-.512l.771.855-.782,1.587-1.9,1.347a9.144,9.144,0,0,0,.362,1.247,51.214,51.214,0,0,1,2,5.062,5.323,5.323,0,0,1,.276.945,9.51,9.51,0,0,0,1.1,3.273c1.432,2.648,1.937,5.6,2.933,8.395a3.9,3.9,0,0,1,.061,1.009c.023.328.059.656.068.749.57,1.194,1.647.653,2.415,1.067v2.05l-1.774.93a1.342,1.342,0,0,0-.168.439c-.018,1.945,0,3.89-.037,5.834a7.3,7.3,0,0,1-.437,3.208,5,5,0,0,0-.039,1.881l1.421,1.043v1.538l-.566.552-1.586.167a1.779,1.779,0,0,0-.306.371c-.637,1.436-1.252,2.882-1.9,4.316-.309.687.079,1.557-.585,2.143a26.7,26.7,0,0,1-2.577,7.2,1.166,1.166,0,0,0-.032.313l.964,1.185v1.341l-.8.858h-2.056c-.33.515-.613,1.017-.955,1.476a48.133,48.133,0,0,1-4.587,5.646,14.857,14.857,0,0,0-2.754,3.535Z" transform="translate(-144.65 -2244.576)" fill="#dbe1ef"/>
          <path id="Path_227" data-name="Path 227" d="M233.408,2338.881q1.51,0,3.019.007h3.052l1.533.832v1.99l-.6.663h-5.03c-.6-.5-1.55-.424-1.929-1.761v-1.771Z" transform="translate(-140.04 -2239.379)" fill="#dbe1ef"/>
          <path id="Path_228" data-name="Path 228" d="M146.252,2319.328l-1.046-.984v-1.126l.607-.687a2.45,2.45,0,0,1,.529-.159c.585-.023,1.172-.019,1.758-.031a5.629,5.629,0,0,0,2.672-.4c.263-.139.658-.021,1.127-.021l1.317,1.178v.886c-.744,1.092-1.938,1.206-3.057,1.321C149,2319.422,147.818,2319.328,146.252,2319.328Z" transform="translate(-145.206 -2240.724)" fill="#dbe1ef"/>
          <path id="Path_229" data-name="Path 229" d="M160.623,2337.013l.653.8a1.92,1.92,0,0,1-.165.514,6.247,6.247,0,0,1-3.818,2.145c-.475.123-.951.243-1.62.413l-1.361-.693c-.021-.452-.04-.867-.057-1.221a2.42,2.42,0,0,1,1.565-1.234A8.753,8.753,0,0,1,160.623,2337.013Z" transform="translate(-144.676 -2239.49)" fill="#dbe1ef"/>
          <path id="Path_230" data-name="Path 230" d="M147.8,2287.677c1.472-.3,2.531.272,3.637.556a1.84,1.84,0,0,1,.643.423v1.554l-1.371.79h-1.691l-1.9-1.05v-1.618Z" transform="translate(-145.094 -2242.38)" fill="#dbe1ef"/>
          <path id="Path_231" data-name="Path 231" d="M160.77,2263.966c1.28.553,2.256.989,2.826,2.037v1.243l-.769.814a3.462,3.462,0,0,1-1.114-.007,3.5,3.5,0,0,1-2.123-1.342V2264.8Z" transform="translate(-144.363 -2243.764)" fill="#dbe1ef"/>
          <path id="Path_232" data-name="Path 232" d="M181.7,2252.921l-.654.717h-1.675l-1.063-1.189v-1.675l.662-.635h1.807A2.834,2.834,0,0,1,181.7,2252.921Z" transform="translate(-143.267 -2244.574)" fill="#dbe1ef"/>
          <path id="Path_233" data-name="Path 233" d="M201.973,2248.9l-.842-.08-.772-1.319v-2l.686-.616h1.476l.827,1.514A3.4,3.4,0,0,1,201.973,2248.9Z" transform="translate(-141.975 -2244.882)" fill="#dbe1ef"/>
          <path id="Path_234" data-name="Path 234" d="M206.793,2309.25l-1.869-.583,1.864-2.039c.917-2.031,1.087-3.9-1.183-5.338h-2.337c-.7.674-1.48,1.43-2.266,2.189v4.185a37.223,37.223,0,0,1-7.552.15c-1.984-2.881-4.193-5.334-7.769-6.069l-.759.638c-.524,1.346.1,2.494.457,3.67,1.477,2.04,3.742,2.72,6.051,3.521a19.728,19.728,0,0,1,2.453,7.469c.142.986.341,1.964.467,2.951a10.82,10.82,0,0,0,.408,2.977,4.925,4.925,0,0,1,.079,1.761c.023,4.043.748,8.048.622,12.1.595,2.224.346,4.51.5,6.766a4.437,4.437,0,0,0,.2,1.211,10.589,10.589,0,0,1,.211,2.481,6.246,6.246,0,0,1-.868.176,15.2,15.2,0,0,0-3.033.12c-.983.241-1.973.3-2.947.483a14.662,14.662,0,0,0-6.17,2.5,7.193,7.193,0,0,1-.616.423c-.061.037-.165.005-.3.005-.651-.362-.2-1.256-.729-1.7a55.892,55.892,0,0,0-2.107-6.394c-.275-.693-.544-1.389-.828-2.078-1.912-4.635-4.305-9.038-6.492-13.54a72.045,72.045,0,0,1-3.583-8.781c-.89-2.68-1.523-5.441-2.278-8.164-.422-1.521-.687-3.086-1.064-4.621a31.471,31.471,0,0,0-.942-4.389c-.249-3.606-.923-7.207-.494-10.825a30.534,30.534,0,0,1,1.524-7.314,33.5,33.5,0,0,1,3.3-6.451,51.874,51.874,0,0,1,7.836-8.9,52.522,52.522,0,0,1,11.409-8.208c1.9-1.032,3.874-1.945,5.828-2.883a53.565,53.565,0,0,1,7.519-2.665,30.213,30.213,0,0,1,10.544-.539,24.4,24.4,0,0,1,7.472,2.69,27.806,27.806,0,0,1,7.016,5.69,38.073,38.073,0,0,1,4.489,6.05c2.932,4.969,5.4,10.182,7.842,15.4a49.358,49.358,0,0,1,3.708,10.837,2.274,2.274,0,0,1,.131.481c-.079,2.192.607,4.31.565,6.514-.028,1.44-.55,2.787-.493,4.23a16.137,16.137,0,0,1-.825,4.151,46.164,46.164,0,0,1-1.444,5.289,80.478,80.478,0,0,1-3.463,8.559c-2.023,4.12-4.032,8.252-6.236,12.276-1.842,3.363-3.592,6.775-5.648,10.032a19.285,19.285,0,0,0-3.242,9.612c-1.849.5-3.564,1.058-5.382,1.378a24.267,24.267,0,0,1-4.236.394c-7.108,0-14.217.016-21.323-.11a17.97,17.97,0,0,1-5.4-.932,5.094,5.094,0,0,1-2.794-1.825,3.414,3.414,0,0,1,1.8-3.249,10.847,10.847,0,0,1,4.914-1.626c1.174-.019,2.254-.577,3.452-.489,1.093.079,2.2.016,3.43.016a6.809,6.809,0,0,1,.207,1.137c.026,1.353.011,2.706.011,3.953l.673,1.434h.622a13.269,13.269,0,0,0,.162-3.244c.024-1.008.005-2.018.005-3.04l1.312-.64a13.812,13.812,0,0,1,3.386.059,16.893,16.893,0,0,0,3.237.308c1.087.081,2.179.082,3.132.117.908,1.03.446,2.114.653,3.074.193.894.418,1.78.652,2.765a1.262,1.262,0,0,0,1.492.623l.656-.593c.032-.208.131-.41.069-.521-.548-.972-.466-2.106-.833-3.129a4.391,4.391,0,0,1-.026-1.437c.1-.109.141-.193.211-.23a.355.355,0,0,1,.239-.031c2.41.635,4.934.667,7.337,1.568l.3-.817a10.5,10.5,0,0,0-4.556-1.331,35.542,35.542,0,0,1-3.531-.529,9.8,9.8,0,0,1-.068-2.514,9.262,9.262,0,0,1,.183-2.767c.444-1.367.284-2.814.784-4.171a22.412,22.412,0,0,0,.595-2.935,40.178,40.178,0,0,0,.937-4.125c.157-1.419.782-2.761.636-4.215a8.606,8.606,0,0,0,.458-3.723c0-2.283.05-4.575-.142-6.845-.075-.891-.352-1.793-.357-2.715-.007-2.109,0-4.218,0-6.337.9-1.243,2.35-1.607,3.589-2.4a27.844,27.844,0,0,1,3.441.475,6.482,6.482,0,0,0,4.089-.548l.5-.588c-.177-1.512-1.2-2.19-2.439-2.7a9.27,9.27,0,0,0-5.107.791,3.4,3.4,0,0,1-1.224.2c-.59.033-1.183.008-1.775.008l-1.676.843-1.216,2.247A14.836,14.836,0,0,1,206.793,2309.25Z" transform="translate(-144.118 -2244.389)" fill="#dbe1ef"/>
          <path id="Path_235" data-name="Path 235" d="M196.28,2344.353c-.021-1.56-.044-2.9-.057-4.237-.019-2.029-.086-4.061-.034-6.089.1-4.05-.7-8.051-.6-12.1a21.707,21.707,0,0,1-.486-4.231c-.131-1.413-.329-2.835-.577-4.222-.391-2.2-1.125-4.331-1.742-6.589a7.9,7.9,0,0,1,.869-.1,19.992,19.992,0,0,0,6-.532,5.079,5.079,0,0,1,1.119-.076l1.8,1.439c.957.086,1.877.834,3.046.487a18.475,18.475,0,0,0,4.2-1.564,7.623,7.623,0,0,1,1.026-.393c.026.58.046.987.064,1.394.1,2.175-.157,4.373.47,6.516a4.953,4.953,0,0,1,.06,1.264c.028,1.522.078,3.045.066,4.567a16.4,16.4,0,0,1-.219,4.286c-.374,1.3-.029,2.718-.791,3.909a67.918,67.918,0,0,1-2.013,9.008c.016,1.857-.734,3.62-.646,5.491a23.178,23.178,0,0,1-.121,2.321,24.046,24.046,0,0,1-5.614-.333,5.5,5.5,0,0,0-1.228-.124C199.438,2344.412,198,2344.388,196.28,2344.353Z" transform="translate(-142.419 -2241.293)" fill="#dbe1ef"/>
          <path id="Path_236" data-name="Path 236" d="M209.9,2353.888c-.7.656-1.78.13-2.479.794a18.158,18.158,0,0,0-3.672.439,13.063,13.063,0,0,1-3.493.089,2.479,2.479,0,0,1-1.451-.239,1.584,1.584,0,0,0-.946-.206c-2.092.189-4.067-.81-6.162-.6-.149.015-.331-.3-.5-.459q9.1.037,18.212.078A2.541,2.541,0,0,1,209.9,2353.888Z" transform="translate(-142.512 -2238.507)" fill="#dbe1ef"/>
          <path id="Path_237" data-name="Path 237" d="M202.414,2300.006l.916.788v1.781c-1.115,1.292-1.115,1.292-2.208,1.477a3.463,3.463,0,0,1-.713-2.1A5.1,5.1,0,0,1,202.414,2300.006Z" transform="translate(-141.973 -2241.653)" fill="#dbe1ef"/>
        </g>
        <path id="Path_238" data-name="Path 238" d="M206.155,2356.661l-.835.826a45.338,45.338,0,0,1-7.2.023C200.788,2356.356,203.284,2356.8,206.155,2356.661Z" transform="translate(185.999 -2215.517)" fill="#346db6"/>
        <path id="Path_239" data-name="Path 239" d="M193.628,2357.791a6.884,6.884,0,0,1-3.32.05A6.657,6.657,0,0,1,193.628,2357.791Z" transform="translate(185.541 -2215.463)" fill="#346db6"/>
      </g>
    </g>
    <text id="simpler_processes_:_stronger_systems" data-name="simpler processes : stronger systems" transform="translate(761.086 1109)" fill="rgba(0,0,0,0.7)" font-size="21" font-family="ProvidenceSansPro, Providence Sans Pro"><tspan x="76.684" y="20">simpler processes : stronger systems</tspan></text>
  </g>
</svg>
