<svg xmlns="http://www.w3.org/2000/svg" width="354.294" height="285.045" viewBox="0 0 354.294 285.045">
  <g id="Group_172" data-name="Group 172" transform="translate(-816.883 -425.203)">
    <g id="Group_171" data-name="Group 171" transform="translate(816.883 425.203)">
      <path id="Path_262" data-name="Path 262" d="M1143.076,710.038a3.317,3.317,0,0,1-.958-.778l-.512-.593-134.471.034c-73.955.02-147.02.025-162.36.015l-27.891-.02.072-.5c.064-.457.229-.516,1.742-.643.914-.072,23.625-.151,50.46-.166l48.8-.029v-.6a1.815,1.815,0,0,1,.429-1.055,8.059,8.059,0,0,0,.9-3.022c.259-1.406,1.27-6.087,2.243-10.4,2.19-9.686,3.1-14.23,5.074-25.435,2.687-15.194,3.217-18.53,3.008-18.818-.107-.151-.9-1.11-1.762-2.131-2.578-3.065-5.848-7.366-9.452-12.43-1.873-2.633-5.177-7.24-7.337-10.241s-4.622-6.452-5.464-7.677c-5.867-8.543-7.886-11.311-10.051-13.774l-.929-1.055-.331.516c-.472.735-2.417,5.414-4.928,11.866-3.06,7.866-5.1,12.97-6.276,15.685-1.406,3.264-11.161,23.177-11.584,23.649a1.153,1.153,0,0,1-.593.395c-.132,0-.457.374-.72.831-1.25,2.176-7.264,7.8-21.111,19.763-7.034,6.08-12.766,11.248-15.1,13.632l-1.308,1.333.248,2.861c.34,3.975,1,5.911,2.5,7.381.807.783,1.634.924,1.946.321a9.144,9.144,0,0,0,.283-4.063c-.477-2.826-1.848-5.255-3.42-6.067-.457-.234-.778-.521-.711-.628.2-.311,1.61-.238,2.3.117,1.649.851,3.139,4.5,3.144,7.692,0,2.121-.316,3.245-1.143,4.072a1.4,1.4,0,0,1-1.528.54c-2.535-.341-4.184-3.581-4.388-8.616-.171-4.223-.181-4.2,3.571-7.906,3.022-2.987,8.889-8.213,17.733-15.8,8.8-7.54,14.785-13.126,16.07-14.984.414-.6.782-.914.978-.842s.311-.019.311-.223c0-.467,2.042-4.816,6.105-13,4.277-8.616,5.225-10.786,10.153-23.265,3.971-10.056,5.737-14.157,6.646-15.432.414-.584.424-.671.107-.939-.432-.36-.394-.735.92-8.66.539-3.246,1.537-9.5,2.223-13.909,2.491-16.1,3.527-21.724,5.677-30.826,1.421-6,2.613-10.125,5.566-19.174,1.343-4.115,2.442-7.555,2.442-7.634s-4.714,4.394-10.474,9.94-12.7,12.128-15.413,14.624-5.77,5.385-6.783,6.408l-1.843,1.858.136,1.162c.078.638.628,4.719,1.227,9.065,1.678,12.2,2.349,17.3,3.328,25.26.5,4.038,1.2,9.448,1.557,12.016s.715,5.328.8,6.12c.142,1.358.234,1.538,1.4,2.861.686.778,1.635,1.9,2.107,2.491.822,1.041.841,1.1.564,1.868-.156.438-.36.793-.448.793s-.36-.326-.608-.725c-.924-1.493-2.924-4.014-2.924-3.688,0,.186.443,2.121.979,4.3.943,3.82.968,4,.628,4.709-.2.41-.418.745-.5.745-.462,0-1.989-6.665-2.223-9.681-.1-1.348-.442-4-.758-5.9s-1.378-9.813-2.36-17.582-2.233-17.485-2.782-21.582-1.061-8.451-1.138-9.681c-.127-2.1-.1-2.3.418-3.236.374-.671,2.6-2.9,6.792-6.787,3.435-3.182,8.732-8.189,11.778-11.127s7.749-7.468,10.449-10.061c5.64-5.415,7.2-7.215,7.771-8.966.218-.676,1.095-2.978,1.945-5.124s1.625-4.164,1.728-4.495c.2-.671.151-.7-1.567-.963-3.167-.477-9.122-2.983-12.795-5.39-6.115-4-9.8-8.33-11.77-13.812-1.226-3.42-1.361-4.428-1.348-9.945.015-4.388.088-5.454.512-7.458,1.795-8.524,6.105-15.885,11.827-20.19a25.339,25.339,0,0,1,6.256-3.157c1.085-.355,1.533-.623,1.718-1.026.331-.72,1.873-1.689,5.936-3.718a77.262,77.262,0,0,1,10.8-4.48c2.111-.638,5.049-1.173,5.263-.959.191.191-.355.817-.715.817-.423,0-6.962,2.248-9.672,3.323a92.956,92.956,0,0,0-9.487,4.622,9.7,9.7,0,0,0,1.849-.574,27.227,27.227,0,0,1,7.419-1.586,8.264,8.264,0,0,0,2.617-.467c3.576-1.314,8.407-2.9,10.29-3.386,2.568-.656,4.977-.953,4.86-.6-.087.263-2.32,1.055-8.465,3a36.866,36.866,0,0,0-4.053,1.426c-.062.1.273.2.74.218a18.618,18.618,0,0,1,2.5.4,15.268,15.268,0,0,0,2.087.365c.243,0,3.137-.668,6.432-1.49,4.219-1.05,6.057-1.42,6.222-1.25.559.56-.671,1.115-5.186,2.335-2.5.676-4.7,1.237-4.895,1.237a9.865,9.865,0,0,0,2.4,1.45,34.131,34.131,0,0,1,13.525,11.943c5.61,8.738,6.661,19.9,2.715,28.832a17.734,17.734,0,0,0-.988,2.568,1.843,1.843,0,0,1-.477.891c-.253.273-1.085,1.445-1.858,2.608a36.675,36.675,0,0,1-7.531,7.876,35.8,35.8,0,0,1-13.884,5.809,39.251,39.251,0,0,1-6.013.36h-3.825l-.588,1.6c-.326.885-1.289,3.455-2.141,5.708l-1.552,4.1.608.609a28.138,28.138,0,0,1,2.345,4.023c3.756,7.356,9.307,17.457,14.362,26.116,4.622,7.92,6.257,10.951,9.453,17.559l2.672,5.511,2.782-.121c8.037-.35,41.69-7.429,42.575-8.957a.918.918,0,0,1,.729-.306c.448,0,.643-.2.984-1,.335-.778.539-.993.938-.979.283.01,1.46-.1,2.623-.253a34.6,34.6,0,0,1,9.068.36l2.059.346,2.058-.768a37.992,37.992,0,0,1,8.407-2.005c2.073-.136,10.786.239,15.354.661,2.141.2,7.049.4,10.9.458a99.075,99.075,0,0,0,13.578-.477c3.611-.316,8.149-.691,10.086-.832l3.522-.258.628-.91c.345-.5,3.81-4.013,7.7-7.808a313.885,313.885,0,0,0,27.419-30.023l3.907-4.875-.72-2.247c-.4-1.237-1.49-4.458-2.427-7.161l-1.7-4.92-2.32-.034a35.6,35.6,0,0,1-18.828-5.99c-6.12-4.008-9.8-8.328-11.769-13.816-1.222-3.391-1.363-4.438-1.357-9.833.01-5.687.37-8.139,1.79-12.289,3.012-8.782,8.509-15.331,15.1-17.982a4.756,4.756,0,0,0,1.752-1.031,40.5,40.5,0,0,1,5.171-5.181c3.507-2.894,10.714-6.8,11.783-6.393.715.278-.025.857-2.894,2.273a38.453,38.453,0,0,0-11.341,7.881l-1.333,1.361,2.223-.817a37.575,37.575,0,0,1,6.641-1.994c1.343-.268,2.014-.507,2.156-.773.32-.6,3.581-2.6,6.552-4.019,3.226-1.542,5.921-2.476,6.875-2.384l.7.068-.894.583a39.443,39.443,0,0,1-3.892,1.854,49.419,49.419,0,0,0-7.781,4.038c-.281.268-.019.316,1.893.335a25.116,25.116,0,0,1,12.878,3.274c8.295,4.292,13.9,10.592,16.687,18.756a27.449,27.449,0,0,1,1.747,10.217,26.077,26.077,0,0,1-2.861,12.893,34.634,34.634,0,0,1-10.31,12.79,35.176,35.176,0,0,1-14.206,5.842c-2.082.326-2.486.453-2.364.735,1.833,4.384,8.655,25.917,11.1,35.064,3.77,14.089,7.506,34.167,8.68,46.627a128.106,128.106,0,0,1,.7,13.8c-.069.92-.189,2.322-.268,3.114-.233,2.409.39,9.185,1.8,19.476.894,6.559,1.289,10.163,1.892,17.247.546,6.417.978,10.2,1.689,14.693.3,1.892.656,4.184.792,5.084.39,2.53,2.243,6.733,6.34,14.372,3.941,7.346,6.666,12,10.806,18.487,7.96,12.46,8.417,13.2,8.417,13.692a.732.732,0,0,0,.223.554c.326.2.273,1.343-.106,2.252a17.572,17.572,0,0,1-3.139,4.063,1.836,1.836,0,0,0-.541.559c0,.074,4.063.137,9.021.137,7.846,0,9.038.044,9.15.335a.743.743,0,0,1-.146.666c-.233.288-1.679.331-10.095.336l-9.823.01-2.2.773a9.6,9.6,0,0,1-3.785.763,8.545,8.545,0,0,1-2.019-.2Zm4.8-1.7a12.586,12.586,0,0,0,6.563-4.578c.993-1.353,1.255-2.32.681-2.544-.686-.263-7.424,2.652-9.638,4.17-1.24.852-1.932,1.843-1.761,2.525a.915.915,0,0,0,.526.633,8.169,8.169,0,0,0,3.629-.2ZM1037.468,706.7a3.634,3.634,0,0,1,.263-1.237c.676-1.473,5.483-3.581,8.752-3.829a18.679,18.679,0,0,1,5.566.715c.39.112.546-.141,1.26-2.053,1.391-3.708,6.981-21.047,8.529-26.438,2.277-7.94,7.269-22.861,9.03-26.987.87-2.048,1.848-4.524,2.165-5.508a14.666,14.666,0,0,1,1.128-2.627,60.865,60.865,0,0,1,5.352-5c10.115-8.747,19.1-16.794,25.007-22.409,7.332-6.967,9.03-8.519,12.562-11.5,1.932-1.63,4.189-3.619,5.016-4.423,1.46-1.421,1.5-1.5,1.5-2.568,0-1.781-.419-8.154-.788-12.12-1.289-13.826-5.683-36.591-9.925-51.414-1.27-4.446-3.576-11.906-3.736-12.075a22.078,22.078,0,0,0-.656,4c-.273,2.3-.891,6.534-1.363,9.41s-1.226,7.585-1.664,10.46a157.727,157.727,0,0,1-3.815,17.7c-2.111,8.037-3.206,11.787-3.512,12.016a12.5,12.5,0,0,0-1.245,1.781c-1.245,2.048-2.573,3.745-7.22,9.234-2.126,2.51-5.235,6.217-6.914,8.236s-4.115,4.865-5.419,6.325-3.785,4.267-5.518,6.232-3.813,4.286-4.627,5.157l-1.469,1.576.345.648c.666,1.24-.112,5.682-1.465,8.358a16.523,16.523,0,0,1-5.258,5.39c-2.7,1.62-5.124,1.6-6.237-.059-.939-1.4-.559-3.566,1.075-6.154a26.338,26.338,0,0,1,8.948-7.677c1.143-.487,1.5-.837,4.217-4.146.521-.636,2.335-2.69,4.034-4.563,6.49-7.166,8.022-8.918,12.58-14.382,2.583-3.1,5.63-6.7,6.773-8.012a58.382,58.382,0,0,0,5.77-7.56c.588-1.081,2.4-7.434,4.524-15.851a145.654,145.654,0,0,0,3.3-16.581c.554-3.551,1.3-8.26,1.659-10.46.681-4.227,1.483-10.3,1.7-12.912l.131-1.557-.437.554a316.86,316.86,0,0,1-29.1,32.514c-4.52,4.48-8.519,8.469-8.884,8.869a5.941,5.941,0,0,1-1.245,1.026,29.074,29.074,0,0,1-4.783.656c-2.315.2-6.115.56-8.441.8a118.967,118.967,0,0,1-24.37.3c-3.386-.278-12.523-.754-14.634-.764-.579,0-.72.087-.72.447a7.839,7.839,0,0,1-.763,1.97l-.768,1.518,1.488.608c4.063,1.659,5.22,3.6,3.3,5.522-2.145,2.141-7.769,3.216-11.9,2.277l-1.508-.34-1.538.685c-4.291,1.927-8.256,2.087-10.046.4-1-.939-.866-2.531.38-4.5a4.877,4.877,0,0,0,.618-1.128c-.035-.025-.564-.385-1.178-.793a22.48,22.48,0,0,1-2.359-1.931l-1.25-1.183-.978.54c-2.432,1.343-10.227,3.372-21.849,5.677-11.778,2.345-18.064,3.376-21.412,3.513-2.145.092-3,.209-3.283.462-.355.311-.448.278-1.036-.341a41.474,41.474,0,0,1-2.895-5.288c-2.968-6.09-5.3-10.431-9.848-18.287-4.393-7.6-8.568-15.364-12.815-23.83a52.393,52.393,0,0,0-3.186-5.9c-.166.184-4.448,13.427-5.78,17.884-2.919,9.716-5.113,20.418-8,38.975-.87,5.6-2.111,13.282-2.759,17.077l-1.177,6.889.876.847c2.258,2.175,5.522,6.447,11.186,14.639.846,1.226,2.933,4.13,4.641,6.455s5.109,7.031,7.561,10.461,5.813,8.037,7.473,10.24,3.211,4.369,3.444,4.813c.306.583.536.768.837.69.6-.156.549.531-.579,7.518-2.7,16.662-4.656,26.928-7.779,40.726-1.9,8.412-1.955,8.718-1.5,8.586a33.48,33.48,0,0,1,10.489-1.353c4.428,0,5.268.147,6.46,1.148,1.285,1.085.569,2.526-1.7,3.41-1.08.423-.579.428,50.15.438l51.244.01Zm-95.925-57.146c-.132-4.349-.929-6.316-2.944-7.25-1.157-.534-1.259-.894-.291-1.011a2.581,2.581,0,0,1,2.447,1,6.89,6.89,0,0,1,1.682,5.084c0,1.649-.053,1.907-.442,2.116-.248.131-.447.161-.452.063Zm126.342-11.564c-.278-.278-.151-3.1.194-4.257a9.863,9.863,0,0,1,3.261-4.359c1.289-.73,1.249-.254-.088,1.152-1.771,1.854-2.233,2.876-2.354,5.167-.107,2.082-.453,2.861-1.013,2.3Zm-66.579-52.238c-.876-.38-1.373-.973-1.07-1.274.156-.151.681-.107,1.649.146a11.555,11.555,0,0,0,5.984-.234c.7-.36,1.167-.3.764.1a11.471,11.471,0,0,1-1.81.891,6.651,6.651,0,0,1-3.226.671,7.628,7.628,0,0,1-2.292-.3Zm-1.421-5.717c-1.42-.281-2.553-.939-2.8-1.619-.311-.872.1-1.163.827-.589,1.3,1.021,2.258,1.2,6.505,1.207,3.819.009,4.073-.025,5.4-.574,1-.418,1.391-.5,1.391-.288,0,.306-2.831,1.49-4.48,1.868a28.963,28.963,0,0,1-6.841-.01Zm-57.438-2.009c-3.007-.589-6.465-3.654-6.465-5.727,0-1.162.437-.929,1.843.983a11.022,11.022,0,0,0,5.931,3.883c1.445.472,2.155.8,1.97.919a7.441,7.441,0,0,1-3.279-.059Zm124.913-14.085c.044-.136.321-.281.618-.325a46.034,46.034,0,0,0,7.2-3.241,5.1,5.1,0,0,0,1.445-1.318c.35-.663.792-.775.993-.244.189.487-.37,1.465-1.3,2.282a17.475,17.475,0,0,1-5.576,2.686c-1.839.36-3.474.437-3.381.159Zm-.9-2.642a10.66,10.66,0,0,1,2.175-1.46,20.993,20.993,0,0,0,5.468-4.2c.872-1.138,1.752-.889,1.125.321-.7,1.348-3.629,3.723-6.14,4.968-1.368.68-2.792.881-2.627.374Zm76.314,145.074a8.233,8.233,0,0,1,1.781-1.868,37.243,37.243,0,0,1,7.647-3.839c1.1-.4,2.044-.765,2.088-.8.137-.1-1.542-2.856-5.054-8.3A240.686,240.686,0,0,1,1135.7,668.7c-3.459-6.559-4.48-8.708-4.992-10.533a3.45,3.45,0,0,0-.559-1.232,32.083,32.083,0,0,1-1.065-5.123c-1.178-7.284-1.475-9.828-2.384-20.574-.253-3-.755-7.707-1.115-10.461-1.975-15.17-2.208-17.47-2.208-21.937a10.175,10.175,0,0,0-.19-2.769,1.509,1.509,0,0,0-.608.477c-.233.263-2.18,1.99-4.321,3.839-4.2,3.624-5.784,5.084-12.61,11.6-6.353,6.068-13.131,12.148-27.623,24.789-2.749,2.4-3.2,2.884-3.4,3.673a63.33,63.33,0,0,1-2.846,7.619c-.735,1.728-2,5.235-2.822,7.789s-2.067,6.4-2.782,8.539-2.1,6.7-3.08,10.123-2.632,8.787-3.668,11.91-2.409,7.327-3.05,9.346-1.294,3.936-1.46,4.257a18.62,18.62,0,0,0-.983,4.5,2.791,2.791,0,0,1-1.635,1.942,5.974,5.974,0,0,0-1.143.427c-.871.4.161.415,45.066.423l45.96.01Zm-212.694.423c4.1-.541,7.02-1.324,7.02-1.893,0-.131-.574-.516-1.279-.847-1.235-.574-1.411-.6-4.953-.578a33.894,33.894,0,0,0-9.613,1.236,6.716,6.716,0,0,0-1.952.744c-.33.395-.062.964.633,1.339.808.437,6.782.437,10.144,0Zm117.366-.448c3.147-.6,4.676-1.153,4.758-1.726.063-.443-.1-.536-1.488-.9a21.763,21.763,0,0,0-3.45-.521,8.793,8.793,0,0,0-3.852.462c-2.243.661-4.121,1.547-4.306,2.034-.166.427-.074.511.963.9s4.627.273,7.376-.253Zm10.854-83.539a12.9,12.9,0,0,0,4.977-4.7,18.167,18.167,0,0,0,1.567-6.617,2.994,2.994,0,0,0-.112-1.167,18.29,18.29,0,0,0-4.111,2.4c-5.439,4.058-7.979,8.972-5.365,10.392.866.472,1.547.4,3.045-.306Zm-57.049-52.981a4.547,4.547,0,0,0,1.5-.643,6.517,6.517,0,0,0-1.727-.8c-.943-.351-2.548-1.023-3.561-1.485l-1.834-.846-.554.817a2.361,2.361,0,0,0-.278,2.568c.8,1.1,3.659,1.27,6.452.385Zm11.263-.914c4.359-.546,6.413-2.146,4.763-3.708-2.042-1.932-12.731-5.25-18.974-5.887-2.414-.248-6.7-.1-7.327.254-.758.432,3.547,3.892,6.991,5.618a41.173,41.173,0,0,0,12.363,3.927c.186.014,1.168-.078,2.185-.2Zm.643-9.06a14.679,14.679,0,0,0,.827-1.781c.131-.437.072-.5-.477-.5a43.324,43.324,0,0,0-6.412,1.567l-.667.273,1.446.427c.8.239,2,.614,2.67.842,1.8.613,1.868.594,2.613-.827ZM928.43,502.288a28.613,28.613,0,0,0,18.406-11.867l1.187-1.727-3.406-.146a41.035,41.035,0,0,1-5.138-.516,35.506,35.506,0,0,1-11.973-5.176c-1.44-1.08-1.835-1.863-1.235-2.462.331-.33.418-.306,1.085.321,2.185,2.044,8.718,4.9,13.126,5.75a35.2,35.2,0,0,0,7.814.467c.725-.136.88-.286,1.4-1.42,2.082-4.54,2.432-6.349,2.412-12.4-.015-3.781-.054-4.16-.725-6.681-1.639-6.134-2.924-8.275-5.556-9.234a6.5,6.5,0,0,1-1.381-.6,2.5,2.5,0,0,1,.228-.526c.161-.3.467-.428,1.018-.428h.788l-.507-.725a41.05,41.05,0,0,0-5.886-5.852c-3.08-2.417-8.68-5.429-10.981-5.9-.559-.112-1.668-.355-2.466-.536a36.348,36.348,0,0,0-10.494-.238c-1.425.209-3.075.511-3.673.676l-1.075.292,1,.025a3.568,3.568,0,0,1,1.334.233c.695.438-.2.755-2.608.919-7.6.526-13.729,5.285-17.865,13.886a33.063,33.063,0,0,0-3.362,12.98c-.482,6.373.326,10.946,2.705,15.354,2.7,5.006,7.794,9.5,14.415,12.718A30.513,30.513,0,0,0,921.96,502.8a25.082,25.082,0,0,0,6.47-.516Zm10.246-29.444a2.56,2.56,0,0,1-.7-1.406,17.4,17.4,0,0,1,.623-6.057c.321-.959.536-1.24,1.212-1.572.656-.321.924-.35,1.3-.151,1.455.778,2,6.077.8,7.828-.984,1.445-2.4,2.034-3.236,1.358Zm6.942-.38c-.6-.521-.623-.6-.6-2.612.044-3.766,1.006-5.867,2.612-5.707.988.1,1.508,1.279,1.65,3.707.121,2.136-.2,4.126-.77,4.753a2.428,2.428,0,0,1-2.895-.141Zm-12-13.744c-.413-.666,4.515-3.736,6.13-3.819,1.411-.068.983.481-1.143,1.473a36.534,36.534,0,0,0-3.362,1.791c-1.44.924-1.406.909-1.625.554ZM1108.7,495.388a30.313,30.313,0,0,0,13.262-6.183,31.625,31.625,0,0,0,10.255-17.539,59.2,59.2,0,0,0,.089-9.011,46.506,46.506,0,0,0-2-7.4c-3.152-7.789-9.137-13.769-17.8-17.787-5.206-2.419-13.68-2.973-19.772-1.3l-1.08.3,1,.024a3.609,3.609,0,0,1,1.333.234c.691.438-.2.753-2.608.919-7.6.526-13.729,5.283-17.865,13.886a33.062,33.062,0,0,0-3.362,12.98,28.457,28.457,0,0,0,1.227,12.036c2.3,6.592,7.686,12,16.044,16.118a35.346,35.346,0,0,0,10.349,3.119c.306.049,2.31.1,4.451.117a24.421,24.421,0,0,0,6.472-.507Zm-30.417-13.063c-2.189-.2-3.172-.8-2.876-1.746.181-.559.822-.584,1.615-.063.847.549,7.235.536,9.507-.024,3.829-.944,9.234-4.223,12.4-7.523,1.036-1.08,1.746-1.259,1.746-.442.005.554-3.556,3.859-5.682,5.268a40.869,40.869,0,0,1-7.284,3.751,28.217,28.217,0,0,1-9.423.778Zm-2.424-18.088c-.661-.663-.866-1.723-.735-3.771.112-1.746.565-2.851,1.388-3.385a2.075,2.075,0,0,1,2.719.851c.929,1.781.04,5.435-1.562,6.408-.909.554-1.167.539-1.81-.1Zm10.4-.73c-.929-.375-1.192-2.6-.574-4.8.477-1.7,1.314-2.617,2.394-2.617,1.113,0,1.62.584,1.8,2.077.365,2.914-.842,5.512-2.544,5.473a4.392,4.392,0,0,1-1.08-.131Zm-12.289-9.731c0-.69,2.764-2.583,3.77-2.583.6,0,.579.36-.044.735-.278.166-1.158.72-1.965,1.231-1.605,1.018-1.761,1.075-1.761.618Zm16.717-1.152a6.749,6.749,0,0,0-2.228-.882c-1.63-.218-1.7-.267-1.227-.8.365-.4.623-.452,1.893-.38,1.975.112,3.614,1.051,3.717,2.136.064.628.005.715-.442.7a5.433,5.433,0,0,1-1.713-.773ZM888.406,626.908a11.036,11.036,0,0,1-1.495-1.771c-.787-1.143-.822-1.264-.559-1.9.408-.988.574-1,1.133-.063.808,1.348,1.985,2.73,2.33,2.73.176,0,.321-.045.321-.1a35.124,35.124,0,0,0-1.016-5.385c-.516-1.771-.521-1.9-.186-2.754.2-.486.433-.891.521-.891A24.53,24.53,0,0,1,891.047,622c.432,2.18.379,4.441-.117,4.991a1.845,1.845,0,0,1-2.525-.087Zm-20.629-71.225a10.507,10.507,0,0,1,.423-6.671c.735-1.5,2.146-3.012,2.817-3.012.4,0,.355.122-.428,1.013a9.483,9.483,0,0,0-2.165,7.322c.243,2.291.243,2.637-.01,2.724-.137.049-.413-.554-.638-1.376Zm142.077-2.652a7.941,7.941,0,0,0-1.761-.818c-1.236-.437-1.965-.524-5.006-.588-4.014-.078-4.563-.156-4.563-.613,0-.526,1-.668,4.675-.668,4.247,0,5.332.293,6.547,1.776.74.905.823,1.582.107.91Zm-2.193-9.891c-.413-.277-1.222-.384-3.406-.442-2-.054-2.836-.156-2.777-.331.121-.36,1.878-.633,3.055-.472a13.962,13.962,0,0,1,3.639,1c.419.39,0,.594-.511.248Zm0,0" transform="translate(-816.883 -425.203)" fill="#346db6"/>
    </g>
  </g>
</svg>
