<svg xmlns="http://www.w3.org/2000/svg" width="188.648" height="283.887" viewBox="0 0 188.648 283.887">
  <g id="Group_170" data-name="Group 170" transform="translate(-885 -428)">
    <path id="Path_261" data-name="Path 261" d="M1047.7,711.605c-3.316-.605-5.426-2.355-7.234-6.016a56.136,56.136,0,0,1-3.6-9.515c-2.1-7.9-2.243-8.264-3.567-9.23a12.414,12.414,0,0,0-5.189-1.96c-2.7-.307-7.086.689-10.446,2.384a68.024,68.024,0,0,0-10.88,7.711c-1.971,1.68-4.9,3.952-6.509,5.056s-3.233,2.277-3.607,2.6c-1.946,1.694-9.3,5.465-13.433,6.889a52.828,52.828,0,0,1-5.322,1.448,17.174,17.174,0,0,1-5.429.444c-3.533-.153-7.9-1.036-9.624-1.946a7.29,7.29,0,0,1-3.82-5.563c-.246-1.538-.122-2.331.715-4.717.29-.822.631-1.882.758-2.36.227-.833,3.233-6.529,6.47-12.264A126.061,126.061,0,0,0,973,672.485a102.484,102.484,0,0,0,4.144-14.008A82.28,82.28,0,0,0,978.6,638.82c-.4-6.121-1.714-14.458-2.764-17.591a81.6,81.6,0,0,0-5.144-11.88c-3.267-5.682-10.293-17.143-11.772-19.213a61.027,61.027,0,0,1-4.322-7.761,48.159,48.159,0,0,1-2.43-7.545,42.047,42.047,0,0,1,.01-11.224,67.129,67.129,0,0,1,2.5-9.747,100.982,100.982,0,0,1,5.144-11.372,66.752,66.752,0,0,1,8.032-10.758l1.582-1.64-2.613-.478a17.349,17.349,0,0,1-3.7-1.036,2.507,2.507,0,0,0-2.316-.3c-1.448.3-9.515,2.572-16.867,4.756-8.545,2.532-22.623,6.287-28.546,7.6-1.133.256-3.208.636-4.607.848-2.385.365-2.567.37-2.879.024a1.293,1.293,0,0,1-.329-.517c0-.173,4.592-6.085,7.357-9.471a272.867,272.867,0,0,1,20.863-22.381l7.416-7.253,1.285-2.6a24.311,24.311,0,0,0,1.287-2.848,7.328,7.328,0,0,0-1.68-1.509,28.951,28.951,0,0,1-7.865-9A30.853,30.853,0,0,1,934.114,480c-.6-2.478-.532-10.49.122-13.768,2.065-10.353,8.457-19.266,15.887-22.164,2.562-1,8.866-3.164,10.28-3.528a3.28,3.28,0,0,0,2.257-1.321,37.581,37.581,0,0,1,6.736-6.129,52.014,52.014,0,0,1,8.3-4.322c1.591-.626,3.69-.985,3.69-.636,0,.227-2.04,1.272-4.558,2.331a35.492,35.492,0,0,0-11.24,7.174,14.99,14.99,0,0,0-2,2.119c.054.049,2.021.148,4.361.212l4.258.124.734-.764a23.121,23.121,0,0,1,8.225-4.809c3.749-1.207,6.755-1.69,8.037-1.287.931.286,1.143.6.414.6a2.153,2.153,0,0,0-.853.217,24.366,24.366,0,0,1-3.079.749c-4.854.965-8.165,2.306-10.812,4.38l-1.577,1.232,2.282.8a41.924,41.924,0,0,1,8.456,4.312,31.324,31.324,0,0,1,12.2,15.9,26.858,26.858,0,0,1,1.709,9.968,25.512,25.512,0,0,1-2.793,12.576,33.883,33.883,0,0,1-10.058,12.472,34.888,34.888,0,0,1-13.532,5.661,44.2,44.2,0,0,1-11.121,0,36.145,36.145,0,0,1-12.1-4.371,5.728,5.728,0,0,0-1.345-.7,37.569,37.569,0,0,0-2.435,5.613c.054.177.946,2.671,1.985,5.533,2.509,6.929,6.816,19.859,6.648,19.952a4.842,4.842,0,0,1-.827.226l-.7.154L950,523.338c-4-12.452-6.307-18.986-6.509-18.41-.088.237-1.355,3.459-2.818,7.165-3.676,9.293-4.051,10.3-6.165,16.463-1.745,5.075-1.907,5.439-2.474,5.632-.334.109-.665.148-.724.083-.315-.31,4.8-14.448,8.91-24.633,1.029-2.538,1.867-4.722,1.867-4.854,0-.354-8.895,8.288-13.059,12.689-3.986,4.212-8.879,9.7-12.121,13.595-3.686,4.42-7.155,9.022-6.859,9.091,1.167.266,22.523-5.193,34.536-8.825,6.806-2.06,16.66-4.81,17.223-4.81a2.251,2.251,0,0,0,1.148-.532,17.893,17.893,0,0,1,10.126-2.242l2.765.108,1.518-1.311a26.169,26.169,0,0,1,10.264-5.415c1.537-.434,2.143-.473,7.43-.453,5.622.024,17.055.566,19.646.936,1.775.251,2.168.439,3.815,1.808a20.974,20.974,0,0,1,5.489,8.974,26.507,26.507,0,0,1,.444,12.191c-.429,1.734-1.453,3.863-1.986,4.129-.212.1-4.135.217-8.717.247s-8.466.1-8.628.161c-.542.208-.325-1.453.561-4.351a21,21,0,0,0,1.227-8.6c-.271-4.79-1.036-6.987-3.218-9.259a15.324,15.324,0,0,0-12.324-4.982,22.363,22.363,0,0,0-13.2,5.322l-1.375,1.148,1.068.719c1.7,1.143,1.967,2.38.814,3.75-.926,1.1-2.04,1.409-5.154,1.433l-2.764.025-1.543,1.518a81.653,81.653,0,0,0-7.667,9.934,83.119,83.119,0,0,0-5.746,12.857c-1.97,6.321-2.469,9.185-2.493,14.329a18.044,18.044,0,0,0,.566,5.8,45.733,45.733,0,0,0,6.667,14.493c4.1,6.352,7.406,11.733,11.353,18.527a76.634,76.634,0,0,1,4.6,10.131A55.954,55.954,0,0,1,979,628.315a39.061,39.061,0,0,0,.448,4.04,91.1,91.1,0,0,1,.439,15.955,82.087,82.087,0,0,1-5.834,24.968c-.956,2.346-3.779,7.993-5.751,11.506-6.76,12.038-8.155,15.143-7.9,17.592a6.875,6.875,0,0,0,3.7,5.844A27.32,27.32,0,0,0,975.919,710a46.964,46.964,0,0,0,19.548-8.033c1.272-.931,3.347-2.4,4.613-3.257s3.547-2.606,5.07-3.893a81.688,81.688,0,0,1,7.958-6.248c5.4-3.622,9.461-5.105,14.083-5.144,3.415-.024,6.09.922,7.781,2.755,1.222,1.326,1.577,2.218,2.844,7.14,1.872,7.277,3.912,12.2,5.992,14.443,2.02,2.184,4.612,3.04,8.376,2.774,2.647-.187,5.012-1.1,8.072-3.123,1.128-.749,1.443-1.06,1.326-1.331a18.445,18.445,0,0,1-1.281-5.78c-.2-1.794-.394-3.376-.444-3.523-.054-.173-.694.064-1.887.7a41.361,41.361,0,0,1-9.614,3.376c-3.849.965-6.548,1.231-7.091.694-.142-.148-.217-.305-.168-.354a21.318,21.318,0,0,1,2.375-.434,76.649,76.649,0,0,0,11.358-3.1,28.267,28.267,0,0,0,3.888-1.838,15.328,15.328,0,0,1,1.931-1.06c.095,0,.163.429.153.956a3.877,3.877,0,0,0,.1,1.153,23.83,23.83,0,0,1,.469,2.789c.427,3.228.941,5.451,1.35,5.859a.756.756,0,0,1,.187.7c-.241.709-3.04,2.681-5.651,3.971a11.072,11.072,0,0,1-4.445,1.507,13.877,13.877,0,0,1-5.114-.1Zm-25.368-168.469a18.039,18.039,0,0,0,1.3-5.429,22.576,22.576,0,0,0-3.967-14.808,17.223,17.223,0,0,0-2.291-2.532l-1.528-1.375-1.868-.148c-2.927-.232-11.979-.78-12.939-.78h-.863l1.187.78c5.578,3.661,7.16,6.8,7.16,14.2a22.5,22.5,0,0,1-1.409,8.131c-.419,1.29-.759,2.37-.759,2.4s3.534.029,7.86,0c6.992-.064,7.889-.108,8.12-.429Zm-10.609-2.3c-1.35-.783-1.818-4.322-.838-6.327.773-1.581,1.661-2.335,2.74-2.335,1.7,0,2.435,1.582,2.045,4.405-.285,2.06-.655,2.8-1.838,3.711-1.073.817-1.473.921-2.109.546Zm2.08-1.277a6.862,6.862,0,0,0,.7-5.543c-.394-.936-1.236-1.212-1.9-.621-1.572,1.4-1.689,4.76-.226,6.43.473.537.8.473,1.424-.266Zm3.291,1.3c-.163-.266.1-.37,1.513-.592,1.039-.168,1.09-.207,1.385-1.148a17.2,17.2,0,0,0,.349-3.74,16.62,16.62,0,0,1,.188-2.908c.3-.305.768.429.906,1.419a15.328,15.328,0,0,1-.621,5.214l-.3.887h.843q1.427,0,.359.749c-.561.39-4.39.488-4.622.119Zm-6.377-12.482a9.987,9.987,0,0,1-2.518-4.78c-.226-1.813.824-3.237,2.189-2.976,1.256.241,3.094,3.089,3.591,5.553.237,1.183.232,1.217-.458,2.08-.907,1.148-1.631,1.182-2.8.117Zm2.321-1.153c.134-1.823-2.306-5.853-3.4-5.637-.281.054-.349.346-.349,1.37a6.317,6.317,0,0,0,1.986,4.4c1.158,1.212,1.675,1.172,1.769-.134Zm5.844.956a10.787,10.787,0,0,1-1.631-.8c-2.469-1.862-3.084-3.834-1.74-5.583.385-.5.868-.906,1.07-.906.6,0,1.818,1.621,3.02,3.991,1.144,2.262,1.459,3.651.858,3.759a5.217,5.217,0,0,1-1.577-.458Zm-.468-3.109c-1.765-3.1-2.026-3.355-2.523-2.424a2.834,2.834,0,0,0,.424,2.494c.458.758,3.118,2.631,3.232,2.281a10.747,10.747,0,0,0-1.133-2.35Zm-41.762,3.4a2.187,2.187,0,0,0,.961-.468c.237-.389-1.251-1.591-2.65-2.138-2.4-.931-7.077-.537-10.624.9l-.646.261,1.287.4c3.04.966,9.8,1.567,11.672,1.044Zm-3.72-28.3a29.514,29.514,0,0,0,15.488-8.411c3.779-4.174,6.879-10.407,7.479-15.049.074-.6.134-2.843.124-5-.01-3.686-.049-4.056-.705-6.509a30.051,30.051,0,0,0-4.346-9.88c-3.976-6.031-12.063-11.663-18.912-13.166a23.712,23.712,0,0,0-6.09-.576c-1.967-.02-4.12.044-4.775.127a38.841,38.841,0,0,0-4.756.931c-.049.049.341.095.867.1a3.258,3.258,0,0,1,1.282.208c.675.423-.2.734-2.543.9-7.411.508-13.4,5.164-17.428,13.547a32.653,32.653,0,0,0-3.321,15.2c-.044,4.317.183,6.06,1.163,8.958q2.884,8.507,12.555,14.256a34.72,34.72,0,0,0,13.266,4.751c.3.049,2.252.1,4.341.112a23.908,23.908,0,0,0,6.312-.492Zm15.389-11.718c-.453-.444-2.8-1.114-5.4-1.548-1.887-.315-3.144-.354-7.913-.256a63.224,63.224,0,0,0-13.349,1.36c-2.908.6-3.445.582-3.081-.1.8-1.494,12.772-3.055,21.287-2.774,3.928.124,7.436.724,9.22,1.572.872.414,1.019,1.1.37,1.69-.488.438-.719.448-1.134.054Zm-3.681-8.057c-.827-1,.671-4.134,2.548-5.327,1.182-.748,1.848-.807,2.444-.207.5.5.527.744.188,1.76-.838,2.5-4.2,4.952-5.18,3.774Zm-8.667-5.677c-.424-.3-.482-.488-.393-1.277a7.394,7.394,0,0,1,2.252-4.168c1.251-1.256,2.114-1.473,3.094-.783.449.31.5.487.414,1.513a3.744,3.744,0,0,1-1.063,2.409c-1.6,2.065-3.327,2.986-4.3,2.306ZM993.93,472.2a16.043,16.043,0,0,0-.508-3.262c-.365-1.153-.37-1.282-.044-1.607.887-.887,1.685.612,1.853,3.489.093,1.6.044,2.055-.281,2.657-.66,1.231-.9.926-1.019-1.277Zm-10.541-10.077a7.992,7.992,0,0,0-4.681-.434c-.951.158-1.044.138-.975-.222.285-1.488,6.056-1.458,7.041.039.331.513.29,1.212-.074,1.173-.088-.02-.68-.261-1.311-.556ZM909.422,704.411a16.3,16.3,0,0,1-4.642-1.078l-1.163-.527H885.675l-.339-.483a1.938,1.938,0,0,1-.336-.656c0-.088,4.193-.168,9.323-.168,9.249,0,9.332,0,9.575-.453.285-.537,2.109-1.4,3.39-1.606.9-.144.9-.149,1.044-1.266,1.183-9.313,3.316-23.008,5.544-35.641,1.538-8.708,5.385-31.626,6.923-41.245,1.463-9.141,2.158-14.412,2.735-20.685.3-3.311.754-7.628,1.005-9.6.4-3.164.463-4.874.507-14.656.04-8.559.134-11.826.414-14.4a112.477,112.477,0,0,1,3.652-20.409c.98-3.489,1.182-4.006,1.636-4.179,1.094-.414,1.094-.31.019,3.44a111.673,111.673,0,0,0-3.754,21.1,174.425,174.425,0,0,0,.015,22.12c.324,3.681.324,4.554-.005,11.723-.444,9.491-.759,13.715-1.873,25-1.039,10.545-1.533,14.6-3.361,27.678-1.5,10.717-2.089,15.344-3.774,29.414-1.01,8.44-1.758,15.088-2.084,18.522l-.144,1.478.834-.178c2.586-.546,7.825.059,11.623,1.346,1.9.641,2.419,1.079,2.257,1.892l-.117.6h13.693c12.4,0,13.679.035,13.561.346a2.178,2.178,0,0,0-.132.65c0,.266-2.824.312-19.612.312H918.281l-.414.463c-.773.872-1.765,1.109-4.864,1.172-1.611.035-3.222.02-3.581-.029Zm6.465-1.316c.453-.074.792-.241.753-.375-.226-.768-4.6-2.208-7.445-2.449-2.4-.207-5.105.753-4.43,1.567A7.111,7.111,0,0,0,908.12,703a48.647,48.647,0,0,0,7.767.1Zm2.562-1.941c.251-.305.856-.331,5.341-.187,5.219.161,5.963.049,4.139-.612a25.776,25.776,0,0,0-8.849-1.753,6.5,6.5,0,0,0-3.331.463,2.868,2.868,0,0,1-1.236.365,7.377,7.377,0,0,1-.074-2.223c.232-4.5,3.637-32.532,5.741-47.266,2.089-14.634,3.745-28.87,4.759-40.923.3-3.578.878-14.546.843-16.063l-.024-1.193-.178,1.3c-.1.72-.385,3.7-.636,6.623-.507,5.943-1.074,10.4-2.513,19.647-1.272,8.155-5.888,35.921-7.021,42.224-2.08,11.546-5.663,34.966-5.663,37v.729l1.356.144a13.436,13.436,0,0,1,5.178,1.3c1.665.843,1.8.868,2.169.424Zm57.4,2.922A15.264,15.264,0,0,1,970.2,702.3a13.111,13.111,0,0,1-5.09-4.78c-.675-1.419-.822-2.774-.341-3.178.312-.257.395-.257.563,0a1.715,1.715,0,0,1,.2.748c.01.71,1.277,2.716,2.394,3.779a15.061,15.061,0,0,0,8.683,3.81l1.621.108-1.626-.3a13.763,13.763,0,0,1-2.389-.631c-.705-.312-.346-.336,5.3-.351,3.335-.019,6.021.02,5.972.07s-.68.339-1.394.655l-1.3.573.975-.124a69.418,69.418,0,0,0,8.859-1.957,28.057,28.057,0,0,1,3.795-.912c.449.149-1.753,1.277-4.144,2.119a37.823,37.823,0,0,1-16.433,2.134Zm4.617-1.207a2.36,2.36,0,0,0-.873,0c-.265.054-.1.1.38.1s.7-.039.493-.093ZM999,702.15l.651-.651h33.917l.823.573a4.486,4.486,0,0,1,.828.655c0,.039-8.3.08-18.434.08H998.35l.655-.651Zm64.221,0V701.5h10.422v1.307h-10.422Zm-28.748-1.4a23.669,23.669,0,0,0-7.287-2.3c-8.594-1.66-15.261-1.4-22.47.883-3.108.985-3.4,1.044-3.508.739-.114-.32,2.918-1.69,5.174-2.341,3.808-1.1,5.755-1.321,11.579-1.321a41.88,41.88,0,0,1,12.552,1.409c1.921.493,7.726,3.213,7.735,3.627.005.178-.324.271-.96.271a6.053,6.053,0,0,1-2.814-.97Zm.749-2.119a1.353,1.353,0,0,1,.207-.6c.158-.251.261-.266.463-.063s.2.334-.014.59c-.335.4-.661.439-.656.069Zm-2.174-.912a.587.587,0,0,1,.222-.453c.129-.078.168-.444.088-.853-.112-.6-.024-.843.5-1.433.439-.488.754-.666,1.005-.573.334.129.321.207-.129.829-.354.487-.419.714-.226.783.473.168.3,1.089-.3,1.562-.665.522-1.163.582-1.163.137Zm-3.906-1.306a3.239,3.239,0,0,1,.541-1.118,3.154,3.154,0,0,0,.542-1.385c0-.626.4-1.07,1.336-1.468a3.258,3.258,0,0,0,1.217-1.509,3.187,3.187,0,0,1,1-1.33c.463-.09.458.375-.015,1.05a2.973,2.973,0,0,0-.444.965,2.173,2.173,0,0,1-1.285,1.612c-.459.187-.72.532-1,1.3a6.727,6.727,0,0,1-.824,1.621c-.492.626-1.073.77-1.073.261Zm-19.661-.788c-.178-.285.592-1.118,1.745-1.892.655-.438.857-.709.8-1.068s.109-.573.675-.843a2.932,2.932,0,0,0,1.109-.976,2.733,2.733,0,0,1,.848-.877,2.185,2.185,0,0,0,.636-.488c.113-.173.163-.173.163.015a1.681,1.681,0,0,1-.532.763,1.735,1.735,0,0,0-.546.99c0,.315-.227.6-.651.824-.36.182-.656.512-.656.724a2.933,2.933,0,0,1-.843,1.232c-.468.463-.8.965-.738,1.123.2.512-1.706.976-2.011.483Zm15.753-.305a6.3,6.3,0,0,1,.98-1.74c.764-1.07.956-1.5.853-1.916-.108-.439.03-.7.764-1.375a13.5,13.5,0,0,0,1.655-1.946,3.548,3.548,0,0,1,1.178-1.227c.69-.182.68.173-.015.685a1.509,1.509,0,0,0-.641.877,3.019,3.019,0,0,1-.892,1.266c-.749.729-.858.937-.665,1.292s0,.749-1.08,2.36c-1.241,1.848-2.138,2.572-2.138,1.724Zm-11.25-.271c.044-.231.458-.507,1.044-.7.537-.173,1.005-.336,1.044-.356s-.049-.231-.2-.468c-.36-.581-.114-1.109.651-1.375.66-.231.956-.838.98-2.04.015-.527.168-.724.832-1.05.449-.217.814-.522.814-.675a4.235,4.235,0,0,1,1.951-1.419c.373,0,.246.38-.271.8a1.34,1.34,0,0,0-.488,1.045c0,.517-.138.714-.7.975a2.131,2.131,0,0,0-1.36,1.563,1.518,1.518,0,0,1-.65.822c-.557.395-.617.527-.434,1.005.3.783.01,1.153-1.336,1.734-1.434.621-1.986.66-1.887.143Zm5.386-.073a7.364,7.364,0,0,1,1.4-1.543c1.1-1.029,1.365-1.39,1.212-1.67-.266-.5.073-1.02,1.089-1.666.675-.424.838-.64.755-1.024a2.446,2.446,0,0,1,1.329-2.448c1.1-.646,1.455-.351.573.458-.336.31-.789.724-1.006.926a.945.945,0,0,0-.276.976c.1.473-.005.729-.449,1.138a2.363,2.363,0,0,1-.743.532c-.095,0-.113.349-.045.778.124.744.054.853-1.433,2.282-1.409,1.355-2.41,1.877-2.41,1.261Zm-56.716-3.588c-.39-.636,1.719-6.589,3.764-10.629.912-1.8,2.174-4.05,2.8-5,1.133-1.7,2.754-3.562,3.094-3.562.251,0-.616,1.646-1.587,3.006a11.4,11.4,0,0,0-1.3,2.562c-.32.966-.563,1.375-.759,1.3s-.339.134-.438.581c-.2.927-.917,2.321-1.193,2.321-.261,0-1.1,1.838-2.237,4.893-1.026,2.764-1.985,4.79-2.148,4.529Zm13.866-21.75c-.212-.351.326-1.3,2.065-3.647,3.266-4.4,5.292-8.5,7.9-15.99a78.138,78.138,0,0,0,3.8-18.4c.434-6.2-1.094-15.748-3.593-22.484-1.848-4.982-3.627-7.771-9.115-14.31-2.1-2.508-3.888-4.705-3.957-4.883s-.719-1.306-1.434-2.5c-1.941-3.228-4.469-8.569-4.7-9.915-.1-.634-.385-1.986-.622-3a47.111,47.111,0,0,1-.236-18.42,46.626,46.626,0,0,1,7.219-17.074,45.867,45.867,0,0,1,11.54-10.762,9.1,9.1,0,0,0,1.833-1.39,9.605,9.605,0,0,1,3.45-2.784c1.36-.636,1.536-.66,5.923-.848,5.149-.212,6.563-.078,6.662.616.083.568-.424.788-1.168.508-1.507-.576-4.39-.044-4.085.748a4.135,4.135,0,0,1-1.024,2.838,8.084,8.084,0,0,1-2.07,1.444c-2.414,1.187-6.165,1.094-7.7-.2l-.655-.552-1.276.9a9.553,9.553,0,0,1-1.424.9,49.875,49.875,0,0,0-5.426,4.686c-3.01,2.952-5.307,6.44-7.83,11.9-2.33,5.046-3.252,9.363-3.488,16.326a38.446,38.446,0,0,0,1.38,12.313,28.156,28.156,0,0,0,3.366,8.871c1.892,3.474,2.937,4.947,6.784,9.569a81.279,81.279,0,0,1,6.539,8.5,67.7,67.7,0,0,1,3.44,8.308,86.533,86.533,0,0,1,2.2,9.5c.8,5.095.98,13.108.334,14.763a28.076,28.076,0,0,0-.68,3.149,75.8,75.8,0,0,1-4.193,15.093,48.046,48.046,0,0,1-7.3,13.561c-2.07,2.681-2.3,2.923-2.464,2.657Zm18-141.229a5.793,5.793,0,0,0,1.7-1.222,1.9,1.9,0,0,0,.532-1.714l-.064-1-1.813-.064a8.225,8.225,0,0,0-5.159,1.275c-1.094.754-1.907,1.824-1.734,2.277.231.607,1.473.946,3.5.951a5.977,5.977,0,0,0,3.045-.5Zm-38.839,11.964c-.034-.148-.231-.759-.438-1.355-1.991-5.785-2.494-7.387-2.356-7.52a1.854,1.854,0,0,1,.809-.227l.646-.069,1.015,2.933c1.458,4.213,1.64,4.671,1.847,4.617.1-.03,1.261-.493,2.577-1.031s2.464-.98,2.558-.98-.074.359-.375.8c-.463.675-.971.985-3.213,1.951-2.922,1.256-2.972,1.272-3.07.877Zm0,0" transform="translate(0)" fill="#346db6"/>
  </g>
</svg>
