<?xml version="1.0" encoding="utf-8"?>
<!-- Generator: Adobe Illustrator 19.0.0, SVG Export Plug-In . SVG Version: 6.00 Build 0)  -->
<!DOCTYPE svg PUBLIC "-//W3C//DTD SVG 1.1//EN" "http://www.w3.org/Graphics/SVG/1.1/DTD/svg11.dtd">
<svg version="1.1" id="Layer_1" xmlns="http://www.w3.org/2000/svg" xmlns:xlink="http://www.w3.org/1999/xlink" x="0px" y="0px"
	 width="60.2px" height="58.6px" viewBox="0 0 60.2 58.6" style="enable-background:new 0 0 60.2 58.6;" xml:space="preserve">
<style type="text/css">
	.st0{fill:#FFFFFF;}
</style>
<path id="XMLID_18_" class="st0" d="M28.9,4.5c6.2-0.4,12.6,1.4,17.8,5.8c11.1,9.3,12.9,26.2,4.1,37.8c-3.8,5-9,8.2-14.6,9.5
	c6.9-0.5,13.7-3.9,18.3-10.1c8.8-11.6,7-28.5-4.1-37.8C44.2,4.5,36.2,2.9,28.9,4.5"/>
<path id="XMLID_17_" class="st0" d="M46.7,13.2c3.6,5.3,5.3,12,4.5,18.9c-1.8,14.7-14.7,25.1-28.8,23.2c-6.1-0.8-11.4-3.8-15.3-8.2
	c4,6,10.3,10.2,17.7,11.2c14.1,1.9,27-8.4,28.8-23.2C54.6,26.8,51.8,18.9,46.7,13.2"/>
<path id="XMLID_16_" class="st0" d="M34.4,52.8C28.4,54,21.8,53,16.1,49.5C3.9,42,0,25.9,7.3,13.5c3.2-5.4,7.9-9.2,13.3-11.1
	C13.8,3.7,7.6,7.9,3.7,14.5c-7.3,12.4-3.4,28.6,8.7,36.1C19.3,54.8,27.4,55.4,34.4,52.8"/>
<path id="XMLID_15_" class="st0" d="M14.2,44.9c-3.7-5.1-5.6-11.5-4.9-18.3C10.7,12.2,23.3,1.6,37.4,3c6.1,0.6,11.5,3.4,15.5,7.5
	C48.8,4.8,42.4,0.9,35,0.1C20.8-1.3,8.2,9.2,6.7,23.7C5.9,31.9,8.9,39.5,14.2,44.9"/>
</svg>
