<?xml version="1.0" encoding="utf-8"?>
<!-- Generator: Adobe Illustrator 19.2.1, SVG Export Plug-In . SVG Version: 6.00 Build 0)  -->
<svg version="1.1" id="Layer_1" xmlns="http://www.w3.org/2000/svg" xmlns:xlink="http://www.w3.org/1999/xlink" x="0px" y="0px"
	 viewBox="0 0 101.9 103.8" style="enable-background:new 0 0 101.9 103.8;" xml:space="preserve">
<style type="text/css">
	.st0{clip-path:url(#SVGID_2_);fill:#4A68AC;}
	.st1{clip-path:url(#SVGID_4_);fill:#744E99;}
	.st2{clip-path:url(#SVGID_6_);fill:#AA8ABF;}
	.st3{clip-path:url(#SVGID_8_);fill:#5084B3;}
	.st4{fill:#575756;}
</style>
<g id="XMLID_5_">
	<g id="XMLID_13_">
		<g>
			<defs>
				<path id="SVGID_1_" d="M20.5,61.6c6.7,0,13.3,0,20,0c10.7,0,21.5,0,32.2,0c1.7,0,3.4,0,5,0c0.7,0,2,0.3,2.7,0
					c0.3-0.1,0.2-0.2,0.2-0.6c0-1.1,0-2.3,0-3.4c0-10.1,0-20.1,0-30.2c0-5.2,0-10.3,0-15.5c0-1.8,0-3.6,0-5.4c0-1,0.1-2,0-3
					c0-0.5,0.2-0.4-0.4-0.5c-1,0-2,0-3,0C73,3,68.8,3,64.7,3c-11,0-21.9,0-32.9,0c-3.4,0-6.7,0-10.1,0c-0.2,0-1.1-0.1-1.2,0
					c-0.2,0.2,0,1.7,0,2c0,9.3,0,18.7,0,28c0,9,0,18,0,27C20.5,60.6,20.5,61.1,20.5,61.6z"/>
			</defs>
			<clipPath id="SVGID_2_">
				<use xlink:href="#SVGID_1_"  style="overflow:visible;"/>
			</clipPath>
			<path id="XMLID_18_" class="st0" d="M49.5,7.6c10.9-0.8,21.1,6,25.3,15.9c3.7,8.9,2.6,19.4-3.1,27.2c-3.6,5-8.9,8.6-14.9,10
				c11.7-0.8,21.1-10,23.4-21.3C82.3,28.8,78,17.5,69,11.3C63.3,7.4,56.2,6,49.5,7.6"/>
		</g>
		<g>
			<defs>
				<path id="SVGID_3_" d="M20.5,61.6c6.7,0,13.3,0,20,0c10.7,0,21.5,0,32.2,0c1.7,0,3.4,0,5,0c0.7,0,2,0.3,2.7,0
					c0.3-0.1,0.2-0.2,0.2-0.6c0-1.1,0-2.3,0-3.4c0-10.1,0-20.1,0-30.2c0-5.2,0-10.3,0-15.5c0-1.8,0-3.6,0-5.4c0-1,0.1-2,0-3
					c0-0.5,0.2-0.4-0.4-0.5c-1,0-2,0-3,0C73,3,68.8,3,64.7,3c-11,0-21.9,0-32.9,0c-3.4,0-6.7,0-10.1,0c-0.2,0-1.1-0.1-1.2,0
					c-0.2,0.2,0,1.7,0,2c0,9.3,0,18.7,0,28c0,9,0,18,0,27C20.5,60.6,20.5,61.1,20.5,61.6z"/>
			</defs>
			<clipPath id="SVGID_4_">
				<use xlink:href="#SVGID_3_"  style="overflow:visible;"/>
			</clipPath>
			<path id="XMLID_17_" class="st1" d="M67.2,16.2c6.1,9.1,6.2,21.5,0.1,30.7C62.2,54.7,53,59.4,43.7,58.4c-6.2-0.6-12-3.7-16.1-8.3
				C34,59.6,46.2,64,57,60.1c10.3-3.7,17-13.8,17.3-24.6C74.5,28.5,71.9,21.5,67.2,16.2"/>
		</g>
		<g>
			<defs>
				<path id="SVGID_5_" d="M20.5,61.6c6.7,0,13.3,0,20,0c10.7,0,21.5,0,32.2,0c1.7,0,3.4,0,5,0c0.7,0,2,0.3,2.7,0
					c0.3-0.1,0.2-0.2,0.2-0.6c0-1.1,0-2.3,0-3.4c0-10.1,0-20.1,0-30.2c0-5.2,0-10.3,0-15.5c0-1.8,0-3.6,0-5.4c0-1,0.1-2,0-3
					c0-0.5,0.2-0.4-0.4-0.5c-1,0-2,0-3,0C73,3,68.8,3,64.7,3c-11,0-21.9,0-32.9,0c-3.4,0-6.7,0-10.1,0c-0.2,0-1.1-0.1-1.2,0
					c-0.2,0.2,0,1.7,0,2c0,9.3,0,18.7,0,28c0,9,0,18,0,27C20.5,60.6,20.5,61.1,20.5,61.6z"/>
			</defs>
			<clipPath id="SVGID_6_">
				<use xlink:href="#SVGID_5_"  style="overflow:visible;"/>
			</clipPath>
			<path id="XMLID_16_" class="st2" d="M55,55.8c-10.8,2.2-21.9-3-27.3-12.4C23,35.3,23,25,27.6,16.9c3-5.3,7.8-9.4,13.5-11.5
				C30,7.7,21.7,17.4,20.6,28.7c-0.9,10.5,4.6,20.8,13.9,25.8C40.8,57.8,48.3,58.3,55,55.8"/>
		</g>
		<g>
			<defs>
				<path id="SVGID_7_" d="M20.5,61.6c6.7,0,13.3,0,20,0c10.7,0,21.5,0,32.2,0c1.7,0,3.4,0,5,0c0.7,0,2,0.3,2.7,0
					c0.3-0.1,0.2-0.2,0.2-0.6c0-1.1,0-2.3,0-3.4c0-10.1,0-20.1,0-30.2c0-5.2,0-10.3,0-15.5c0-1.8,0-3.6,0-5.4c0-1,0.1-2,0-3
					c0-0.5,0.2-0.4-0.4-0.5c-1,0-2,0-3,0C73,3,68.8,3,64.7,3c-11,0-21.9,0-32.9,0c-3.4,0-6.7,0-10.1,0c-0.2,0-1.1-0.1-1.2,0
					c-0.2,0.2,0,1.7,0,2c0,9.3,0,18.7,0,28c0,9,0,18,0,27C20.5,60.6,20.5,61.1,20.5,61.6z"/>
			</defs>
			<clipPath id="SVGID_8_">
				<use xlink:href="#SVGID_7_"  style="overflow:visible;"/>
			</clipPath>
			<path id="XMLID_15_" class="st3" d="M34.7,48c-6.1-8.3-6.7-19.9-1.6-28.8c4.9-8.6,14.7-14,24.7-13.1c5.9,0.6,11.5,3.3,15.7,7.5
				C67,4.7,55.1,0.9,44.7,4.4C34.3,8,27.2,18.3,27.1,29.2C27.1,36.2,29.8,43,34.7,48"/>
		</g>
	</g>
</g>
<g id="XMLID_110_">
	<path id="XMLID_111_" class="st4" d="M8.5,87.7c1.4,0,2.7-0.3,3.9-0.8v1.4c-1.2,0.5-2.6,0.7-4,0.7c-4.1,0-6.2-2.3-6.2-6.8
		s2.1-6.8,6.2-6.8c1.4,0,2.8,0.3,4.1,0.8v1.4c-1.3-0.6-2.6-0.9-4-0.9c-3.4,0-4.9,1.7-4.9,5.5C3.6,86,5.2,87.7,8.5,87.7z"/>
	<path id="XMLID_113_" class="st4" d="M26.9,82.2c0,4.5-2.1,6.8-6.2,6.8s-6.2-2.3-6.2-6.8s2.1-6.8,6.2-6.8
		C24.8,75.4,26.9,77.7,26.9,82.2z M25.4,82.2c0-3.8-1.5-5.5-4.8-5.5s-4.7,1.7-4.7,5.5s1.5,5.5,4.7,5.5C24,87.7,25.4,86,25.4,82.2z"
		/>
	<path id="XMLID_116_" class="st4" d="M40.7,75.5v13.3h-1.6l-8-11.2v11.2h-1.4V75.5h1.6l8,11.2V75.5H40.7z"/>
	<path id="XMLID_118_" class="st4" d="M54,75.5v1.4h-4.7v11.9h-1.4V76.9h-4.7v-1.4H54z"/>
	<path id="XMLID_120_" class="st4" d="M57.6,75.5v13.3h-1.4V75.5H57.6z"/>
	<path id="XMLID_122_" class="st4" d="M72,75.5v13.3h-1.6l-8-11.2v11.2H61V75.5h1.6l8,11.2V75.5H72z"/>
	<path id="XMLID_124_" class="st4" d="M86.2,75.5v7.9c0,3.6-1.9,5.6-5.4,5.6s-5.4-2-5.4-5.6v-7.9h1.4v7.9c0,2.9,1.3,4.2,4,4.2
		s4-1.4,4-4.2v-7.9H86.2z"/>
	<path id="XMLID_126_" class="st4" d="M99.8,88.9h-1.5l-1.6-4.2h-5.8l-1.6,4.2h-1.6L93,75.6h1.4L99.8,88.9z M96.1,83.3l-2.3-6.1
		l-2.3,6.1H96.1z"/>
</g>
<g id="XMLID_64_">
	<g id="XMLID_198_">
		<path id="XMLID_217_" class="st4" d="M25.9,99.5c0,0.9-0.7,1.5-1.9,1.5c-0.6,0-1.1-0.2-1.6-0.4v-0.8c0.4,0.3,0.9,0.4,1.5,0.4
			s1.2-0.1,1.2-0.8c0-1.4-2.8-0.7-2.8-2.5c0-0.7,0.5-1.5,1.9-1.5c0.6,0,1,0.2,1.4,0.3v0.7c-0.3-0.2-0.7-0.4-1.3-0.4
			c-0.6,0-1.2,0.1-1.2,0.8C23,97.9,25.9,97.6,25.9,99.5z"/>
		<path id="XMLID_214_" class="st4" d="M33.2,98.2c0,2.3-1.4,2.7-2.5,2.7s-2.5-0.5-2.5-2.7s1.4-2.7,2.5-2.7S33.2,96,33.2,98.2z
			 M32.5,98.2c0-1.8-0.9-2.1-1.7-2.1s-1.7,0.2-1.7,2.1s0.9,2.1,1.7,2.1S32.5,100,32.5,98.2z"/>
		<path id="XMLID_212_" class="st4" d="M39.3,100.2v0.7h-3.4v-5.3h0.7v4.6C36.6,100.2,39.3,100.2,39.3,100.2z"/>
		<path id="XMLID_210_" class="st4" d="M46.1,95.6v3.1c0,1.4-0.8,2.3-2.2,2.3s-2.2-0.8-2.2-2.3v-3.1h0.7v3.2c0,1,0.5,1.5,1.4,1.5
			s1.4-0.5,1.4-1.5v-3.2H46.1z"/>
		<path id="XMLID_208_" class="st4" d="M52.9,96.3h-1.8v4.6h-0.7v-4.6h-1.8v-0.7h4.3V96.3z"/>
		<path id="XMLID_206_" class="st4" d="M56.1,100.9h-0.7v-5.3h0.7V100.9z"/>
		<path id="XMLID_203_" class="st4" d="M63.8,98.2c0,2.3-1.4,2.7-2.5,2.7s-2.5-0.5-2.5-2.7s1.4-2.7,2.5-2.7
			C62.5,95.5,63.8,96,63.8,98.2z M63.1,98.2c0-1.8-0.9-2.1-1.7-2.1s-1.7,0.2-1.7,2.1s0.9,2.1,1.7,2.1S63.1,100,63.1,98.2z"/>
		<path id="XMLID_201_" class="st4" d="M71.1,95.6v5.3h-0.8l-3-4.3v4.3h-0.7v-5.3h0.8l3,4.2v-4.2H71.1z"/>
		<path id="XMLID_199_" class="st4" d="M77.4,99.5c0,0.9-0.7,1.5-1.9,1.5c-0.6,0-1.1-0.2-1.6-0.4v-0.8c0.4,0.3,0.9,0.4,1.5,0.4
			s1.2-0.1,1.2-0.8c0-1.4-2.8-0.7-2.8-2.5c0-0.7,0.5-1.5,1.9-1.5c0.6,0,1,0.2,1.4,0.3v0.7c-0.3-0.2-0.7-0.4-1.3-0.4
			c-0.6,0-1.2,0.1-1.2,0.8C74.6,97.9,77.4,97.6,77.4,99.5z"/>
	</g>
</g>
</svg>
